<svg id="Слой_1" data-name="Слой 1" xmlns="http://www.w3.org/2000/svg" xmlns:xlink="http://www.w3.org/1999/xlink" width="370" height="204" viewBox="0 0 370 204"><defs><style>.cls-1{fill:#f8f8f8;}.cls-2{fill:url(#Безымянный_градиент_3);}.cls-3{fill:#1f2021;}.cls-4{fill:#e54545;}</style><linearGradient id="Безымянный_градиент_3" x1="185" y1="1062" x2="185" y2="858" gradientTransform="translate(0 -858)" gradientUnits="userSpaceOnUse"><stop offset="0" stop-color="#f8f8f8"/><stop offset="1" stop-color="#fff"/></linearGradient></defs><rect class="cls-1" width="370" height="204"/><path class="cls-2" d="M369,.93V203.07H1V.93H369M370,0H0V204H370Z"/><path class="cls-3" d="M186.53,119.61a7.42,7.42,0,0,0-7,0,6.43,6.43,0,0,0-2.4,2.4,6.87,6.87,0,0,0,0,6.77,6.25,6.25,0,0,0,2.44,2.37,7.19,7.19,0,0,0,3.49.86,7,7,0,0,0,3.47-.88,6.12,6.12,0,0,0,2.47-2.37,7,7,0,0,0,0-6.75A6.2,6.2,0,0,0,186.53,119.61Zm1.28,5.76a5,5,0,0,1-.62,2.44,4.57,4.57,0,0,1-1.7,1.71,5,5,0,0,1-2.43.62,4.87,4.87,0,0,1-2.44-.62,4.42,4.42,0,0,1-1.72-1.71,5.07,5.07,0,0,1,0-4.87,4.42,4.42,0,0,1,1.72-1.71,5.07,5.07,0,0,1,4.87,0A4.66,4.66,0,0,1,187.81,125.37Z"/><path class="cls-3" d="M197.38,118.75h-5V132h2v-3.95h3a5.84,5.84,0,0,0,3.94-1.24,4.77,4.77,0,0,0,.08-6.75.6.6,0,0,0-.08-.08A5.9,5.9,0,0,0,197.38,118.75Zm-3,1.88h2.93a3.84,3.84,0,0,1,2.52.72,2.9,2.9,0,0,1,0,4.11v0h0a3.85,3.85,0,0,1-2.52.73H194.4Z"/><polygon class="cls-3" points="203.34 120.62 207.65 120.62 207.65 132 209.68 132 209.68 120.62 213.99 120.62 213.99 118.75 203.34 118.75 203.34 120.62"/><rect class="cls-3" x="215.7" y="118.75" width="2.05" height="13.25"/><path class="cls-3" d="M224.64,121.23a4.85,4.85,0,0,1,2.47-.62,4.54,4.54,0,0,1,3.44,1.47l.09.09,1.36-1.31-.08-.09a5.65,5.65,0,0,0-2.13-1.51,7.51,7.51,0,0,0-6.23.36,6.16,6.16,0,0,0-2.44,2.39,7,7,0,0,0,0,6.79,6.31,6.31,0,0,0,2.42,2.36,7.47,7.47,0,0,0,6.2.33,5.79,5.79,0,0,0,2.17-1.48l.08-.09-1.35-1.31-.09.09a4.57,4.57,0,0,1-3.44,1.48,5.09,5.09,0,0,1-2.47-.62,4.65,4.65,0,0,1-1.73-1.71,4.74,4.74,0,0,1-.62-2.44,4.91,4.91,0,0,1,.62-2.43A4.48,4.48,0,0,1,224.64,121.23Z"/><path class="cls-3" d="M242.35,126.26a3.92,3.92,0,0,0-1.53-1.08,16.93,16.93,0,0,0-2.3-.7c-.69-.16-1.27-.32-1.71-.47a3.05,3.05,0,0,1-1-.62,1.26,1.26,0,0,1-.39-1,1.57,1.57,0,0,1,.71-1.34,3.7,3.7,0,0,1,2.22-.54,6.68,6.68,0,0,1,1.72.25,6.25,6.25,0,0,1,1.66.76l.12.08.69-1.68-.08-.06a5.78,5.78,0,0,0-1.89-.86,8.73,8.73,0,0,0-2.22-.29,6.44,6.44,0,0,0-2.74.5,3.8,3.8,0,0,0-1.66,1.36,3.45,3.45,0,0,0-.55,1.9,3,3,0,0,0,.65,2,4.09,4.09,0,0,0,1.54,1.09,18.62,18.62,0,0,0,2.31.7,17.77,17.77,0,0,1,1.73.48,3,3,0,0,1,1,.6,1.25,1.25,0,0,1,.38,1,1.53,1.53,0,0,1-.72,1.33,4.06,4.06,0,0,1-2.26.52,7,7,0,0,1-2.27-.4,5.23,5.23,0,0,1-1.8-1l-.13-.11L233,130.3l.07.07a6,6,0,0,0,2.12,1.17,8.27,8.27,0,0,0,2.7.45,7.06,7.06,0,0,0,2.84-.49,3.76,3.76,0,0,0,1.69-1.36,3.27,3.27,0,0,0,.56-1.89A3,3,0,0,0,242.35,126.26Z"/><path class="cls-4" d="M137.31,119.63a7.47,7.47,0,0,0-7,0,6.23,6.23,0,0,0-2.44,2.39,6.67,6.67,0,0,0-.89,3.38,6.6,6.6,0,0,0,.89,3.38,6.25,6.25,0,0,0,2.44,2.37,7,7,0,0,0,3.5.87,7.11,7.11,0,0,0,3.47-.86,6.14,6.14,0,0,0,1.44-1.09l.09-.09-1.42-1.39-.09.09a4.45,4.45,0,0,1-1.07.86,5.09,5.09,0,0,1-4.87,0,4.56,4.56,0,0,1-2.26-3.23h11.43v-.91a6.44,6.44,0,0,0-.87-3.4A6.18,6.18,0,0,0,137.31,119.63Zm-8.18,4.84a4.51,4.51,0,0,1,.53-1.52,4.42,4.42,0,0,1,1.72-1.71,4.88,4.88,0,0,1,2.45-.62,4.77,4.77,0,0,1,2.42.62,4.5,4.5,0,0,1,2.29,3.23Z"/><polygon class="cls-4" points="150.66 118.76 146.69 125.49 142.74 118.76 140.53 118.76 145.62 127.39 145.62 132.01 147.65 132.01 147.65 127.43 152.73 118.76 150.66 118.76"/><path class="cls-4" d="M165.39,122a6.14,6.14,0,0,0-2.39-2.38,6.92,6.92,0,0,0-3.48-.87,7.12,7.12,0,0,0-3.5.86,6.33,6.33,0,0,0-2.48,2.39,6.87,6.87,0,0,0,0,6.77,6.32,6.32,0,0,0,2.46,2.35,7.23,7.23,0,0,0,3.5.86,7.12,7.12,0,0,0,3.5-.86,6,6,0,0,0,1.39-1.12l.09-.09-1.42-1.39-.09.09a4.45,4.45,0,0,1-1.07.86,5.07,5.07,0,0,1-4.87,0,4.42,4.42,0,0,1-1.72-1.71,4.61,4.61,0,0,1-.54-1.52H166.2v-.11c0-.27,0-.53,0-.8A6.57,6.57,0,0,0,165.39,122Zm-10.61,2.46a5.49,5.49,0,0,1,.53-1.52,4.55,4.55,0,0,1,1.69-1.71,4.88,4.88,0,0,1,2.45-.62,4.77,4.77,0,0,1,2.42.62,4.6,4.6,0,0,1,2.24,3.23Z"/><path class="cls-3" d="M226.92,90a19.48,19.48,0,0,0-38.84,0h-6.15a19.48,19.48,0,0,0-38.85,0H127v3h16.08a19.48,19.48,0,0,0,33,12.45L174,103.34A16.49,16.49,0,0,1,146.08,93h42a19.48,19.48,0,0,0,38.84,0H243V90Zm-80.84,0a16.49,16.49,0,0,1,32.84,0Zm61.42,18a16.49,16.49,0,0,1-16.42-15h32.85A16.51,16.51,0,0,1,207.5,108ZM191.08,90a16.49,16.49,0,0,1,32.84,0Z"/></svg>