<svg id="Слой_1" data-name="Слой 1" xmlns="http://www.w3.org/2000/svg" xmlns:xlink="http://www.w3.org/1999/xlink" width="370" height="204" viewBox="0 0 370 204"><defs><style>.cls-1{fill:#f8f8f8;}.cls-2{fill:url(#Безымянный_градиент);}.cls-3{fill:#e54545;}.cls-4{fill:#1f2021;}</style><linearGradient id="Безымянный_градиент" x1="185" y1="1062" x2="185" y2="858" gradientTransform="translate(0 -858)" gradientUnits="userSpaceOnUse"><stop offset="0" stop-color="#f8f8f8"/><stop offset="1" stop-color="#fff"/></linearGradient></defs><rect class="cls-1" width="370" height="204"/><path class="cls-2" d="M369,.93V203.07H1V.93H369M370,0H0V204H370Z"/><path class="cls-3" d="M25.35,110v.91H20v-7.31H25.2v.91H21.09v2.22h3.67v.89H21.09V110h4.26Z"/><path class="cls-3" d="M31.7,105.36,29,111.45a2.83,2.83,0,0,1-.83,1.19,1.91,1.91,0,0,1-1.14.34,2.34,2.34,0,0,1-.79-.13,1.69,1.69,0,0,1-.63-.38l.42-.75a1.45,1.45,0,0,0,1,.41,1,1,0,0,0,.61-.19,1.63,1.63,0,0,0,.44-.66l.18-.39-2.44-5.52h1l1.93,4.43,1.91-4.43h1Z"/><path class="cls-3" d="M37.46,108.46H33a1.74,1.74,0,0,0,.64,1.17,2.09,2.09,0,0,0,1.36.44,2.06,2.06,0,0,0,1.6-.67l.55.65a2.32,2.32,0,0,1-.94.67,3.53,3.53,0,0,1-2.81-.13,2.53,2.53,0,0,1-1.05-1,2.8,2.8,0,0,1-.35-1.47,2.92,2.92,0,0,1,.36-1.45,2.6,2.6,0,0,1,1-1,2.87,2.87,0,0,1,1.43-.36,2.8,2.8,0,0,1,1.42.36,2.53,2.53,0,0,1,1,1,3.07,3.07,0,0,1,.35,1.48A1.06,1.06,0,0,1,37.46,108.46Zm-3.92-1.86a1.77,1.77,0,0,0-.59,1.12H36.5a1.73,1.73,0,0,0-1.78-1.58A1.72,1.72,0,0,0,33.54,106.6Z"/><path class="cls-4" d="M42.82,110.6a2.67,2.67,0,0,1-1-1,3.08,3.08,0,0,1,0-2.92,2.6,2.6,0,0,1,1-1,3.24,3.24,0,0,1,3,0,2.53,2.53,0,0,1,1,1,3.08,3.08,0,0,1,0,2.92,2.74,2.74,0,0,1-1,1,2.93,2.93,0,0,1-1.48.37A3.11,3.11,0,0,1,42.82,110.6Zm2.44-.76a1.69,1.69,0,0,0,.66-.69,2.27,2.27,0,0,0,0-2,1.66,1.66,0,0,0-.66-.68,1.92,1.92,0,0,0-1-.24,2,2,0,0,0-1,.24,1.82,1.82,0,0,0-.67.68,2.13,2.13,0,0,0,0,2,1.78,1.78,0,0,0,.67.69,2,2,0,0,0,1.92,0Z"/><path class="cls-4" d="M53,105.72a2.67,2.67,0,0,1,1,1,3.2,3.2,0,0,1,0,3,2.53,2.53,0,0,1-1,1,2.9,2.9,0,0,1-1.44.35,2.54,2.54,0,0,1-1.09-.23,2.19,2.19,0,0,1-.84-.67V113h-1v-7.56h1v.88a2.05,2.05,0,0,1,.85-.69,2.73,2.73,0,0,1,1.13-.24A2.93,2.93,0,0,1,53,105.72Zm-.57,4.17a1.78,1.78,0,0,0,.67-.69,2.2,2.2,0,0,0,0-2,1.82,1.82,0,0,0-.67-.68,1.92,1.92,0,0,0-1-.24,1.84,1.84,0,0,0-1.62.93,2.06,2.06,0,0,0-.25,1,2.17,2.17,0,0,0,.24,1,1.65,1.65,0,0,0,.67.69,1.93,1.93,0,0,0,1,.25,2,2,0,0,0,.95-.31Z"/><path class="cls-4" d="M58.8,110.57a1.57,1.57,0,0,1-.54.29,2.18,2.18,0,0,1-.67.1,1.75,1.75,0,0,1-1.29-.45,1.72,1.72,0,0,1-.46-1.28v-3H55v-.83h.94v-1.21h1v1.21h1.59v.83H56.84v3a1,1,0,0,0,.22.69.81.81,0,0,0,.64.24,1.17,1.17,0,0,0,.78-.26Z"/><path class="cls-4" d="M60,104.11a.66.66,0,0,1,0-.92h0a.65.65,0,0,1,.49-.19.68.68,0,0,1,.49.18.58.58,0,0,1,.19.46.59.59,0,0,1-.19.47.65.65,0,0,1-.49.19A.69.69,0,0,1,60,104.11Zm0,1.25h1v5.54H60Z"/><path class="cls-4" d="M63.83,110.6a2.67,2.67,0,0,1-1-1,3,3,0,0,1,0-2.92,2.67,2.67,0,0,1,1-1,3,3,0,0,1,1.51-.36,3,3,0,0,1,1.34.3,2.09,2.09,0,0,1,.91.88l-.76.49a1.78,1.78,0,0,0-.65-.6,2,2,0,0,0-.86-.2,2,2,0,0,0-1,.24,1.71,1.71,0,0,0-.68.68,2.18,2.18,0,0,0-.25,1,2,2,0,0,0,.25,1,1.71,1.71,0,0,0,.68.68,2,2,0,0,0,1,.24,2,2,0,0,0,.86-.2,1.71,1.71,0,0,0,.65-.6l.76.48a2.2,2.2,0,0,1-.91.88,2.81,2.81,0,0,1-1.34.31A2.93,2.93,0,0,1,63.83,110.6Z"/><path class="cls-4" d="M69.17,110.78a2.85,2.85,0,0,1-1-.46l.42-.79a2.91,2.91,0,0,0,.89.42,3.37,3.37,0,0,0,1,.16q1.32,0,1.32-.75a.49.49,0,0,0-.18-.4,1.19,1.19,0,0,0-.44-.21c-.18,0-.43-.1-.76-.15a6.85,6.85,0,0,1-1.09-.24,1.75,1.75,0,0,1-.73-.46,1.3,1.3,0,0,1-.3-.91,1.43,1.43,0,0,1,.63-1.21,2.8,2.8,0,0,1,1.68-.46,4.63,4.63,0,0,1,1.11.14,3,3,0,0,1,.91.37l-.43.79a2.93,2.93,0,0,0-1.6-.44,1.83,1.83,0,0,0-1,.21.63.63,0,0,0-.33.55.51.51,0,0,0,.19.43,1.33,1.33,0,0,0,.46.23c.18.05.44.1.78.17a7.71,7.71,0,0,1,1.08.25,1.81,1.81,0,0,1,.71.44,1.28,1.28,0,0,1,.29.88,1.39,1.39,0,0,1-.64,1.2,3,3,0,0,1-1.75.44A5.65,5.65,0,0,1,69.17,110.78Z"/><path class="cls-4" d="M82.43,111l-1-1a3.67,3.67,0,0,1-3.76.7,2.17,2.17,0,0,1-.91-.67,1.58,1.58,0,0,1-.33-1,1.91,1.91,0,0,1,.41-1.19,5,5,0,0,1,1.36-1.06,3.59,3.59,0,0,1-.68-.87,1.72,1.72,0,0,1-.2-.8,1.45,1.45,0,0,1,.54-1.19,2.14,2.14,0,0,1,1.44-.45,2,2,0,0,1,1.33.41,1.38,1.38,0,0,1,.49,1.12,1.47,1.47,0,0,1-.36,1,4.31,4.31,0,0,1-1.2.92l1.81,1.8a4.55,4.55,0,0,0,.45-1.33l.8.26a4.6,4.6,0,0,1-.64,1.67l1,1Zm-1.57-1.55-2.08-2.07a4,4,0,0,0-1,.78,1.27,1.27,0,0,0-.3.81,1,1,0,0,0,.45.85,2,2,0,0,0,1.19.32A2.46,2.46,0,0,0,80.86,109.46Zm-2.3-5a.83.83,0,0,0-.28.64,1,1,0,0,0,.15.54,4,4,0,0,0,.59.71,4.61,4.61,0,0,0,1-.7,1,1,0,0,0,.28-.64.72.72,0,0,0-.26-.58,1,1,0,0,0-.72-.22,1.18,1.18,0,0,0-.76.29Z"/><path class="cls-4" d="M88.34,110.5A3.51,3.51,0,0,1,87,109.16a3.92,3.92,0,0,1,0-3.84A3.51,3.51,0,0,1,88.34,104a4.09,4.09,0,0,1,2-.49,4.2,4.2,0,0,1,1.57.29,3.32,3.32,0,0,1,1.21.85l-.68.66a2.72,2.72,0,0,0-2.06-.87,2.92,2.92,0,0,0-1.47.37,2.67,2.67,0,0,0-1,1,3,3,0,0,0,0,2.88,2.67,2.67,0,0,0,1,1,2.92,2.92,0,0,0,1.47.37,2.7,2.7,0,0,0,2.06-.88l.68.66a3.19,3.19,0,0,1-1.22.86,4,4,0,0,1-1.57.29A4.17,4.17,0,0,1,88.34,110.5Z"/><path class="cls-4" d="M95.75,110.5a3.51,3.51,0,0,1-1.39-1.34,3.77,3.77,0,0,1-.51-1.91,3.67,3.67,0,0,1,.51-1.91A3.51,3.51,0,0,1,95.75,104a4.33,4.33,0,0,1,4,0,3.51,3.51,0,0,1,1.39,1.34,3.92,3.92,0,0,1,0,3.84,3.51,3.51,0,0,1-1.39,1.34,4.09,4.09,0,0,1-2,.49A4.5,4.5,0,0,1,95.75,110.5Zm3.44-.81a2.53,2.53,0,0,0,1-1,3,3,0,0,0,0-2.88,2.67,2.67,0,0,0-1-1,2.92,2.92,0,0,0-1.45-.37,2.88,2.88,0,0,0-1.46.37,2.53,2.53,0,0,0-1,1,3,3,0,0,0,0,2.88,2.74,2.74,0,0,0,1,1,3,3,0,0,0,1.46.37,2.84,2.84,0,0,0,1.45-.34Z"/><path class="cls-4" d="M22.55,122.2H20v-.91h6.05v.91H23.58v6.4h-1Z"/><path class="cls-4" d="M31.49,126.17H27a1.74,1.74,0,0,0,.64,1.17,2.09,2.09,0,0,0,1.36.44,2.06,2.06,0,0,0,1.6-.67l.55.65a2.32,2.32,0,0,1-.94.67,3.53,3.53,0,0,1-2.81-.13,2.53,2.53,0,0,1-1-1,2.86,2.86,0,0,1-.37-1.46,2.92,2.92,0,0,1,.36-1.45,2.6,2.6,0,0,1,1-1,2.87,2.87,0,0,1,1.43-.36,2.8,2.8,0,0,1,1.42.36,2.53,2.53,0,0,1,1,1,3.07,3.07,0,0,1,.35,1.48A1.57,1.57,0,0,1,31.49,126.17Zm-3.92-1.87a1.77,1.77,0,0,0-.57,1.15h3.55a1.73,1.73,0,0,0-1.78-1.58A1.71,1.71,0,0,0,27.57,124.3Z"/><path class="cls-4" d="M33,120.85h1v7.75H33Z"/><path class="cls-4" d="M40.79,126.17H36.3a1.74,1.74,0,0,0,.64,1.17,2.09,2.09,0,0,0,1.36.44,2.06,2.06,0,0,0,1.6-.67l.55.65a2.32,2.32,0,0,1-.94.67,3.53,3.53,0,0,1-2.81-.13,2.53,2.53,0,0,1-1-1,2.86,2.86,0,0,1-.37-1.46,2.92,2.92,0,0,1,.36-1.45,2.6,2.6,0,0,1,1-1,2.87,2.87,0,0,1,1.43-.36,2.8,2.8,0,0,1,1.42.36,2.53,2.53,0,0,1,1,1,3.07,3.07,0,0,1,.35,1.48A.76.76,0,0,1,40.79,126.17Zm-3.92-1.87a1.77,1.77,0,0,0-.57,1.15h3.55a1.79,1.79,0,0,0-.57-1.14,1.89,1.89,0,0,0-2.41,0Z"/><path class="cls-4" d="M46.58,123.37a2.67,2.67,0,0,1,1,1,3.2,3.2,0,0,1,0,2.95,2.53,2.53,0,0,1-1,1,2.9,2.9,0,0,1-1.44.35,2.54,2.54,0,0,1-1.09-.23,2.19,2.19,0,0,1-.84-.67v2.86h-1v-7.56h1V124a2.05,2.05,0,0,1,.85-.69,2.73,2.73,0,0,1,1.13-.24A2.93,2.93,0,0,1,46.58,123.37ZM46,127.54a1.78,1.78,0,0,0,.67-.69,2.2,2.2,0,0,0,0-2,1.82,1.82,0,0,0-.67-.68,1.92,1.92,0,0,0-1-.24,1.84,1.84,0,0,0-1.62.93,2.06,2.06,0,0,0-.25,1,2.17,2.17,0,0,0,.24,1,1.65,1.65,0,0,0,.67.69,1.93,1.93,0,0,0,1,.25,1.89,1.89,0,0,0,1-.26Z"/><path class="cls-4" d="M54,123.63a2.4,2.4,0,0,1,.62,1.79v3.19h-1v-3.07a1.72,1.72,0,0,0-.39-1.21,1.48,1.48,0,0,0-1.11-.41,1.69,1.69,0,0,0-1.28.48,1.88,1.88,0,0,0-.47,1.36v2.85h-1v-7.75h1v3a2.18,2.18,0,0,1,.82-.62,2.74,2.74,0,0,1,1.13-.22A2.22,2.22,0,0,1,54,123.63Z"/><path class="cls-4" d="M57.36,128.3a2.67,2.67,0,0,1-1-1,3.08,3.08,0,0,1,0-2.92,2.6,2.6,0,0,1,1-1,3.24,3.24,0,0,1,3,0,2.53,2.53,0,0,1,1,1,3.08,3.08,0,0,1,0,2.92,2.74,2.74,0,0,1-1,1,2.93,2.93,0,0,1-1.48.37A3.11,3.11,0,0,1,57.36,128.3Zm2.44-.76a1.69,1.69,0,0,0,.66-.69,2.27,2.27,0,0,0,0-2,1.66,1.66,0,0,0-.66-.68,1.92,1.92,0,0,0-1-.24,2,2,0,0,0-1,.24,1.82,1.82,0,0,0-.67.68,2.12,2.12,0,0,0,0,2,1.78,1.78,0,0,0,.67.69,1.93,1.93,0,0,0,1,.25A1.84,1.84,0,0,0,59.8,127.54Z"/><path class="cls-4" d="M67.73,123.63a2.4,2.4,0,0,1,.62,1.79v3.19h-1v-3.07a1.72,1.72,0,0,0-.39-1.21,1.48,1.48,0,0,0-1.11-.41,1.69,1.69,0,0,0-1.28.48,1.88,1.88,0,0,0-.47,1.36v2.85h-1v-5.54h1v.83a2,2,0,0,1,.82-.66A2.79,2.79,0,0,1,66.1,123,2.25,2.25,0,0,1,67.73,123.63Z"/><path class="cls-4" d="M75.23,126.17H70.74a1.74,1.74,0,0,0,.64,1.17,2.09,2.09,0,0,0,1.36.44,2.06,2.06,0,0,0,1.6-.67l.55.65a2.32,2.32,0,0,1-.94.67,3.53,3.53,0,0,1-2.81-.13,2.53,2.53,0,0,1-1-1,2.86,2.86,0,0,1-.37-1.46,2.92,2.92,0,0,1,.36-1.45,2.6,2.6,0,0,1,1-1,2.87,2.87,0,0,1,1.43-.36,2.8,2.8,0,0,1,1.42.36,2.53,2.53,0,0,1,1,1,3.07,3.07,0,0,1,.35,1.48A1.76,1.76,0,0,1,75.23,126.17Zm-3.92-1.87a1.77,1.77,0,0,0-.57,1.15h3.55a1.73,1.73,0,0,0-1.78-1.58A1.71,1.71,0,0,0,71.31,124.3Z"/><path class="cls-4" d="M76.38,124.24a.74.74,0,0,1,0-1,.72.72,0,0,1,1,0,.7.7,0,0,1,.2.51.77.77,0,0,1-.2.52.66.66,0,0,1-.49.2A.62.62,0,0,1,76.38,124.24Zm0,4.22a.74.74,0,0,1,0-1,.72.72,0,0,1,1,0,.7.7,0,0,1,.2.51.77.77,0,0,1-.2.52.69.69,0,0,1-1,0Z"/><path class="cls-4" d="M86.25,125.36h-1.9v1.87h-.88v-1.87h-1.9v-.83h1.9v-1.88h.88v1.88h1.9Z"/><path class="cls-4" d="M93.88,126.81H92.49v1.8h-1v-1.8H87.42v-.73l3.74-4.78h1.13l-3.58,4.62h2.81v-1.59h1v1.59h1.39v.89Z"/><path class="cls-4" d="M100.87,126.81H99.48v1.8h-1v-1.8H94.41v-.73l3.74-4.78h1.13l-3.58,4.62h2.81v-1.59h1v1.59h1.39v.89Z"/><path class="cls-4" d="M105.12,128.42a10.57,10.57,0,0,1-.32-2.68,11.06,11.06,0,0,1,.32-2.69,7.61,7.61,0,0,1,.92-2.2h1a9,9,0,0,0-.92,2.3,11.61,11.61,0,0,0,0,5.18,9,9,0,0,0,.92,2.3h-1A7.66,7.66,0,0,1,105.12,128.42Z"/><path class="cls-4" d="M113,127.72v.91H107.7v-.71l3-2.87a3.52,3.52,0,0,0,.73-.9,1.72,1.72,0,0,0,.19-.77,1.06,1.06,0,0,0-.4-.89,1.88,1.88,0,0,0-1.15-.32,2.31,2.31,0,0,0-1.87.79l-.71-.62a2.81,2.81,0,0,1,1.12-.81,3.92,3.92,0,0,1,1.55-.29,2.78,2.78,0,0,1,1.79.48,1.82,1.82,0,0,1,.68,1.49,2.53,2.53,0,0,1-.25,1.11,4.37,4.37,0,0,1-.95,1.19l-2.21,2.21Z"/><path class="cls-4" d="M115.23,128.24a3,3,0,0,1-1.06-1.29,4.73,4.73,0,0,1-.39-2,4.89,4.89,0,0,1,.39-2,3,3,0,0,1,1.06-1.29,2.71,2.71,0,0,1,1.54-.44,2.78,2.78,0,0,1,1.53.44,3,3,0,0,1,1.06,1.29,5.32,5.32,0,0,1,0,4,3,3,0,0,1-1.06,1.29,2.68,2.68,0,0,1-1.53.44A2.63,2.63,0,0,1,115.23,128.24Zm3-1.2a4.37,4.37,0,0,0,0-4.18,1.65,1.65,0,0,0-1.4-.72,1.7,1.7,0,0,0-1.42.72,3.43,3.43,0,0,0-.53,2.09,3.48,3.48,0,0,0,.53,2.09,1.74,1.74,0,0,0,2.43.39A1.8,1.8,0,0,0,118.23,127Z"/><path class="cls-4" d="M120.59,130.63a8.33,8.33,0,0,0,.92-2.3,11.33,11.33,0,0,0,0-5.18,9.15,9.15,0,0,0-.92-2.3h1a8,8,0,0,1,.93,2.19,10.67,10.67,0,0,1,.32,2.7,11,11,0,0,1-.32,2.68,7.63,7.63,0,0,1-.93,2.2h-1Z"/><path class="cls-4" d="M132.42,121.29V122l-3,6.6h-1.07l2.89-6.4H128v1.31h-1V121.3h5.47Z"/><path class="cls-4" d="M138,122.16a4.08,4.08,0,0,1,.8,2.7,4.65,4.65,0,0,1-.43,2.08,3.12,3.12,0,0,1-1.21,1.31,3.47,3.47,0,0,1-1.81.44,4.79,4.79,0,0,1-1-.11,2.59,2.59,0,0,1-.81-.32l.4-.81a2.5,2.5,0,0,0,1.41.34,2.25,2.25,0,0,0,1.78-.71,2.93,2.93,0,0,0,.64-2v-.26a2,2,0,0,1-.87.72,3.09,3.09,0,0,1-1.24.25,2.88,2.88,0,0,1-1.29-.27,2,2,0,0,1-.89-.78,2.25,2.25,0,0,1-.32-1.16,2.15,2.15,0,0,1,.34-1.21,2.25,2.25,0,0,1,.92-.81,3,3,0,0,1,1.32-.29A2.74,2.74,0,0,1,138,122.16Zm-1.3,2.54a1.48,1.48,0,0,0,.6-.51,1.29,1.29,0,0,0,.21-.72,1.36,1.36,0,0,0-.2-.71,1.48,1.48,0,0,0-.6-.51,2.17,2.17,0,0,0-.94-.19,1.69,1.69,0,0,0-1.16.39,1.41,1.41,0,0,0-.07,2,.46.46,0,0,0,.07.07,1.82,1.82,0,0,0,1.21.38,2.2,2.2,0,0,0,.91-.17Z"/><path class="cls-4" d="M144.12,125a1.92,1.92,0,0,1,.56,1.43,2,2,0,0,1-.31,1.13,2.13,2.13,0,0,1-.93.8,3.62,3.62,0,0,1-1.52.3,4.76,4.76,0,0,1-1.5-.24,3.18,3.18,0,0,1-1.18-.65l.48-.83a2.63,2.63,0,0,0,1,.57,3.68,3.68,0,0,0,1.23.19,2.19,2.19,0,0,0,1.27-.34,1.14,1.14,0,0,0,.45-1,1.09,1.09,0,0,0-.45-.94,2.32,2.32,0,0,0-1.36-.33h-.58v-.73l1.84-2.26H139.6v-.91h4.83v.71l-1.91,2.36A2.7,2.7,0,0,1,144.12,125Z"/><path class="cls-4" d="M150.85,121.29V122l-3,6.6h-1.11l2.89-6.4h-3.34v1.31h-1V121.3h5.56Z"/><path class="cls-4" d="M159.22,122.16a4.08,4.08,0,0,1,.8,2.7,4.65,4.65,0,0,1-.43,2.08,3.12,3.12,0,0,1-1.21,1.31,3.47,3.47,0,0,1-1.81.44,4.79,4.79,0,0,1-1-.11,2.59,2.59,0,0,1-.81-.32l.4-.81a2.5,2.5,0,0,0,1.41.34,2.25,2.25,0,0,0,1.78-.71,2.93,2.93,0,0,0,.64-2v-.26a2,2,0,0,1-.87.72,3.09,3.09,0,0,1-1.24.25,2.88,2.88,0,0,1-1.29-.27,2,2,0,0,1-.89-.78,2.25,2.25,0,0,1-.32-1.16,2.15,2.15,0,0,1,.34-1.21,2.25,2.25,0,0,1,.92-.81,3,3,0,0,1,1.32-.29A2.74,2.74,0,0,1,159.22,122.16ZM158,124.72a1.48,1.48,0,0,0,.6-.51,1.29,1.29,0,0,0,.21-.72,1.36,1.36,0,0,0-.2-.71,1.48,1.48,0,0,0-.6-.51,2.17,2.17,0,0,0-.94-.19,1.69,1.69,0,0,0-1.16.39,1.41,1.41,0,0,0-.07,2l.07.07a1.82,1.82,0,0,0,1.21.38A2.25,2.25,0,0,0,158,124.72Z"/><path class="cls-4" d="M165.67,122.16a4.08,4.08,0,0,1,.8,2.7,4.65,4.65,0,0,1-.43,2.08,3.12,3.12,0,0,1-1.21,1.31,3.47,3.47,0,0,1-1.81.44,4.79,4.79,0,0,1-1-.11,2.59,2.59,0,0,1-.81-.32l.4-.81a2.5,2.5,0,0,0,1.41.34,2.25,2.25,0,0,0,1.78-.71,2.93,2.93,0,0,0,.64-2v-.26a2,2,0,0,1-.87.72,3.09,3.09,0,0,1-1.24.25,2.88,2.88,0,0,1-1.29-.27,2,2,0,0,1-.89-.78,2.25,2.25,0,0,1-.32-1.16,2.15,2.15,0,0,1,.34-1.21,2.25,2.25,0,0,1,.92-.81,3,3,0,0,1,1.32-.29A2.74,2.74,0,0,1,165.67,122.16Zm-1.3,2.54a1.48,1.48,0,0,0,.6-.51,1.29,1.29,0,0,0,.21-.72,1.36,1.36,0,0,0-.2-.71,1.48,1.48,0,0,0-.6-.51,2.17,2.17,0,0,0-.94-.19,1.69,1.69,0,0,0-1.16.39,1.41,1.41,0,0,0-.07,2,.46.46,0,0,0,.07.07,1.82,1.82,0,0,0,1.21.38,2.22,2.22,0,0,0,.88-.17Z"/><path class="cls-4" d="M171.86,124.8a2,2,0,0,1,.74,1.61,2.18,2.18,0,0,1-.31,1.17,2.09,2.09,0,0,1-.93.81,3.64,3.64,0,0,1-1.53.3,4.7,4.7,0,0,1-1.49-.24,3.22,3.22,0,0,1-1.19-.65l.48-.83a2.63,2.63,0,0,0,1,.57,3.65,3.65,0,0,0,1.23.21,2.09,2.09,0,0,0,1.28-.35,1.26,1.26,0,0,0,.21-1.76,1.48,1.48,0,0,0-.26-.24,3.17,3.17,0,0,0-1.71-.34h-1.66l.39-3.82h4.13v.91H169l-.2,2h.81A3.68,3.68,0,0,1,171.86,124.8Z"/><path class="cls-4" d="M175,128.24a3,3,0,0,1-1.06-1.29,4.73,4.73,0,0,1-.39-2,4.89,4.89,0,0,1,.39-2,3,3,0,0,1,1.06-1.29,2.71,2.71,0,0,1,1.54-.44,2.78,2.78,0,0,1,1.53.44,3,3,0,0,1,1.06,1.29,5.32,5.32,0,0,1,0,4,3,3,0,0,1-1.06,1.29,2.68,2.68,0,0,1-1.53.44A2.61,2.61,0,0,1,175,128.24Zm2.94-1.2a4.37,4.37,0,0,0,0-4.18,1.65,1.65,0,0,0-1.4-.72,1.7,1.7,0,0,0-1.42.72,3.43,3.43,0,0,0-.53,2.09,3.48,3.48,0,0,0,.53,2.09,1.74,1.74,0,0,0,2.43.39,1.8,1.8,0,0,0,.39-.39Z"/><path class="cls-4" d="M25.54,145.4v.91H20.29v-.71l3-2.87a3.52,3.52,0,0,0,.73-.9,1.72,1.72,0,0,0,.19-.77,1.06,1.06,0,0,0-.4-.89,1.88,1.88,0,0,0-1.15-.32,2.31,2.31,0,0,0-1.87.79l-.71-.62a2.81,2.81,0,0,1,1.12-.81,3.92,3.92,0,0,1,1.55-.29,2.79,2.79,0,0,1,1.83.55,1.82,1.82,0,0,1,.68,1.49,2.53,2.53,0,0,1-.25,1.11,4.37,4.37,0,0,1-1,1.19l-2.24,2.15h3.72Z"/><path class="cls-4" d="M26.41,143h2.81v.87H26.41Z"/><path class="cls-4" d="M34.71,142.5a2,2,0,0,1,.74,1.61,2.18,2.18,0,0,1-.31,1.17,2.09,2.09,0,0,1-.93.81,3.64,3.64,0,0,1-1.53.3,4.7,4.7,0,0,1-1.49-.24A3.22,3.22,0,0,1,30,145.5l.48-.83a2.63,2.63,0,0,0,1,.57,3.65,3.65,0,0,0,1.23.21A2.09,2.09,0,0,0,34,145.1a1.26,1.26,0,0,0,.25-1.75,1.48,1.48,0,0,0-.25-.25,3.17,3.17,0,0,0-1.71-.34H30.53l.39-3.82h4.13v.91H31.8l-.2,2h.81A3.76,3.76,0,0,1,34.71,142.5Z"/><path class="cls-4" d="M46,139v7.31H45v-3.26h-4.2v3.26h-1V139h1v3.14H45V139Z"/><path class="cls-4" d="M53,143.87H48.55a1.74,1.74,0,0,0,.64,1.17,2.09,2.09,0,0,0,1.36.44,2.06,2.06,0,0,0,1.6-.67l.55.65a2.32,2.32,0,0,1-.94.67A3.53,3.53,0,0,1,49,146a2.53,2.53,0,0,1-1-1,2.86,2.86,0,0,1-.37-1.46,2.92,2.92,0,0,1,.36-1.45,2.6,2.6,0,0,1,1-1,2.87,2.87,0,0,1,1.43-.36,2.8,2.8,0,0,1,1.42.36,2.53,2.53,0,0,1,1,1,3.07,3.07,0,0,1,.35,1.48A1.76,1.76,0,0,1,53,143.87ZM49.11,142a1.77,1.77,0,0,0-.57,1.15h3.55a1.73,1.73,0,0,0-1.78-1.58A1.71,1.71,0,0,0,49.11,142Z"/><path class="cls-4" d="M56.18,141a2.78,2.78,0,0,1,1.24-.25v1h-.23a1.66,1.66,0,0,0-1.28.49,1.93,1.93,0,0,0-.46,1.38v2.76h-1v-5.54h1v.91A1.71,1.71,0,0,1,56.18,141Z"/><path class="cls-4" d="M62,146a1.57,1.57,0,0,1-.54.29,2.18,2.18,0,0,1-.67.1,1.75,1.75,0,0,1-1.29-.45,1.72,1.72,0,0,1-.46-1.28v-3H58.1v-.83H59V139.6h1v1.21h1.59v.83H60v3a1,1,0,0,0,.22.69.81.81,0,0,0,.64.24,1.17,1.17,0,0,0,.78-.26Z"/><path class="cls-4" d="M64.34,140.29v.48H66v.83H64.36v4.71h-1V141.6h-.94v-.83h.94v-.49a1.66,1.66,0,0,1,1.83-1.79,2.72,2.72,0,0,1,.63.08,1.54,1.54,0,0,1,.5.24l-.3.76a1.26,1.26,0,0,0-.77-.26C64.64,139.32,64.34,139.64,64.34,140.29Z"/><path class="cls-4" d="M67.7,146a2.67,2.67,0,0,1-1-1,3.08,3.08,0,0,1,0-2.92,2.6,2.6,0,0,1,1-1,3.24,3.24,0,0,1,3,0,2.53,2.53,0,0,1,1,1,3.08,3.08,0,0,1,0,2.92,2.74,2.74,0,0,1-1,1,2.93,2.93,0,0,1-1.48.37A3.11,3.11,0,0,1,67.7,146Zm2.44-.76a1.69,1.69,0,0,0,.66-.69,2.27,2.27,0,0,0,0-2,1.66,1.66,0,0,0-.66-.68,1.92,1.92,0,0,0-1-.24,2,2,0,0,0-1,.24,1.82,1.82,0,0,0-.67.68,2.13,2.13,0,0,0,0,2,1.78,1.78,0,0,0,.67.69,2,2,0,0,0,1.92,0Z"/><path class="cls-4" d="M75.18,141a2.78,2.78,0,0,1,1.24-.25v1h-.23a1.66,1.66,0,0,0-1.28.49,1.93,1.93,0,0,0-.46,1.38v2.76h-1v-5.54h1v.91A1.71,1.71,0,0,1,75.18,141Z"/><path class="cls-4" d="M82.82,138.56v7.75h-1v-.88a2,2,0,0,1-.85.7,2.58,2.58,0,0,1-1.13.24A2.9,2.9,0,0,1,78.4,146a2.53,2.53,0,0,1-1-1,3.2,3.2,0,0,1,0-3,2.53,2.53,0,0,1,1-1,3,3,0,0,1,1.44-.36,2.77,2.77,0,0,1,1.1.22,2.27,2.27,0,0,1,.84.66v-3h1ZM81,145.25a1.65,1.65,0,0,0,.67-.69,2.27,2.27,0,0,0,0-2,1.63,1.63,0,0,0-.67-.68,2.2,2.2,0,0,0-2,0,1.82,1.82,0,0,0-.67.68,2.12,2.12,0,0,0,0,2,1.78,1.78,0,0,0,.67.69,1.93,1.93,0,0,0,1,.25A2,2,0,0,0,81,145.25Z"/><path class="cls-4" d="M88.22,146.14a3.33,3.33,0,0,1-1.21-.66l.39-.81a3.26,3.26,0,0,0,1.07.61,3.83,3.83,0,0,0,1.34.24,2.32,2.32,0,0,0,1.36-.31,1,1,0,0,0,.45-.82.79.79,0,0,0-.25-.61,1.57,1.57,0,0,0-.61-.36c-.24-.08-.58-.18-1-.28a8.85,8.85,0,0,1-1.33-.4,2.22,2.22,0,0,1-.87-.61A1.65,1.65,0,0,1,87.2,141a1.8,1.8,0,0,1,.31-1.05,2.26,2.26,0,0,1,.93-.75,3.79,3.79,0,0,1,1.56-.28,4.92,4.92,0,0,1,1.27.17,3.5,3.5,0,0,1,1.08.48l-.34.84a4,4,0,0,0-2-.59,2.29,2.29,0,0,0-1.33.32,1,1,0,0,0-.44.83.79.79,0,0,0,.25.61,1.86,1.86,0,0,0,.62.37,8.73,8.73,0,0,0,1,.28,8.85,8.85,0,0,1,1.33.4,2.19,2.19,0,0,1,.86.61,1.62,1.62,0,0,1,.36,1.1,1.87,1.87,0,0,1-.31,1,2.07,2.07,0,0,1-1,.75,4,4,0,0,1-1.57.28A6.94,6.94,0,0,1,88.22,146.14Z"/><path class="cls-4" d="M97.13,146a1.57,1.57,0,0,1-.54.29,2.18,2.18,0,0,1-.67.1,1.75,1.75,0,0,1-1.29-.45,1.72,1.72,0,0,1-.46-1.28v-3h-.94v-.83h.94V139.6h1v1.21h1.59v.83H95.17v3a1,1,0,0,0,.22.69.81.81,0,0,0,.64.24,1.17,1.17,0,0,0,.78-.26Z"/><path class="cls-4" d="M100.07,141a2.78,2.78,0,0,1,1.24-.25v1h-.23a1.66,1.66,0,0,0-1.28.49,1.93,1.93,0,0,0-.46,1.38v2.76h-1v-5.54h1v.91A1.76,1.76,0,0,1,100.07,141Z"/><path class="cls-4" d="M107.48,143.87H103a1.74,1.74,0,0,0,.64,1.17,2.09,2.09,0,0,0,1.36.44,2.06,2.06,0,0,0,1.6-.67l.55.65a2.32,2.32,0,0,1-.94.67,3.53,3.53,0,0,1-2.81-.13,2.53,2.53,0,0,1-1-1,2.86,2.86,0,0,1-.37-1.46,2.92,2.92,0,0,1,.36-1.45,2.6,2.6,0,0,1,1-1,2.87,2.87,0,0,1,1.43-.36,2.8,2.8,0,0,1,1.42.36,2.53,2.53,0,0,1,1,1,3.07,3.07,0,0,1,.35,1.48A1.59,1.59,0,0,1,107.48,143.87ZM103.56,142a1.77,1.77,0,0,0-.57,1.15h3.55a1.73,1.73,0,0,0-1.78-1.58A1.66,1.66,0,0,0,103.56,142Z"/><path class="cls-4" d="M113.87,143.87h-4.49A1.74,1.74,0,0,0,110,145a2.09,2.09,0,0,0,1.36.44,2.06,2.06,0,0,0,1.6-.67l.55.65a2.32,2.32,0,0,1-.94.67,3.53,3.53,0,0,1-2.81-.13,2.53,2.53,0,0,1-1-1,2.86,2.86,0,0,1-.37-1.46,2.92,2.92,0,0,1,.36-1.45,2.6,2.6,0,0,1,1-1,2.87,2.87,0,0,1,1.43-.36,2.8,2.8,0,0,1,1.42.36,2.53,2.53,0,0,1,1,1,3.07,3.07,0,0,1,.35,1.48A1.06,1.06,0,0,1,113.87,143.87ZM110,142a1.77,1.77,0,0,0-.57,1.15H113a1.73,1.73,0,0,0-1.78-1.58A1.65,1.65,0,0,0,110,142Z"/><path class="cls-4" d="M118.39,146a1.57,1.57,0,0,1-.54.29,2.18,2.18,0,0,1-.67.1,1.75,1.75,0,0,1-1.29-.45,1.72,1.72,0,0,1-.46-1.28v-3h-.94v-.83h.94V139.6h1v1.21H118v.83h-1.59v3a1,1,0,0,0,.22.69.81.81,0,0,0,.64.24,1.17,1.17,0,0,0,.78-.26Z"/><path class="cls-4" d="M120.45,145.14a.69.69,0,0,1,.19.51.76.76,0,0,1,0,.3,3.88,3.88,0,0,1-.14.45l-.49,1.45h-.66l.39-1.56a.66.66,0,0,1-.32-.25.74.74,0,0,1,.08-.91.7.7,0,0,1,.5-.2A.76.76,0,0,1,120.45,145.14Z"/><path class="cls-4" d="M131.81,146.31V141l-2.64,4.44h-.48L126.05,141v5.29h-1V139h.9l3,5.14,3-5.14h.86v7.31h-1Z"/><path class="cls-4" d="M138.64,141.28a2.19,2.19,0,0,1,.61,1.68v3.34h-1v-.73a1.54,1.54,0,0,1-.72.59,2.75,2.75,0,0,1-1.1.2,2.29,2.29,0,0,1-1.49-.45,1.54,1.54,0,0,1-.18-2.17l.18-.18a2.6,2.6,0,0,1,1.69-.44h1.59v-.2a1.25,1.25,0,0,0-.38-1,1.58,1.58,0,0,0-1.11-.34,2.83,2.83,0,0,0-1,.16,2.34,2.34,0,0,0-.79.43l-.42-.75a3,3,0,0,1,1-.53,4.46,4.46,0,0,1,1.26-.18A2.56,2.56,0,0,1,138.64,141.28Zm-1,4.06a1.5,1.5,0,0,0,.61-.73v-.77H136.7c-.85,0-1.27.29-1.27.86a.78.78,0,0,0,.32.66,1.51,1.51,0,0,0,.9.24A1.81,1.81,0,0,0,137.64,145.34Z"/><path class="cls-4" d="M146,140.77l-2.68,6.09a2.83,2.83,0,0,1-.83,1.19,1.91,1.91,0,0,1-1.14.34,2.34,2.34,0,0,1-.79-.13,1.69,1.69,0,0,1-.63-.38l.43-.75a1.45,1.45,0,0,0,1,.41,1,1,0,0,0,.61-.19,1.63,1.63,0,0,0,.44-.66l.18-.39-2.44-5.52h1l1.93,4.43,1.91-4.43Z"/><path class="cls-4" d="M148,140.29v.48h1.61v.83H148v4.71h-1V141.6H146v-.83H147v-.49a1.66,1.66,0,0,1,1.83-1.79,2.72,2.72,0,0,1,.63.08,1.54,1.54,0,0,1,.5.24l-.3.76a1.26,1.26,0,0,0-.77-.26C148.27,139.32,148,139.64,148,140.29Z"/><path class="cls-4" d="M154.2,141.28a2.19,2.19,0,0,1,.61,1.68v3.34h-1v-.73a1.54,1.54,0,0,1-.72.59,2.75,2.75,0,0,1-1.1.2,2.29,2.29,0,0,1-1.49-.45,1.54,1.54,0,0,1-.18-2.17l.18-.18a2.6,2.6,0,0,1,1.69-.44h1.59v-.2a1.25,1.25,0,0,0-.38-1,1.58,1.58,0,0,0-1.11-.34,2.83,2.83,0,0,0-1,.16,2.34,2.34,0,0,0-.79.43l-.42-.75a3,3,0,0,1,1-.53,4.46,4.46,0,0,1,1.26-.18A2.56,2.56,0,0,1,154.2,141.28Zm-1,4.06a1.5,1.5,0,0,0,.61-.73v-.77h-1.55c-.85,0-1.27.29-1.27.86a.78.78,0,0,0,.32.66,1.51,1.51,0,0,0,.9.24A1.81,1.81,0,0,0,153.2,145.34Z"/><path class="cls-4" d="M156.69,139.52a.66.66,0,0,1,0-.92h0a.65.65,0,0,1,.49-.19.68.68,0,0,1,.49.18.58.58,0,0,1,.19.46.59.59,0,0,1-.19.47.73.73,0,0,1-1,0Zm0,1.25h1v5.54h-1Z"/><path class="cls-4" d="M161.32,141a2.78,2.78,0,0,1,1.24-.25v1h-.23a1.66,1.66,0,0,0-1.28.49,1.93,1.93,0,0,0-.46,1.38v2.76h-1v-5.54h1v.91A1.71,1.71,0,0,1,161.32,141Z"/><path class="cls-4" d="M164.5,145.14a.69.69,0,0,1,.19.51.76.76,0,0,1,0,.3,3.88,3.88,0,0,1-.14.45l-.49,1.45h-.66l.39-1.56a.66.66,0,0,1-.32-.25.74.74,0,0,1,.08-.91.65.65,0,0,1,.95,0Z"/><path class="cls-4" d="M169.09,139h1v6.4h4v.91h-5Z"/><path class="cls-4" d="M176,146a2.67,2.67,0,0,1-1-1,3.08,3.08,0,0,1,0-2.92,2.6,2.6,0,0,1,1-1,3.24,3.24,0,0,1,3,0,2.53,2.53,0,0,1,1,1,3.08,3.08,0,0,1,0,2.92,2.74,2.74,0,0,1-1,1,2.93,2.93,0,0,1-1.48.37A3.11,3.11,0,0,1,176,146Zm2.44-.76a1.69,1.69,0,0,0,.66-.69,2.27,2.27,0,0,0,0-2,1.66,1.66,0,0,0-.66-.68,1.92,1.92,0,0,0-1-.24,2,2,0,0,0-1,.24,1.82,1.82,0,0,0-.67.68,2.13,2.13,0,0,0,0,2,1.78,1.78,0,0,0,.67.69,2,2,0,0,0,1.92,0Z"/><path class="cls-4" d="M186.34,141.33a2.4,2.4,0,0,1,.62,1.79v3.19h-1v-3.07a1.72,1.72,0,0,0-.39-1.21,1.48,1.48,0,0,0-1.11-.41,1.69,1.69,0,0,0-1.28.48,1.88,1.88,0,0,0-.47,1.36v2.85h-1v-5.54h1v.83a2,2,0,0,1,.82-.66,2.79,2.79,0,0,1,1.18-.23A2.34,2.34,0,0,1,186.34,141.33Z"/><path class="cls-4" d="M194.07,138.56v7.75h-1v-.88a2,2,0,0,1-.85.7,2.58,2.58,0,0,1-1.13.24,2.9,2.9,0,0,1-1.44-.35,2.53,2.53,0,0,1-1-1,3.2,3.2,0,0,1,0-3,2.53,2.53,0,0,1,1-1,3,3,0,0,1,1.44-.36,2.77,2.77,0,0,1,1.1.22,2.14,2.14,0,0,1,.83.66v-3h1Zm-1.9,6.69a1.65,1.65,0,0,0,.67-.69,2.27,2.27,0,0,0,0-2,1.63,1.63,0,0,0-.67-.68,2,2,0,0,0-.95-.24,2,2,0,0,0-1,.24,1.82,1.82,0,0,0-.67.68,2.18,2.18,0,0,0-.25,1,2,2,0,0,0,.25,1,1.71,1.71,0,0,0,.67.69,1.93,1.93,0,0,0,1,.25A2,2,0,0,0,192.17,145.25Z"/><path class="cls-4" d="M196.86,146a2.67,2.67,0,0,1-1-1,3.08,3.08,0,0,1,0-2.92,2.6,2.6,0,0,1,1-1,3.24,3.24,0,0,1,3,0,2.67,2.67,0,0,1,1,1,3.07,3.07,0,0,1,0,2.92,2.74,2.74,0,0,1-1,1,2.93,2.93,0,0,1-1.48.37A3.11,3.11,0,0,1,196.86,146Zm2.44-.76a1.69,1.69,0,0,0,.66-.69,2.27,2.27,0,0,0,0-2,1.66,1.66,0,0,0-.66-.68,1.92,1.92,0,0,0-1-.24,2,2,0,0,0-1,.24,1.82,1.82,0,0,0-.67.68,2.18,2.18,0,0,0-.25,1,2,2,0,0,0,.25,1,1.71,1.71,0,0,0,.67.69,1.93,1.93,0,0,0,1,.25A2,2,0,0,0,199.3,145.25Z"/><path class="cls-4" d="M207.23,141.33a2.4,2.4,0,0,1,.62,1.79v3.19h-1v-3.07a1.72,1.72,0,0,0-.39-1.21,1.44,1.44,0,0,0-1.11-.41,1.69,1.69,0,0,0-1.28.48,1.88,1.88,0,0,0-.47,1.36v2.85h-1v-5.54h1v.83a2,2,0,0,1,.82-.66,2.78,2.78,0,0,1,1.17-.23A2.3,2.3,0,0,1,207.23,141.33Z"/><path class="cls-4" d="M223,139l-2.44,7.31h-1.1l-2-5.84-2,5.84h-1.11L212,139h1l2,5.94L217,139h1l2,6,2-6Z"/><path class="cls-4" d="M226.41,139v7.31h-1v-6.4h-1.65V139Z"/><path class="cls-4" d="M228.33,146.11a2.22,2.22,0,0,1-.91-.78l.61-.71a1.77,1.77,0,0,0,1.52.87,1.2,1.2,0,0,0,.94-.38,1.69,1.69,0,0,0,.32-1.11v-4.1h-2.64V139h3.68v5a2.56,2.56,0,0,1-.58,1.82,2.29,2.29,0,0,1-1.71.61A2.53,2.53,0,0,1,228.33,146.11Z"/><path class="cls-4" d="M241.51,139v.72l-3,6.6H237.4l2.89-6.4H237v1.31h-1V139h5.52Z"/><path class="cls-4" d="M248,146.31l-1.58-2.25H244.1v2.22h-1V139H246a3.43,3.43,0,0,1,2.23.68,2.31,2.31,0,0,1,.81,1.87,2.45,2.45,0,0,1-.42,1.44,2.37,2.37,0,0,1-1.19.87l1.73,2.45H248Zm-.56-3.54a1.69,1.69,0,0,0,.05-2.39l-.05,0a2.32,2.32,0,0,0-1.51-.42H244.1v3.29h1.78a2.35,2.35,0,0,0,1.47-.43Z"/><path class="cls-4" d="M256.53,143.16a1.9,1.9,0,0,1,.37,1.17,1.68,1.68,0,0,1-.71,1.46,3.53,3.53,0,0,1-2.08.51h-3.49V139H254a3.25,3.25,0,0,1,1.94.5,1.6,1.6,0,0,1,.68,1.39,1.75,1.75,0,0,1-1,1.63A1.88,1.88,0,0,1,256.53,143.16Zm-4.87-3.32v2.34h2.14a2.16,2.16,0,0,0,1.24-.3,1.1,1.1,0,0,0,.2-1.54,1.26,1.26,0,0,0-.2-.2,2.16,2.16,0,0,0-1.24-.3Zm3.74,5.33a1,1,0,0,0,.45-.92c0-.81-.6-1.22-1.79-1.22h-2.4v2.43h2.4A2.51,2.51,0,0,0,255.4,145.17Z"/><path class="cls-4" d="M259.14,145.14a.69.69,0,0,1,.19.51.76.76,0,0,1,0,.3,3.88,3.88,0,0,1-.14.45l-.49,1.45H258l.39-1.56a.66.66,0,0,1-.32-.25.74.74,0,0,1,.08-.91.65.65,0,0,1,.95,0Z"/><path class="cls-4" d="M264.48,145.56a3.29,3.29,0,0,1-.81-2.4V139h1v4.11c0,1.57.69,2.35,2.06,2.35a2,2,0,0,0,1.54-.58,2.55,2.55,0,0,0,.53-1.77V139h1v4.16a3.31,3.31,0,0,1-.81,2.41,3.46,3.46,0,0,1-4.51,0Z"/><path class="cls-4" d="M276.48,141.33a2.4,2.4,0,0,1,.62,1.79v3.19h-1v-3.07a1.72,1.72,0,0,0-.39-1.21,1.48,1.48,0,0,0-1.11-.41,1.76,1.76,0,0,0-1.29.48,1.88,1.88,0,0,0-.47,1.36v2.85h-1v-5.54h1v.83a2,2,0,0,1,.82-.66,2.78,2.78,0,0,1,1.17-.23A2.39,2.39,0,0,1,276.48,141.33Z"/><path class="cls-4" d="M279,139.52a.66.66,0,0,1,0-.92h0a.73.73,0,0,1,.49-.19.72.72,0,0,1,.49.18.58.58,0,0,1,.19.46.59.59,0,0,1-.19.47.74.74,0,0,1-1,0Zm0,1.25h1v5.54h-1Z"/><path class="cls-4" d="M285,146a1.57,1.57,0,0,1-.54.29,2.18,2.18,0,0,1-.67.1,1.75,1.75,0,0,1-1.29-.45,1.72,1.72,0,0,1-.46-1.28v-3h-.94v-.83H282V139.6h1v1.21h1.59v.83H283v3a1,1,0,0,0,.22.69.81.81,0,0,0,.64.24,1.17,1.17,0,0,0,.78-.26Z"/><path class="cls-4" d="M291,143.87h-4.49a1.74,1.74,0,0,0,.64,1.17,2.09,2.09,0,0,0,1.36.44,2.06,2.06,0,0,0,1.6-.67l.55.65a2.39,2.39,0,0,1-.93.67,3.53,3.53,0,0,1-2.81-.13,2.6,2.6,0,0,1-1-1,2.86,2.86,0,0,1-.37-1.46,2.92,2.92,0,0,1,.36-1.45,2.6,2.6,0,0,1,1-1,2.87,2.87,0,0,1,1.43-.36,2.8,2.8,0,0,1,1.42.36,2.53,2.53,0,0,1,1,1,3.07,3.07,0,0,1,.35,1.48A1.38,1.38,0,0,0,291,143.87ZM287,142a1.77,1.77,0,0,0-.57,1.15H290a1.79,1.79,0,0,0-.57-1.14,1.68,1.68,0,0,0-1.21-.44,1.66,1.66,0,0,0-1.16.43Z"/><path class="cls-4" d="M297.62,138.56v7.75h-1v-.88a2,2,0,0,1-.85.7,2.58,2.58,0,0,1-1.13.24,2.9,2.9,0,0,1-1.44-.35,2.53,2.53,0,0,1-1-1,3.2,3.2,0,0,1,0-3,2.53,2.53,0,0,1,1-1,2.9,2.9,0,0,1,1.44-.36,2.77,2.77,0,0,1,1.1.22,2.27,2.27,0,0,1,.84.66v-3h1Zm-1.9,6.69a1.65,1.65,0,0,0,.67-.69,2.27,2.27,0,0,0,0-2,1.63,1.63,0,0,0-.67-.68,2,2,0,0,0-1.91,0,1.82,1.82,0,0,0-.67.68,2.18,2.18,0,0,0-.25,1,2,2,0,0,0,.25,1,1.71,1.71,0,0,0,.67.69,1.95,1.95,0,0,0,1.91,0Z"/><path class="cls-4" d="M304.86,143.06l-1.34,1.36v1.89h-1V139h1v4.08l4-4.08h1.19l-3.12,3.29,3.32,4h-1.22Z"/><path class="cls-4" d="M309.75,139.52a.66.66,0,0,1,0-.92h0a.73.73,0,0,1,.49-.19.72.72,0,0,1,.49.18.58.58,0,0,1,.19.46.59.59,0,0,1-.19.47.74.74,0,0,1-1,0Zm0,1.25h1v5.54h-1Z"/><path class="cls-4" d="M317.28,141.33a2.4,2.4,0,0,1,.62,1.79v3.19h-1v-3.07a1.72,1.72,0,0,0-.39-1.21,1.48,1.48,0,0,0-1.11-.41,1.76,1.76,0,0,0-1.29.48,1.88,1.88,0,0,0-.47,1.36v2.85h-1v-5.54h1v.83a2,2,0,0,1,.82-.66,2.78,2.78,0,0,1,1.17-.23A2.3,2.3,0,0,1,317.28,141.33Z"/><path class="cls-4" d="M325.09,140.77v4.78a2.91,2.91,0,0,1-.72,2.15,3,3,0,0,1-2.15.69,5.36,5.36,0,0,1-1.49-.21,3,3,0,0,1-1.15-.61l.48-.77a3,3,0,0,0,1,.53,3.59,3.59,0,0,0,1.17.19,2,2,0,0,0,1.44-.46,1.88,1.88,0,0,0,.46-1.4v-.44a2.22,2.22,0,0,1-.87.64,3.09,3.09,0,0,1-1.12.21,3,3,0,0,1-1.44-.34,2.61,2.61,0,0,1-1-.95,2.71,2.71,0,0,1-.37-1.39,2.61,2.61,0,0,1,.37-1.39,2.45,2.45,0,0,1,1-.94,3.14,3.14,0,0,1,1.44-.33,3.08,3.08,0,0,1,1.16.23,2.1,2.1,0,0,1,.88.68v-.86Zm-1.91,4.2a1.75,1.75,0,0,0,.68-.64,1.78,1.78,0,0,0,.25-.93,1.68,1.68,0,0,0-.53-1.3,1.92,1.92,0,0,0-1.37-.5,2,2,0,0,0-1.38.5,1.67,1.67,0,0,0-.53,1.3,1.69,1.69,0,0,0,.25.93,1.61,1.61,0,0,0,.68.64,2,2,0,0,0,1,.23A2.08,2.08,0,0,0,323.18,145Z"/><path class="cls-4" d="M332.22,138.56v7.75h-1v-.88a2,2,0,0,1-.85.7,2.58,2.58,0,0,1-1.13.24,2.9,2.9,0,0,1-1.44-.35,2.53,2.53,0,0,1-1-1,3.2,3.2,0,0,1,0-3,2.53,2.53,0,0,1,1-1,2.9,2.9,0,0,1,1.44-.36,2.77,2.77,0,0,1,1.1.22,2.27,2.27,0,0,1,.84.66v-3h1Zm-1.9,6.69a1.65,1.65,0,0,0,.67-.69,2.27,2.27,0,0,0,0-2,1.63,1.63,0,0,0-.67-.68,2,2,0,0,0-1.91,0,1.82,1.82,0,0,0-.67.68,2.18,2.18,0,0,0-.25,1,2,2,0,0,0,.25,1,1.71,1.71,0,0,0,.67.69,1.95,1.95,0,0,0,1.91,0Z"/><path class="cls-4" d="M335,146a2.67,2.67,0,0,1-1-1,3.08,3.08,0,0,1,0-2.92,2.6,2.6,0,0,1,1-1,3.24,3.24,0,0,1,3,0,2.53,2.53,0,0,1,1,1,3.07,3.07,0,0,1,0,2.92,2.74,2.74,0,0,1-1,1,3.13,3.13,0,0,1-3,0Zm2.44-.76a1.69,1.69,0,0,0,.66-.69,2.27,2.27,0,0,0,0-2,1.66,1.66,0,0,0-.66-.68,1.92,1.92,0,0,0-1-.24,2,2,0,0,0-1,.24,1.82,1.82,0,0,0-.67.68,2.18,2.18,0,0,0-.25,1,2,2,0,0,0,.25,1,1.71,1.71,0,0,0,.67.69,2,2,0,0,0,1.92,0Z"/><path class="cls-4" d="M349.33,141.33a2.42,2.42,0,0,1,.61,1.8v3.19h-1v-3.07a1.75,1.75,0,0,0-.37-1.21,1.39,1.39,0,0,0-1.06-.41,1.57,1.57,0,0,0-1.21.48,1.93,1.93,0,0,0-.45,1.36v2.85h-1v-3.07a1.75,1.75,0,0,0-.37-1.21,1.39,1.39,0,0,0-1.06-.41,1.57,1.57,0,0,0-1.21.48,1.93,1.93,0,0,0-.45,1.36v2.85h-1v-5.54h1v.83a1.93,1.93,0,0,1,.79-.65,2.7,2.7,0,0,1,1.12-.22,2.55,2.55,0,0,1,1.15.26,1.77,1.77,0,0,1,.77.76,2.25,2.25,0,0,1,.87-.75,2.86,2.86,0,0,1,1.26-.27A2.13,2.13,0,0,1,349.33,141.33Z"/><path class="cls-4" d="M25.54,161.58H21.05a1.74,1.74,0,0,0,.64,1.17,2.09,2.09,0,0,0,1.36.44,2.06,2.06,0,0,0,1.6-.67l.55.65a2.32,2.32,0,0,1-.94.67,3.52,3.52,0,0,1-2.81-.12,2.53,2.53,0,0,1-1.05-1,2.86,2.86,0,0,1-.37-1.46,2.92,2.92,0,0,1,.36-1.45,2.6,2.6,0,0,1,1-1,2.87,2.87,0,0,1,1.43-.36,2.8,2.8,0,0,1,1.42.36,2.53,2.53,0,0,1,1,1,3.07,3.07,0,0,1,.35,1.48A2.5,2.5,0,0,1,25.54,161.58Zm-3.93-1.86a1.77,1.77,0,0,0-.57,1.15h3.55a1.79,1.79,0,0,0-.57-1.14,1.89,1.89,0,0,0-2.41,0Z"/><path class="cls-4" d="M31.74,158.48l-2.68,6.09a2.83,2.83,0,0,1-.83,1.19,1.91,1.91,0,0,1-1.14.34,2.34,2.34,0,0,1-.79-.13,1.69,1.69,0,0,1-.63-.38l.43-.75a1.45,1.45,0,0,0,1,.41,1,1,0,0,0,.61-.19,1.63,1.63,0,0,0,.44-.66l.18-.39-2.44-5.52h1l1.93,4.43,1.91-4.43Z"/><path class="cls-4" d="M37.5,161.58H33a1.68,1.68,0,0,0,.64,1.14,2.09,2.09,0,0,0,1.36.44,2.06,2.06,0,0,0,1.6-.67l.55.65a2.32,2.32,0,0,1-.94.67,3.53,3.53,0,0,1-2.81-.13,2.53,2.53,0,0,1-1-1,2.86,2.86,0,0,1-.37-1.46,2.92,2.92,0,0,1,.36-1.45,2.6,2.6,0,0,1,1-1,2.87,2.87,0,0,1,1.43-.36,2.8,2.8,0,0,1,1.42.36,2.53,2.53,0,0,1,1,1,3.07,3.07,0,0,1,.35,1.48A.74.74,0,0,1,37.5,161.58Zm-3.92-1.86a1.77,1.77,0,0,0-.57,1.15h3.55a1.77,1.77,0,0,0-.61-1.15,1.89,1.89,0,0,0-2.41,0Z"/><path class="cls-4" d="M39.8,163.72a2.67,2.67,0,0,1-1-1,3.08,3.08,0,0,1,0-2.92,2.6,2.6,0,0,1,1-1,3.24,3.24,0,0,1,3,0,2.53,2.53,0,0,1,1,1,3.08,3.08,0,0,1,0,2.92,2.74,2.74,0,0,1-1,1,2.93,2.93,0,0,1-1.48.37A3.11,3.11,0,0,1,39.8,163.72Zm2.44-.76a1.69,1.69,0,0,0,.66-.69,2.27,2.27,0,0,0,0-2,1.66,1.66,0,0,0-.66-.68,1.92,1.92,0,0,0-1-.24,2,2,0,0,0-1,.24,1.82,1.82,0,0,0-.67.68,2.13,2.13,0,0,0,0,2,1.78,1.78,0,0,0,.67.69,1.93,1.93,0,0,0,1,.25,1.85,1.85,0,0,0,1-.26Z"/><path class="cls-4" d="M50,158.78a2.67,2.67,0,0,1,1,1,2.91,2.91,0,0,1,.36,1.47,3,3,0,0,1-.36,1.47,2.53,2.53,0,0,1-1,1,2.9,2.9,0,0,1-1.44.35,2.54,2.54,0,0,1-1.09-.23,2.19,2.19,0,0,1-.84-.67V166h-1v-7.56h1v.88a2.05,2.05,0,0,1,.85-.69,2.73,2.73,0,0,1,1.13-.24A3.06,3.06,0,0,1,50,158.78ZM49.38,163a1.78,1.78,0,0,0,.67-.69,2.2,2.2,0,0,0,0-2,1.82,1.82,0,0,0-.67-.68,1.92,1.92,0,0,0-1-.24,1.84,1.84,0,0,0-1.62.93,2.06,2.06,0,0,0-.25,1,2.17,2.17,0,0,0,.24,1,1.65,1.65,0,0,0,.67.69,1.93,1.93,0,0,0,1,.25,1.79,1.79,0,0,0,.93-.26Z"/><path class="cls-4" d="M55.78,163.72a1.57,1.57,0,0,1-.54.29,2.18,2.18,0,0,1-.67.1,1.75,1.75,0,0,1-1.29-.45,1.72,1.72,0,0,1-.46-1.28v-3h-.94v-.83h.94v-1.21h1v1.21h1.59v.83H53.82v3a1,1,0,0,0,.22.69.81.81,0,0,0,.64.24,1.17,1.17,0,0,0,.78-.26Z"/><path class="cls-4" d="M57,157.22a.66.66,0,0,1,0-.92h0a.65.65,0,0,1,.49-.19.68.68,0,0,1,.49.18.58.58,0,0,1,.19.46.59.59,0,0,1-.19.47.74.74,0,0,1-1,0Zm0,1.26h1V164H57Z"/><path class="cls-4" d="M60.81,163.72a2.67,2.67,0,0,1-1-1,3,3,0,0,1,0-2.92,2.67,2.67,0,0,1,1-1,3,3,0,0,1,1.51-.36,3,3,0,0,1,1.34.3,2.09,2.09,0,0,1,.91.88l-.76.49a1.78,1.78,0,0,0-.65-.6,2,2,0,0,0-.86-.2,2,2,0,0,0-1,.24,1.71,1.71,0,0,0-.68.68,2.18,2.18,0,0,0-.25,1,2,2,0,0,0,.25,1,1.71,1.71,0,0,0,.68.68,2,2,0,0,0,1,.24,2,2,0,0,0,.86-.2,1.71,1.71,0,0,0,.65-.6l.76.48a2.2,2.2,0,0,1-.91.88,3.31,3.31,0,0,1-2.85,0Z"/><path class="cls-4" d="M66.15,163.89a2.85,2.85,0,0,1-1-.46l.42-.79a2.91,2.91,0,0,0,.89.42,3.37,3.37,0,0,0,1,.16q1.32,0,1.32-.75a.49.49,0,0,0-.18-.4,1.19,1.19,0,0,0-.44-.21c-.18,0-.43-.1-.76-.15a6.85,6.85,0,0,1-1.09-.24,1.75,1.75,0,0,1-.73-.46,1.3,1.3,0,0,1-.3-.91,1.43,1.43,0,0,1,.63-1.21,2.8,2.8,0,0,1,1.68-.46,4.63,4.63,0,0,1,1.11.14,3,3,0,0,1,.91.37l-.44.78a2.93,2.93,0,0,0-1.6-.44,1.83,1.83,0,0,0-1,.21.63.63,0,0,0-.33.55.51.51,0,0,0,.19.43,1.26,1.26,0,0,0,.52.25c.18.05.44.1.78.17a7.71,7.71,0,0,1,1.08.25,1.81,1.81,0,0,1,.71.44,1.28,1.28,0,0,1,.29.88,1.39,1.39,0,0,1-.64,1.2,3,3,0,0,1-1.75.44A4.56,4.56,0,0,1,66.15,163.89Z"/><path class="cls-4" d="M78.1,157.21a4.35,4.35,0,0,1,1.73,1.62,4.63,4.63,0,0,1,.62,2.38,3.86,3.86,0,0,1-.49,2.1,1.54,1.54,0,0,1-1.37.76,1.3,1.3,0,0,1-.83-.26,1.14,1.14,0,0,1-.42-.74,2.09,2.09,0,0,1-.82.74,2.75,2.75,0,0,1-2.48-.08,2.44,2.44,0,0,1-.91-1,2.87,2.87,0,0,1-.33-1.38,2.83,2.83,0,0,1,.33-1.37,2.44,2.44,0,0,1,.91-1,2.55,2.55,0,0,1,1.32-.34,2.61,2.61,0,0,1,1.1.22,2,2,0,0,1,.81.66v-.8h.91v3.76a.79.79,0,0,0,.17.57.55.55,0,0,0,.43.18.8.8,0,0,0,.72-.54,3.75,3.75,0,0,0,.26-1.52,3.91,3.91,0,0,0-.52-2,3.59,3.59,0,0,0-1.47-1.37,5,5,0,0,0-4.35,0A3.61,3.61,0,0,0,72,159.25a4.54,4.54,0,0,0,0,4.21,3.78,3.78,0,0,0,1.45,1.44,4.29,4.29,0,0,0,2.16.52,4.21,4.21,0,0,0,1-.12,3.94,3.94,0,0,0,1-.34l.23.67a4.52,4.52,0,0,1-1.07.37,5.83,5.83,0,0,1-1.18.12,5.13,5.13,0,0,1-2.54-.61,4.29,4.29,0,0,1-1.73-1.7,5.13,5.13,0,0,1,0-4.89A4.33,4.33,0,0,1,73,157.24a5.74,5.74,0,0,1,5.08,0ZM76.41,163a1.67,1.67,0,0,0,.64-.65,2.29,2.29,0,0,0,0-2,1.67,1.67,0,0,0-.64-.65,1.8,1.8,0,0,0-.91-.22,1.7,1.7,0,0,0-1.28.51,1.83,1.83,0,0,0-.49,1.35,1.9,1.9,0,0,0,.5,1.36,1.71,1.71,0,0,0,1.28.51,1.78,1.78,0,0,0,.9-.21Z"/><path class="cls-4" d="M87.2,158.48v4.78a2.91,2.91,0,0,1-.72,2.15,3,3,0,0,1-2.15.69,5.36,5.36,0,0,1-1.49-.21,3,3,0,0,1-1.15-.61l.48-.77a3,3,0,0,0,1,.53,3.64,3.64,0,0,0,1.18.19,2,2,0,0,0,1.44-.46,1.88,1.88,0,0,0,.46-1.4v-.44a2.22,2.22,0,0,1-.87.64,3.09,3.09,0,0,1-1.12.21,3,3,0,0,1-1.44-.34,2.61,2.61,0,0,1-1-.95,2.81,2.81,0,0,1,0-2.78,2.45,2.45,0,0,1,1-.94,3.14,3.14,0,0,1,1.44-.33,3.08,3.08,0,0,1,1.16.23,2.1,2.1,0,0,1,.88.68v-.86Zm-1.91,4.24a1.68,1.68,0,0,0,.68-.64,1.78,1.78,0,0,0,.25-.93,1.68,1.68,0,0,0-.53-1.3,1.92,1.92,0,0,0-1.37-.5,2,2,0,0,0-1.38.5,1.86,1.86,0,0,0-.28,2.23,1.61,1.61,0,0,0,.68.64,2,2,0,0,0,1,.23A2.08,2.08,0,0,0,85.29,162.72Z"/><path class="cls-4" d="M97.69,159a2.42,2.42,0,0,1,.61,1.8V164h-1V161a1.7,1.7,0,0,0-.35-1.23,1.39,1.39,0,0,0-1.06-.41,1.57,1.57,0,0,0-1.21.48,1.93,1.93,0,0,0-.45,1.36V164h-1v-3.07a1.75,1.75,0,0,0-.37-1.21,1.39,1.39,0,0,0-1.06-.41,1.57,1.57,0,0,0-1.21.48,1.93,1.93,0,0,0-.45,1.36V164h-1v-5.54h1v.83a1.93,1.93,0,0,1,.79-.65,2.7,2.7,0,0,1,1.12-.22,2.55,2.55,0,0,1,1.15.26,1.77,1.77,0,0,1,.77.76,2.25,2.25,0,0,1,.87-.75,2.86,2.86,0,0,1,1.26-.27A2.19,2.19,0,0,1,97.69,159Z"/><path class="cls-4" d="M104,159a2.19,2.19,0,0,1,.61,1.68V164h-1v-.73a1.54,1.54,0,0,1-.72.59,2.75,2.75,0,0,1-1.1.2,2.29,2.29,0,0,1-1.49-.45,1.54,1.54,0,0,1-.18-2.17l.18-.18a2.6,2.6,0,0,1,1.69-.44h1.59v-.2a1.25,1.25,0,0,0-.38-1,1.58,1.58,0,0,0-1.11-.34,2.83,2.83,0,0,0-1,.16,2.34,2.34,0,0,0-.79.43l-.42-.75a3,3,0,0,1,1-.53,4.46,4.46,0,0,1,1.26-.18A2.51,2.51,0,0,1,104,159Zm-1,4.06a1.5,1.5,0,0,0,.61-.73v-.77H102c-.85,0-1.27.29-1.27.86a.78.78,0,0,0,.32.66,1.51,1.51,0,0,0,.9.24A1.85,1.85,0,0,0,103,163.05Z"/><path class="cls-4" d="M106.41,157.22a.66.66,0,0,1,0-.92h0a.65.65,0,0,1,.49-.19.68.68,0,0,1,.49.18.58.58,0,0,1,.19.46.59.59,0,0,1-.19.47.74.74,0,0,1-1,0Zm0,1.26h1V164h-1Z"/><path class="cls-4" d="M109.31,156.26h1V164h-1Z"/><path class="cls-4" d="M112,163.87a.74.74,0,0,1,0-1,.72.72,0,0,1,1,0,.7.7,0,0,1,.2.51.77.77,0,0,1-.2.52.7.7,0,0,1-1,0Z"/><path class="cls-4" d="M115.37,163.72a2.67,2.67,0,0,1-1-1,3,3,0,0,1,0-2.92,2.67,2.67,0,0,1,1-1,3,3,0,0,1,1.51-.36,3,3,0,0,1,1.34.3,2.09,2.09,0,0,1,.91.88l-.76.49a1.78,1.78,0,0,0-.65-.6,2,2,0,0,0-.86-.2,2,2,0,0,0-1,.24,1.71,1.71,0,0,0-.68.68,2.18,2.18,0,0,0-.25,1,2,2,0,0,0,.25,1,1.71,1.71,0,0,0,.68.68,2,2,0,0,0,1,.24,2,2,0,0,0,.86-.2,1.71,1.71,0,0,0,.65-.6l.76.48a2.2,2.2,0,0,1-.91.88,3.31,3.31,0,0,1-2.85,0Z"/><path class="cls-4" d="M121.23,163.72a2.67,2.67,0,0,1-1-1,3.08,3.08,0,0,1,0-2.92,2.6,2.6,0,0,1,1-1,3.24,3.24,0,0,1,3,0,2.53,2.53,0,0,1,1,1,3.08,3.08,0,0,1,0,2.92,2.74,2.74,0,0,1-1,1,2.93,2.93,0,0,1-1.48.37A3.11,3.11,0,0,1,121.23,163.72Zm2.44-.76a1.69,1.69,0,0,0,.66-.69,2.27,2.27,0,0,0,0-2,1.66,1.66,0,0,0-.66-.68,1.92,1.92,0,0,0-1-.24,2,2,0,0,0-1,.24,1.82,1.82,0,0,0-.67.68,2.13,2.13,0,0,0,0,2,1.78,1.78,0,0,0,.67.69,1.93,1.93,0,0,0,1,.25,1.85,1.85,0,0,0,1-.26Z"/><path class="cls-4" d="M135.56,159a2.42,2.42,0,0,1,.61,1.8V164h-1V161a1.75,1.75,0,0,0-.37-1.21,1.39,1.39,0,0,0-1.06-.41,1.57,1.57,0,0,0-1.21.48,1.93,1.93,0,0,0-.45,1.36V164h-1V161a1.75,1.75,0,0,0-.37-1.21,1.39,1.39,0,0,0-1.06-.41,1.57,1.57,0,0,0-1.21.48,1.93,1.93,0,0,0-.45,1.36V164h-1v-5.54h1v.83a1.93,1.93,0,0,1,.79-.65,2.7,2.7,0,0,1,1.12-.22,2.55,2.55,0,0,1,1.15.26,1.77,1.77,0,0,1,.77.76,2.25,2.25,0,0,1,.87-.75,2.86,2.86,0,0,1,1.26-.27A2.24,2.24,0,0,1,135.56,159Z"/><path class="cls-4" d="M29.31,176.18l-2.07,5.54h-1l-1.6-4.2-1.58,4.2h-1L20,176.18H21l1.61,4.41,1.67-4.41h.85l1.64,4.43,1.65-4.43Z"/><path class="cls-4" d="M38.61,176.18l-2.07,5.54h-1L34,177.52l-1.59,4.2h-1l-2.06-5.54h.95l1.7,4.41,1.67-4.41h.85l1.64,4.43,1.65-4.43Z"/><path class="cls-4" d="M48,176.18l-2.1,5.54h-1l-1.6-4.2-1.58,4.2h-1l-2.06-5.54h1l1.61,4.41,1.67-4.41h.85l1.64,4.43L47,176.18Z"/><path class="cls-4" d="M48.33,181.58a.74.74,0,0,1,0-1,.72.72,0,0,1,1,0,.7.7,0,0,1,.2.51.77.77,0,0,1-.2.52.66.66,0,0,1-.49.2A.68.68,0,0,1,48.33,181.58Z"/><path class="cls-4" d="M55.81,179.29H51.32a1.74,1.74,0,0,0,.64,1.17,2.09,2.09,0,0,0,1.36.44,2.06,2.06,0,0,0,1.6-.67l.55.65a2.32,2.32,0,0,1-.94.67,3.53,3.53,0,0,1-2.81-.13,2.53,2.53,0,0,1-1-1A2.86,2.86,0,0,1,50.3,179a2.92,2.92,0,0,1,.36-1.45,2.6,2.6,0,0,1,1-1,2.87,2.87,0,0,1,1.43-.36,2.8,2.8,0,0,1,1.42.36,2.53,2.53,0,0,1,1,1,3.07,3.07,0,0,1,.35,1.48A1,1,0,0,1,55.81,179.29Zm-3.92-1.87a1.77,1.77,0,0,0-.57,1.15h3.55A1.73,1.73,0,0,0,53.09,177a1.71,1.71,0,0,0-1.2.43Z"/><path class="cls-4" d="M62,176.18l-2.68,6.09a2.83,2.83,0,0,1-.83,1.19,1.91,1.91,0,0,1-1.14.34,2.34,2.34,0,0,1-.79-.13,1.69,1.69,0,0,1-.63-.38l.43-.75a1.45,1.45,0,0,0,1,.41.93.93,0,0,0,.57-.23,1.63,1.63,0,0,0,.44-.66l.18-.39-2.44-5.52h1l1.93,4.43L61,176.15Z"/><path class="cls-4" d="M67.78,179.29H63.29a1.74,1.74,0,0,0,.64,1.17,2.09,2.09,0,0,0,1.36.44,2.06,2.06,0,0,0,1.6-.67l.55.65a2.32,2.32,0,0,1-.94.67,3.53,3.53,0,0,1-2.81-.13,2.53,2.53,0,0,1-1-1,2.86,2.86,0,0,1-.37-1.46,2.92,2.92,0,0,1,.36-1.45,2.6,2.6,0,0,1,1-1,2.87,2.87,0,0,1,1.43-.36,2.8,2.8,0,0,1,1.42.36,2.53,2.53,0,0,1,1,1,3.07,3.07,0,0,1,.35,1.48A1,1,0,0,1,67.78,179.29Zm-3.92-1.87a1.77,1.77,0,0,0-.57,1.15h3.55A1.73,1.73,0,0,0,65.06,177a1.66,1.66,0,0,0-1.2.43Z"/><path class="cls-4" d="M70.08,181.42a2.67,2.67,0,0,1-1-1,3.08,3.08,0,0,1,0-2.92,2.6,2.6,0,0,1,1-1,3.24,3.24,0,0,1,3,0,2.53,2.53,0,0,1,1,1,3.08,3.08,0,0,1,0,2.92,2.74,2.74,0,0,1-1,1,2.93,2.93,0,0,1-1.48.37A3.11,3.11,0,0,1,70.08,181.42Zm2.44-.76a1.69,1.69,0,0,0,.66-.69,2.27,2.27,0,0,0,0-2,1.66,1.66,0,0,0-.66-.68,1.92,1.92,0,0,0-1-.24,2,2,0,0,0-1,.24,1.82,1.82,0,0,0-.67.68,2.13,2.13,0,0,0,0,2,1.78,1.78,0,0,0,.67.69,2,2,0,0,0,1.92,0Z"/><path class="cls-4" d="M80.2,176.49a2.67,2.67,0,0,1,1,1,3.2,3.2,0,0,1,0,2.95,2.53,2.53,0,0,1-1,1,2.9,2.9,0,0,1-1.44.35,2.54,2.54,0,0,1-1.09-.23,2.19,2.19,0,0,1-.84-.67v2.83h-1v-7.56h1V177a2.05,2.05,0,0,1,.85-.69,2.73,2.73,0,0,1,1.13-.24A2.93,2.93,0,0,1,80.2,176.49Zm-.57,4.17a1.78,1.78,0,0,0,.67-.69,2.2,2.2,0,0,0,0-2,1.82,1.82,0,0,0-.67-.68,1.92,1.92,0,0,0-1-.24A1.84,1.84,0,0,0,77,178a2.06,2.06,0,0,0-.25,1,2.17,2.17,0,0,0,.24,1,1.65,1.65,0,0,0,.67.69,2,2,0,0,0,1,.25A2.11,2.11,0,0,0,79.63,180.66Z"/><path class="cls-4" d="M86.06,181.39a1.57,1.57,0,0,1-.54.29,2.18,2.18,0,0,1-.67.1,1.75,1.75,0,0,1-1.29-.45,1.72,1.72,0,0,1-.46-1.28v-3h-1v-.83H83V175h1v1.21h1.59v.83H84.09v3a1,1,0,0,0,.22.69A.81.81,0,0,0,85,181a1.17,1.17,0,0,0,.78-.26Z"/><path class="cls-4" d="M87.29,174.93a.66.66,0,0,1,0-.92h0a.65.65,0,0,1,.49-.19.68.68,0,0,1,.49.18.58.58,0,0,1,.19.46.59.59,0,0,1-.19.47.73.73,0,0,1-1,0Zm0,1.25h1v5.54h-1Z"/><path class="cls-4" d="M91.09,181.42a2.67,2.67,0,0,1-1-1,3,3,0,0,1,0-2.92,2.67,2.67,0,0,1,1-1,3,3,0,0,1,1.51-.36,3,3,0,0,1,1.34.3,2.09,2.09,0,0,1,.91.88l-.76.49a1.78,1.78,0,0,0-.65-.6,2,2,0,0,0-.86-.2,2,2,0,0,0-1,.24,1.71,1.71,0,0,0-.68.68,2.18,2.18,0,0,0-.25,1,2,2,0,0,0,.25,1,1.71,1.71,0,0,0,.68.68,2,2,0,0,0,1,.24,2,2,0,0,0,.86-.2,1.71,1.71,0,0,0,.65-.6l.76.48a2.2,2.2,0,0,1-.91.88,3.47,3.47,0,0,1-2.85,0Z"/><path class="cls-4" d="M96.43,181.6a2.85,2.85,0,0,1-1-.46l.42-.79a2.91,2.91,0,0,0,.89.42,3.37,3.37,0,0,0,1,.16q1.32,0,1.32-.75a.49.49,0,0,0-.18-.4,1.19,1.19,0,0,0-.44-.21c-.18,0-.43-.1-.76-.15a6.85,6.85,0,0,1-1.09-.24,1.64,1.64,0,0,1-.64-.46,1.3,1.3,0,0,1-.3-.91,1.43,1.43,0,0,1,.63-1.21,2.8,2.8,0,0,1,1.68-.46,4.63,4.63,0,0,1,1.11.14,3,3,0,0,1,.91.37l-.43.79A2.93,2.93,0,0,0,98,177a1.83,1.83,0,0,0-1,.21.63.63,0,0,0-.33.55.51.51,0,0,0,.19.43,1.33,1.33,0,0,0,.46.23c.18.05.44.1.78.17a7.71,7.71,0,0,1,1.08.25,1.81,1.81,0,0,1,.71.44,1.28,1.28,0,0,1,.29.88,1.39,1.39,0,0,1-.64,1.2,3,3,0,0,1-1.75.44A5.33,5.33,0,0,1,96.43,181.6Z"/><path class="cls-4" d="M101.12,181.58a.74.74,0,0,1,0-1,.72.72,0,0,1,1,0,.7.7,0,0,1,.2.51.77.77,0,0,1-.2.52.66.66,0,0,1-.49.2A.71.71,0,0,1,101.12,181.58Z"/><path class="cls-4" d="M104.53,181.42a2.67,2.67,0,0,1-1-1,3,3,0,0,1,0-2.92,2.67,2.67,0,0,1,1-1,3,3,0,0,1,1.51-.36,3,3,0,0,1,1.34.3,2.09,2.09,0,0,1,.91.88l-.76.49a1.78,1.78,0,0,0-.65-.6,2,2,0,0,0-.86-.2,2,2,0,0,0-1,.24,1.71,1.71,0,0,0-.68.68,2.18,2.18,0,0,0-.25,1,2,2,0,0,0,.25,1,1.71,1.71,0,0,0,.68.68,2,2,0,0,0,1,.24,2,2,0,0,0,.86-.2,1.71,1.71,0,0,0,.65-.6l.76.48a2.2,2.2,0,0,1-.91.88,3.47,3.47,0,0,1-2.85,0Z"/><path class="cls-4" d="M110.39,181.42a2.67,2.67,0,0,1-1-1,3.08,3.08,0,0,1,0-2.92,2.6,2.6,0,0,1,1-1,3.24,3.24,0,0,1,3,0,2.53,2.53,0,0,1,1,1,3.08,3.08,0,0,1,0,2.92,2.74,2.74,0,0,1-1,1,2.93,2.93,0,0,1-1.48.37A3.11,3.11,0,0,1,110.39,181.42Zm2.44-.76a1.69,1.69,0,0,0,.66-.69,2.27,2.27,0,0,0,0-2,1.66,1.66,0,0,0-.66-.68,1.92,1.92,0,0,0-1-.24,2,2,0,0,0-1,.24,1.82,1.82,0,0,0-.67.68,2.12,2.12,0,0,0,0,2,1.78,1.78,0,0,0,.67.69,2,2,0,0,0,1.92,0Z"/><path class="cls-4" d="M124.72,176.72a2.42,2.42,0,0,1,.61,1.8v3.2h-1v-3.07a1.75,1.75,0,0,0-.37-1.21,1.39,1.39,0,0,0-1.06-.41,1.57,1.57,0,0,0-1.21.48,1.93,1.93,0,0,0-.45,1.36v2.85h-1v-3.07a1.75,1.75,0,0,0-.37-1.21,1.39,1.39,0,0,0-1.06-.41,1.57,1.57,0,0,0-1.21.48,1.93,1.93,0,0,0-.45,1.36v2.85h-1v-5.54h1V177a1.93,1.93,0,0,1,.79-.65,2.7,2.7,0,0,1,1.12-.22,2.55,2.55,0,0,1,1.15.26,1.77,1.77,0,0,1,.77.76,2.25,2.25,0,0,1,.87-.75,2.86,2.86,0,0,1,1.26-.27A2.23,2.23,0,0,1,124.72,176.72Z"/><path class="cls-4" d="M64.65,55.7a5.61,5.61,0,0,0-5.25,0,4.79,4.79,0,0,0-1.8,1.8,5.17,5.17,0,0,0,0,5.08,4.65,4.65,0,0,0,1.83,1.77,5.53,5.53,0,0,0,5.22,0,4.66,4.66,0,0,0,1.85-1.78,5.23,5.23,0,0,0,0-5.06A4.78,4.78,0,0,0,64.65,55.7Zm1,4.32a3.78,3.78,0,0,1-.47,1.83,3.39,3.39,0,0,1-1.27,1.28,3.77,3.77,0,0,1-1.82.47,3.62,3.62,0,0,1-1.83-.47,3.24,3.24,0,0,1-1.29-1.28,3.76,3.76,0,0,1,0-3.65,3.24,3.24,0,0,1,1.29-1.28,3.81,3.81,0,0,1,3.65,0A3.5,3.5,0,0,1,65.61,60Z"/><path class="cls-4" d="M72.79,55.06H69V65h1.51V62H72.8a4.39,4.39,0,0,0,3-.93,3.58,3.58,0,0,0,.06-5.06L75.76,56A4.43,4.43,0,0,0,72.79,55.06Zm-2.25,1.41h2.19a2.82,2.82,0,0,1,1.89.54,2.17,2.17,0,0,1,0,3.08h0a2.88,2.88,0,0,1-1.89.55H70.55Z"/><polygon class="cls-4" points="77.25 56.46 80.49 56.46 80.49 64.99 82.01 64.99 82.01 56.46 85.24 56.46 85.24 55.06 77.25 55.06 77.25 56.46"/><rect class="cls-4" x="86.53" y="55.06" width="1.54" height="9.93"/><path class="cls-4" d="M93.23,56.92a3.64,3.64,0,0,1,1.85-.47,3.4,3.4,0,0,1,2.58,1.1l.07.07,1-1-.06-.07a4.32,4.32,0,0,0-1.6-1.13,5.65,5.65,0,0,0-4.67.27,4.63,4.63,0,0,0-1.83,1.79,5.24,5.24,0,0,0,0,5.09,4.62,4.62,0,0,0,1.82,1.77A5.32,5.32,0,0,0,95,65a5.24,5.24,0,0,0,2.06-.39,4.31,4.31,0,0,0,1.62-1.11l.06-.07-1-1-.07.07a3.45,3.45,0,0,1-2.58,1.11,3.88,3.88,0,0,1-1.85-.47,3.4,3.4,0,0,1-1.3-1.28,3.66,3.66,0,0,1-.46-1.83,3.62,3.62,0,0,1,.46-1.82A3.41,3.41,0,0,1,93.23,56.92Z"/><path class="cls-4" d="M106.51,60.69a2.88,2.88,0,0,0-1.14-.81,13.27,13.27,0,0,0-1.73-.53c-.52-.12-1-.24-1.28-.35a2.41,2.41,0,0,1-.75-.46.9.9,0,0,1-.29-.75,1.16,1.16,0,0,1,.53-1,2.85,2.85,0,0,1,1.66-.4,5.08,5.08,0,0,1,1.29.18,5.65,5.65,0,0,1,1.25.57l.09.06.52-1.26-.06,0a4.8,4.8,0,0,0-1.42-.65,6.76,6.76,0,0,0-1.67-.21,4.81,4.81,0,0,0-2.05.37,2.91,2.91,0,0,0-1.25,1,2.67,2.67,0,0,0-.41,1.43,2.28,2.28,0,0,0,.49,1.5,2.91,2.91,0,0,0,1.15.81,13.41,13.41,0,0,0,1.74.53c.43.1.87.22,1.29.36a2.21,2.21,0,0,1,.75.45,1,1,0,0,1,.29.75,1.14,1.14,0,0,1-.54,1,3,3,0,0,1-1.7.39,5,5,0,0,1-1.7-.3,4,4,0,0,1-1.35-.74l-.1-.09-.62,1.22,0,.05a4.53,4.53,0,0,0,1.59.88,6.35,6.35,0,0,0,2,.33,5.17,5.17,0,0,0,2.13-.36,3,3,0,0,0,1.27-1,2.48,2.48,0,0,0,.41-1.42A2.22,2.22,0,0,0,106.51,60.69Z"/><path class="cls-3" d="M27.73,55.72a5.41,5.41,0,0,0-2.61-.66,5.33,5.33,0,0,0-2.62.65,4.7,4.7,0,0,0-1.83,1.79,5.13,5.13,0,0,0,0,5.07,4.67,4.67,0,0,0,1.83,1.78,5.59,5.59,0,0,0,5.23,0,4.7,4.7,0,0,0,1.08-.81l.06-.07-1.06-1-.07.07a3.31,3.31,0,0,1-.8.64,3.62,3.62,0,0,1-1.82.46,3.66,3.66,0,0,1-1.83-.46A3.37,3.37,0,0,1,22,61.86a3.63,3.63,0,0,1-.41-1.14h8.57V60a4.83,4.83,0,0,0-.65-2.55A4.59,4.59,0,0,0,27.73,55.72ZM21.6,59.35a3.3,3.3,0,0,1,.4-1.14,3.27,3.27,0,0,1,1.29-1.29,3.66,3.66,0,0,1,1.83-.46,3.62,3.62,0,0,1,1.82.46,3.45,3.45,0,0,1,1.31,1.29,3.54,3.54,0,0,1,.41,1.14Z"/><polygon class="cls-3" points="37.74 55.06 34.77 60.11 31.8 55.06 30.15 55.06 33.97 61.53 33.97 65 35.49 65 35.49 61.56 39.3 55.06 37.74 55.06"/><path class="cls-3" d="M48.79,57.5A4.57,4.57,0,0,0,47,55.72a5.55,5.55,0,0,0-5.23,0,4.64,4.64,0,0,0-1.86,1.79,5.12,5.12,0,0,0,0,5.08,4.72,4.72,0,0,0,1.84,1.76,5.36,5.36,0,0,0,2.63.64A5.22,5.22,0,0,0,47,64.34a4.46,4.46,0,0,0,1-.84l.07-.07-1.06-1-.07.07a3.31,3.31,0,0,1-.8.64,3.83,3.83,0,0,1-3.66,0,3.31,3.31,0,0,1-1.29-1.28,3.52,3.52,0,0,1-.4-1.14H49.4V60.6q0-.3,0-.6A4.76,4.76,0,0,0,48.79,57.5Zm-7.95,1.85a3.75,3.75,0,0,1,.39-1.14,3.42,3.42,0,0,1,1.27-1.29,3.7,3.7,0,0,1,1.84-.46,3.59,3.59,0,0,1,1.81.46,3.45,3.45,0,0,1,1.28,1.29,3.52,3.52,0,0,1,.4,1.14Z"/><path class="cls-4" d="M94.94,33.51a14.61,14.61,0,0,0-29.13,0H61.2a14.61,14.61,0,0,0-29.14,0H20v2.25H32.06a14.61,14.61,0,0,0,24.75,9.33L55.25,43.5a12.37,12.37,0,0,1-20.94-7.74h31.5a14.61,14.61,0,0,0,29.13,0H107V33.51Zm-60.63,0a12.37,12.37,0,0,1,24.63,0ZM80.38,47A12.35,12.35,0,0,1,68.06,35.76H92.7A12.37,12.37,0,0,1,80.38,47ZM68.06,33.51a12.37,12.37,0,0,1,24.63,0Z"/></svg>