<svg id="Слой_1" data-name="Слой 1" xmlns="http://www.w3.org/2000/svg" width="25" height="25" viewBox="0 0 25 25"><defs><style>.cls-1{fill:#f8f8f8;}</style></defs><path class="cls-1" d="M17.74,2.2A5.07,5.07,0,0,1,22.8,7.26V17.74a5.07,5.07,0,0,1-5.06,5.06H7.26A5.07,5.07,0,0,1,2.2,17.74V7.26A5.07,5.07,0,0,1,7.26,2.2H17.74m0-2.2H7.26A7.26,7.26,0,0,0,0,7.26V17.74A7.26,7.26,0,0,0,7.26,25H17.74A7.26,7.26,0,0,0,25,17.74V7.26A7.26,7.26,0,0,0,17.74,0Z"/><path class="cls-1" d="M12.5,8.28A4.22,4.22,0,1,1,8.28,12.5,4.22,4.22,0,0,1,12.5,8.28m0-2.2a6.42,6.42,0,1,0,6.42,6.42A6.41,6.41,0,0,0,12.5,6.08Z"/><circle class="cls-1" cx="19.17" cy="5.83" r="1.5"/></svg>