<svg id="Слой_1" data-name="Слой 1" xmlns="http://www.w3.org/2000/svg" width="370" height="224" viewBox="0 0 370 224"><defs><style>.cls-1{fill:#1f2021;}.cls-2{fill:#f8f8f8;}.cls-3{fill:#e54545;}</style></defs><path class="cls-1" d="M359.8,224H10.1A10.05,10.05,0,0,1,0,214V10A10.05,10.05,0,0,1,10.1,0H359.9A10.12,10.12,0,0,1,370,10V214A10.2,10.2,0,0,1,359.8,224Z"/><g id="Группа"><path class="cls-2" d="M179.8,141.2a6.62,6.62,0,0,1-2.4-2.3,6.5,6.5,0,0,1,0-6.6,5.89,5.89,0,0,1,2.4-2.3,6.65,6.65,0,0,1,3.4-.9,7.42,7.42,0,0,1,3.4.8,6.62,6.62,0,0,1,2.4,2.3,6.29,6.29,0,0,1,.9,3.3,6,6,0,0,1-.9,3.3,5.89,5.89,0,0,1-2.4,2.3,7.23,7.23,0,0,1-6.8.1Zm5.9-1.5a4.24,4.24,0,0,0,1.7-1.8,5.42,5.42,0,0,0,.6-2.5,5.14,5.14,0,0,0-.6-2.5,5.81,5.81,0,0,0-1.7-1.8,5.51,5.51,0,0,0-5,0,4.45,4.45,0,0,0-1.8,1.8,5,5,0,0,0,1.8,6.8,4.42,4.42,0,0,0,2.5.6A3.74,3.74,0,0,0,185.7,139.7Z"/><path class="cls-2" d="M201.4,130.2a4.59,4.59,0,0,1,0,6.6,5.69,5.69,0,0,1-3.9,1.2h-3.1v3.9h-1.8v-13h4.9A6.73,6.73,0,0,1,201.4,130.2Zm-1.3,5.5a3.14,3.14,0,0,0,0-4.4,4,4,0,0,0-2.6-.8h-3.1v5.8h3.1A3.5,3.5,0,0,0,200.1,135.7Z"/><path class="cls-2" d="M207.9,130.6h-4.3V129H214v1.6h-4.3V142h-1.8Z"/><path class="cls-2" d="M215.9,129h1.8v13h-1.8Z"/><path class="cls-2" d="M223.7,141.2a6.62,6.62,0,0,1-2.4-2.3,6.29,6.29,0,0,1-.9-3.3,6,6,0,0,1,.9-3.3,5.89,5.89,0,0,1,2.4-2.3,6.65,6.65,0,0,1,3.4-.9,7.63,7.63,0,0,1,2.7.5,5.11,5.11,0,0,1,2.1,1.5l-1.2,1.1a4.54,4.54,0,0,0-3.5-1.5,5.14,5.14,0,0,0-2.5.6,3.92,3.92,0,0,0-1.8,1.8,5.42,5.42,0,0,0-.6,2.5,4.71,4.71,0,0,0,2.4,4.3,4.42,4.42,0,0,0,2.5.6,4.54,4.54,0,0,0,3.5-1.5l1.2,1.1a8,8,0,0,1-2.1,1.5,7.63,7.63,0,0,1-2.7.5A9.5,9.5,0,0,1,223.7,141.2Z"/><path class="cls-2" d="M235.4,141.5a6.82,6.82,0,0,1-2.1-1.1l.7-1.4a7.84,7.84,0,0,0,1.8,1.1,5.87,5.87,0,0,0,2.3.4,4.62,4.62,0,0,0,2.3-.5,1.72,1.72,0,0,0,.8-1.4,1.5,1.5,0,0,0-.4-1.1,2.07,2.07,0,0,0-1-.6c-.4-.1-1-.3-1.8-.5a21.9,21.9,0,0,1-2.3-.7,3.27,3.27,0,0,1-1.5-1.1,2.88,2.88,0,0,1-.6-1.9,3.45,3.45,0,0,1,.5-1.8,4.17,4.17,0,0,1,1.6-1.3,6.84,6.84,0,0,1,2.7-.5,8.33,8.33,0,0,1,2.2.3,10.84,10.84,0,0,1,1.9.8l-.6,1.4a8.86,8.86,0,0,0-1.7-.8,5.66,5.66,0,0,0-1.8-.3,3.71,3.71,0,0,0-2.3.6,1.87,1.87,0,0,0-.8,1.4,1.5,1.5,0,0,0,.4,1.1,2,2,0,0,0,1.1.6c.4.1,1,.3,1.7.5a21.9,21.9,0,0,1,2.3.7,3.27,3.27,0,0,1,1.5,1.1,2.88,2.88,0,0,1,.6,1.9,3.45,3.45,0,0,1-.5,1.8,3.54,3.54,0,0,1-1.6,1.3,6.84,6.84,0,0,1-2.7.5A8.57,8.57,0,0,1,235.4,141.5Z"/><path class="cls-3" d="M139.5,132.2a5.89,5.89,0,0,0-2.4-2.3,7.81,7.81,0,0,0-3.4-.9,7.42,7.42,0,0,0-3.4.8,5.89,5.89,0,0,0-2.4,2.3,6.5,6.5,0,0,0,0,6.6,5.89,5.89,0,0,0,2.4,2.3,6.65,6.65,0,0,0,3.4.9,7.42,7.42,0,0,0,3.4-.8,4.86,4.86,0,0,0,1.4-1.1l-1.2-1.2a10.63,10.63,0,0,1-1.1.9,5,5,0,0,1-6.8-1.8,4.92,4.92,0,0,1-.6-1.7h11.5c0-.3.1-.5.1-.8A6,6,0,0,0,139.5,132.2Zm-10.1.8a5.16,5.16,0,0,1,1.8-1.8,4.42,4.42,0,0,1,2.5-.6,5.14,5.14,0,0,1,2.5.6,4.24,4.24,0,0,1,1.7,1.8,4.92,4.92,0,0,1,.6,1.7h-9.6A3.37,3.37,0,0,1,129.4,133Z"/><path class="cls-3" d="M147.4,137.5V142h-1.8v-4.5l-5-8.5h1.9l4,6.9,4.1-6.9h1.8Z"/><path class="cls-3" d="M165.2,132.2a5.89,5.89,0,0,0-2.4-2.3,6.65,6.65,0,0,0-3.4-.9,7.42,7.42,0,0,0-3.4.8,5.89,5.89,0,0,0-2.4,2.3,6.5,6.5,0,0,0,0,6.6A5.89,5.89,0,0,0,156,141a7.73,7.73,0,0,0,3.4.8,7.42,7.42,0,0,0,3.4-.8,4.86,4.86,0,0,0,1.4-1.1l-1.2-1.2a10.63,10.63,0,0,1-1.1.9,5.51,5.51,0,0,1-5,0,4.45,4.45,0,0,1-1.8-1.8,4.92,4.92,0,0,1-.6-1.7H166c0-.3.1-.5.1-.8A8.51,8.51,0,0,0,165.2,132.2Zm-10.1.8a5.16,5.16,0,0,1,1.8-1.8,4.42,4.42,0,0,1,2.5-.6,5.14,5.14,0,0,1,2.5.6,4.24,4.24,0,0,1,1.7,1.8,4.92,4.92,0,0,1,.6,1.7h-9.6A3.37,3.37,0,0,1,155.1,133Z"/><path class="cls-2" d="M226.9,100a19.45,19.45,0,0,0-38.8,0H182a19.45,19.45,0,0,0-38.8,0H127v3h16.1a19.51,19.51,0,0,0,19.4,18,19.12,19.12,0,0,0,13.6-5.6l-2.1-2.1A16.45,16.45,0,0,1,146.1,103h42a19.45,19.45,0,0,0,38.8,0H243v-3Zm-80.8,0a16.47,16.47,0,0,1,32.8,0Zm61.4,18a16.44,16.44,0,0,1-16.4-15H224A16.61,16.61,0,0,1,207.5,118Zm-16.4-18a16.47,16.47,0,0,1,32.8,0Z"/></g></svg>