<svg id="Слой_1" data-name="Слой 1" xmlns="http://www.w3.org/2000/svg" xmlns:xlink="http://www.w3.org/1999/xlink" width="370" height="224" viewBox="0 0 370 224"><defs><style>.cls-1{fill:none;}.cls-2{fill:#1f2021;}.cls-3{clip-path:url(#clip-path);}.cls-4{fill:#7a7a7a;}.cls-5{fill:#e54545;}.cls-6{isolation:isolate;}.cls-7{fill:#f8f8f8;}</style><clipPath id="clip-path"><rect class="cls-1" y="40" width="247" height="48"/></clipPath></defs><path class="cls-2" d="M359.8,224H10.1A10.05,10.05,0,0,1,0,214V10A10.05,10.05,0,0,1,10.1,0H359.9A10.12,10.12,0,0,1,370,10V214A10.2,10.2,0,0,1,359.8,224Z"/><g class="cls-3"><polygon class="cls-4" points="-37.3 115 21.9 11 25.3 13.1 -33.9 117.1 -37.3 115"/><polygon class="cls-4" points="-28.4 115 30.8 11 34.2 13.1 -24.9 117.1 -28.4 115"/><polygon class="cls-4" points="-19.4 115 39.7 11 43.1 13.1 -16 117.1 -19.4 115"/><polygon class="cls-4" points="-10.5 115 48.6 11 52.1 13.1 -7.1 117.1 -10.5 115"/><polygon class="cls-4" points="-1.6 115 57.6 11 61 13.1 1.8 117.1 -1.6 115"/><polygon class="cls-4" points="7.4 115 66.5 11 69.9 13.1 10.8 117.1 7.4 115"/><polygon class="cls-4" points="16.3 115 75.4 11 78.8 13.1 19.7 117.1 16.3 115"/><polygon class="cls-4" points="25.2 115 84.4 11 87.8 13.1 28.6 117.1 25.2 115"/><polygon class="cls-4" points="34.1 115 93.3 11 96.7 13.1 37.6 117.1 34.1 115"/><polygon class="cls-4" points="43.1 115 102.2 11 105.6 13.1 46.5 117.1 43.1 115"/><polygon class="cls-4" points="52 115 111.1 11 114.6 13.1 55.4 117.1 52 115"/><polygon class="cls-4" points="60.9 115 120.1 11 123.6 13.1 64.3 117.1 60.9 115"/><polygon class="cls-4" points="69.9 115 129.1 11 132.5 13.1 73.3 117.1 69.9 115"/><polygon class="cls-4" points="78.8 115 138 11 141.4 13.1 82.2 117.1 78.8 115"/><polygon class="cls-4" points="87.7 115 147 11 150.4 13.1 91.1 117.1 87.7 115"/><polygon class="cls-4" points="96.6 115 155.9 11 159.3 13.1 100.1 117.1 96.6 115"/><polygon class="cls-4" points="105.6 115 164.8 11 168.2 13.1 109 117.1 105.6 115"/><polygon class="cls-4" points="114.5 115 173.7 11 177.2 13.1 117.9 117.1 114.5 115"/><polygon class="cls-4" points="123.4 115 182.7 11 186.1 13.1 126.9 117.1 123.4 115"/><polygon class="cls-4" points="132.5 115 191.6 11 195 13.1 135.9 117.1 132.5 115"/><polygon class="cls-4" points="141.4 115 200.5 11 203.9 13.1 144.8 117.1 141.4 115"/><polygon class="cls-4" points="150.3 115 209.5 11 212.9 13.1 153.7 117.1 150.3 115"/><polygon class="cls-4" points="159.2 115 218.4 11 221.8 13.1 162.7 117.1 159.2 115"/><polygon class="cls-4" points="168.2 115 227.3 11 230.7 13.1 171.6 117.1 168.2 115"/><polygon class="cls-4" points="177.1 115 236.2 11 239.7 13.1 180.5 117.1 177.1 115"/><polygon class="cls-4" points="186 115 245.2 11 248.6 13.1 189.4 117.1 186 115"/><polygon class="cls-4" points="194.9 115 254.1 11 257.5 13.1 198.4 117.1 194.9 115"/><polygon class="cls-4" points="203.9 115 263 11 266.4 13.1 207.3 117.1 203.9 115"/><polygon class="cls-4" points="212.8 115 271.9 11 275.4 13.1 216.2 117.1 212.8 115"/><polygon class="cls-4" points="221.7 115 280.9 11 284.3 13.1 225.1 117.1 221.7 115"/></g><polygon class="cls-5" points="278.29 140.71 274.08 140.71 274.08 138.33 277.71 138.33 277.71 137.45 274.08 137.45 274.08 135.18 278.14 135.18 278.14 134.29 273.09 134.29 273.09 141.61 278.29 141.61 278.29 140.71"/><path class="cls-5" d="M281.39,140.39l-1.87-4.25,0-.08h-1l2.41,5.42-.21.46a1.64,1.64,0,0,1-.44.64.82.82,0,0,1-.53.17,1.19,1.19,0,0,1-.87-.36l-.11-.11-.47.75.07.07a1.72,1.72,0,0,0,.62.39,2.32,2.32,0,0,0,.75.13,1.7,1.7,0,0,0,1.08-.34,2.63,2.63,0,0,0,.78-1.11l2.71-6.1h-1Z"/><path class="cls-5" d="M289.63,138.82a3,3,0,0,0-.35-1.46,2.56,2.56,0,0,0-1-1,2.81,2.81,0,0,0-2.75,0,2.55,2.55,0,0,0-1,1,3,3,0,0,0-.34,1.45,2.85,2.85,0,0,0,.37,1.45,2.63,2.63,0,0,0,1,1,3,3,0,0,0,1.49.37,3.29,3.29,0,0,0,1.21-.23,2.2,2.2,0,0,0,.92-.68l.07-.08-.56-.65-.09.11a1.94,1.94,0,0,1-.67.49,2.11,2.11,0,0,1-.85.17,2,2,0,0,1-1.36-.48,1.77,1.77,0,0,1-.58-1.12h4.38Zm-4.39-.43a1.74,1.74,0,0,1,.53-1.06,1.69,1.69,0,0,1,1.19-.46,1.62,1.62,0,0,1,1.2.46,1.88,1.88,0,0,1,.53,1.06Z"/><g class="cls-6"><path class="cls-7" d="M294.62,141.18a2.46,2.46,0,0,1-1-1,2.94,2.94,0,0,1,0-2.78,2.46,2.46,0,0,1,1-1,2.93,2.93,0,0,1,2.74,0,2.37,2.37,0,0,1,.95,1,2.78,2.78,0,0,1,.34,1.39,2.89,2.89,0,0,1-.34,1.39,2.5,2.5,0,0,1-.95,1,2.74,2.74,0,0,1-1.37.35A2.61,2.61,0,0,1,294.62,141.18Zm2.37-.54a1.68,1.68,0,0,0,.69-.73,2.46,2.46,0,0,0,0-2.16A1.8,1.8,0,0,0,297,137a2,2,0,0,0-1-.26,1.93,1.93,0,0,0-1,.26,1.76,1.76,0,0,0-.7.73,2.46,2.46,0,0,0,0,2.16,1.76,1.76,0,0,0,.7.73,2,2,0,0,0,1,.26A2,2,0,0,0,297,140.64Z"/><path class="cls-7" d="M304.15,136.48a2.45,2.45,0,0,1,.94,1,3.07,3.07,0,0,1,0,2.81,2.43,2.43,0,0,1-.93.95,2.66,2.66,0,0,1-1.35.34,2.41,2.41,0,0,1-1.15-.27,2.34,2.34,0,0,1-.85-.78v3h-.71v-7.26h.68v1a2.18,2.18,0,0,1,.84-.81,2.45,2.45,0,0,1,1.18-.28A2.6,2.6,0,0,1,304.15,136.48Zm-.38,4.16a1.78,1.78,0,0,0,.71-.73,2.26,2.26,0,0,0,.25-1.08,2.2,2.2,0,0,0-.25-1.07,1.85,1.85,0,0,0-.71-.73,2,2,0,0,0-1-.26,2,2,0,0,0-1,.26,1.89,1.89,0,0,0-.7.73,2.2,2.2,0,0,0-.25,1.07,2.26,2.26,0,0,0,.25,1.08,1.76,1.76,0,0,0,.7.73,2,2,0,0,0,1,.26A2,2,0,0,0,303.77,140.64Z"/><path class="cls-7" d="M309.65,141.16a1.46,1.46,0,0,1-.49.28,2.12,2.12,0,0,1-.62.1A1.39,1.39,0,0,1,307,140v-3.21h-.94v-.6H307V135h.71v1.16h1.6v.6h-1.6V140a1,1,0,0,0,.23.72.91.91,0,0,0,.68.25,1.16,1.16,0,0,0,.42-.07,1,1,0,0,0,.36-.2Z"/><path class="cls-7" d="M310.93,134.87a.49.49,0,0,1-.15-.36.49.49,0,0,1,.15-.35.53.53,0,0,1,.74,0,.47.47,0,0,1,.15.35.51.51,0,0,1-.52.52A.57.57,0,0,1,310.93,134.87Zm0,1.31h.71v5.3H311Z"/><path class="cls-7" d="M314.42,141.19a2.46,2.46,0,0,1-1-1,2.82,2.82,0,0,1-.35-1.4,2.79,2.79,0,0,1,.35-1.39,2.46,2.46,0,0,1,1-1,2.78,2.78,0,0,1,1.39-.34,2.63,2.63,0,0,1,1.21.27,2.06,2.06,0,0,1,.85.78l-.53.36a1.63,1.63,0,0,0-.66-.59,2,2,0,0,0-.87-.2,2.1,2.1,0,0,0-1,.26,1.78,1.78,0,0,0-.71.73,2.27,2.27,0,0,0-.26,1.08,2.21,2.21,0,0,0,.26,1.08,1.91,1.91,0,0,0,.71.73,2.07,2.07,0,0,0,1,.26,2,2,0,0,0,.87-.19,1.6,1.6,0,0,0,.66-.58l.53.36a2.06,2.06,0,0,1-.85.78,2.66,2.66,0,0,1-1.21.27A2.89,2.89,0,0,1,314.42,141.19Z"/><path class="cls-7" d="M319.45,141.35a2.42,2.42,0,0,1-.91-.47l.32-.57a2.6,2.6,0,0,0,.83.43,3.29,3.29,0,0,0,1,.17,1.87,1.87,0,0,0,1.06-.23.72.72,0,0,0,.35-.64.58.58,0,0,0-.19-.46,1.37,1.37,0,0,0-.48-.25,7.29,7.29,0,0,0-.77-.17,7.43,7.43,0,0,1-1-.25,1.46,1.46,0,0,1-.66-.43,1.21,1.21,0,0,1-.28-.84,1.31,1.31,0,0,1,.55-1.09,2.48,2.48,0,0,1,1.53-.42,4,4,0,0,1,1,.14,2.72,2.72,0,0,1,.84.36l-.31.57a2.65,2.65,0,0,0-1.55-.45,1.85,1.85,0,0,0-1,.24.73.73,0,0,0-.34.64.66.66,0,0,0,.19.48,1.22,1.22,0,0,0,.49.27,7.19,7.19,0,0,0,.8.18,9,9,0,0,1,1,.24,1.53,1.53,0,0,1,.65.41,1.13,1.13,0,0,1,.27.81,1.28,1.28,0,0,1-.57,1.1,2.72,2.72,0,0,1-1.6.41A4.16,4.16,0,0,1,319.45,141.35Z"/><path class="cls-7" d="M331.93,141.59l-1-1a3,3,0,0,1-2.34,1,2.9,2.9,0,0,1-1.21-.23,1.86,1.86,0,0,1-.83-.64,1.52,1.52,0,0,1-.3-.93,1.78,1.78,0,0,1,.4-1.14,4.81,4.81,0,0,1,1.36-1.06,4.59,4.59,0,0,1-.69-.89,1.66,1.66,0,0,1-.19-.78,1.38,1.38,0,0,1,.48-1.09,1.89,1.89,0,0,1,1.29-.41,1.77,1.77,0,0,1,1.19.37,1.29,1.29,0,0,1,.44,1,1.44,1.44,0,0,1-.35.94,4.57,4.57,0,0,1-1.21.92l1.92,2a4.63,4.63,0,0,0,.47-1.36l.58.18a4.72,4.72,0,0,1-.62,1.62l1,1Zm-1.39-1.44L328.43,138a4.25,4.25,0,0,0-1.14.86,1.32,1.32,0,0,0-.31.86,1.09,1.09,0,0,0,.46.92,2,2,0,0,0,1.22.35A2.41,2.41,0,0,0,330.54,140.15Zm-2.43-5a.87.87,0,0,0-.29.7,1.11,1.11,0,0,0,.16.59,4.85,4.85,0,0,0,.63.77,4.75,4.75,0,0,0,1.05-.76,1,1,0,0,0,.29-.69.81.81,0,0,0-.27-.64,1.09,1.09,0,0,0-.75-.24A1.21,1.21,0,0,0,328.11,135.17Z"/><path class="cls-7" d="M337.4,141.08a3.38,3.38,0,0,1-1.31-1.29,3.77,3.77,0,0,1,0-3.68,3.34,3.34,0,0,1,1.32-1.29,3.82,3.82,0,0,1,1.88-.46,4,4,0,0,1,1.44.26,2.92,2.92,0,0,1,1.12.77l-.47.47a2.78,2.78,0,0,0-2.07-.84,3.08,3.08,0,0,0-1.51.38,2.84,2.84,0,0,0-1.07,1,2.87,2.87,0,0,0-.38,1.49,3,3,0,0,0,.38,1.49,2.84,2.84,0,0,0,1.07,1,3,3,0,0,0,1.51.38,2.72,2.72,0,0,0,2.07-.85l.47.47a3,3,0,0,1-1.12.77,3.78,3.78,0,0,1-1.45.27A3.56,3.56,0,0,1,337.4,141.08Z"/><path class="cls-7" d="M344.45,141.07a3.41,3.41,0,0,1-1.32-1.29,3.55,3.55,0,0,1-.47-1.84,3.68,3.68,0,0,1,.47-1.84,3.41,3.41,0,0,1,1.32-1.29,3.83,3.83,0,0,1,1.88-.47,3.76,3.76,0,0,1,1.87.46,3.38,3.38,0,0,1,1.31,1.29,3.77,3.77,0,0,1,0,3.68,3.45,3.45,0,0,1-1.31,1.29,3.78,3.78,0,0,1-1.87.46A3.71,3.71,0,0,1,344.45,141.07Zm3.38-.57a2.65,2.65,0,0,0,1.05-1.05,3.15,3.15,0,0,0,0-3,2.65,2.65,0,0,0-1.05-1,3,3,0,0,0-1.5-.38,3.11,3.11,0,0,0-1.51.38,2.74,2.74,0,0,0-1.06,1,2.94,2.94,0,0,0-.38,1.5,3,3,0,0,0,.38,1.5,2.68,2.68,0,0,0,1.06,1.05,3.17,3.17,0,0,0,3,0Z"/></g><g class="cls-6"><path class="cls-7" d="M195,150.19h-2.46v-.65h5.66v.65h-2.46v6.41H195Z"/><path class="cls-7" d="M203.26,154.18h-4.4a1.91,1.91,0,0,0,.63,1.34,2.08,2.08,0,0,0,1.44.51,2.19,2.19,0,0,0,.9-.18,2,2,0,0,0,.71-.52l.4.46a2.27,2.27,0,0,1-.87.65,2.92,2.92,0,0,1-1.16.22,2.88,2.88,0,0,1-1.43-.35,2.51,2.51,0,0,1-1-1,2.79,2.79,0,0,1-.35-1.39,2.88,2.88,0,0,1,.33-1.39,2.43,2.43,0,0,1,.92-1,2.55,2.55,0,0,1,1.32-.34,2.51,2.51,0,0,1,1.31.34,2.45,2.45,0,0,1,.91.95,2.87,2.87,0,0,1,.33,1.4Zm-3.81-1.81a1.92,1.92,0,0,0-.58,1.28h3.73a2,2,0,0,0-.58-1.28,1.93,1.93,0,0,0-2.57,0Z"/><path class="cls-7" d="M204.72,149.13h.71v7.48h-.71Z"/><path class="cls-7" d="M212,154.18h-4.4a1.91,1.91,0,0,0,.63,1.34,2.08,2.08,0,0,0,1.44.51,2.19,2.19,0,0,0,.9-.18,2,2,0,0,0,.71-.52l.4.46a2.27,2.27,0,0,1-.87.65,2.88,2.88,0,0,1-1.15.22,3,3,0,0,1-1.44-.35,2.42,2.42,0,0,1-1-1,2.79,2.79,0,0,1-.35-1.39,2.88,2.88,0,0,1,.33-1.39,2.43,2.43,0,0,1,.92-1,2.55,2.55,0,0,1,1.32-.34,2.51,2.51,0,0,1,1.31.34,2.45,2.45,0,0,1,.91.95A2.9,2.9,0,0,1,212,154Zm-3.81-1.81a2,2,0,0,0-.59,1.28h3.73a2,2,0,0,0-.58-1.28,1.92,1.92,0,0,0-2.56,0Z"/><path class="cls-7" d="M217.5,151.6a2.45,2.45,0,0,1,.94,1,3.07,3.07,0,0,1,0,2.81,2.43,2.43,0,0,1-.93.95,2.66,2.66,0,0,1-1.35.34,2.41,2.41,0,0,1-1.15-.27,2.34,2.34,0,0,1-.85-.78v3h-.71V151.3h.68v1a2.18,2.18,0,0,1,.84-.81,2.45,2.45,0,0,1,1.18-.28A2.73,2.73,0,0,1,217.5,151.6Zm-.39,4.17a1.78,1.78,0,0,0,.71-.73,2.26,2.26,0,0,0,.25-1.08,2.2,2.2,0,0,0-.25-1.07,1.85,1.85,0,0,0-.71-.73,2,2,0,0,0-1-.26,2,2,0,0,0-1,.26,1.89,1.89,0,0,0-.7.73,2.2,2.2,0,0,0-.25,1.07,2.26,2.26,0,0,0,.25,1.08,1.76,1.76,0,0,0,.7.73,2,2,0,0,0,1,.26A2.09,2.09,0,0,0,217.11,155.77Z"/><path class="cls-7" d="M224.49,151.84a2.28,2.28,0,0,1,.58,1.69v3.08h-.71v-3a1.78,1.78,0,0,0-.41-1.26,1.52,1.52,0,0,0-1.17-.43,1.77,1.77,0,0,0-1.34.51,1.94,1.94,0,0,0-.5,1.41v2.78h-.71v-7.48h.71v3.11a1.93,1.93,0,0,1,.8-.72,2.58,2.58,0,0,1,1.17-.25A2.13,2.13,0,0,1,224.49,151.84Z"/><path class="cls-7" d="M227.8,156.31a2.46,2.46,0,0,1-1-1,2.94,2.94,0,0,1,0-2.78,2.46,2.46,0,0,1,1-1,2.93,2.93,0,0,1,2.74,0,2.37,2.37,0,0,1,1,1,2.94,2.94,0,0,1,0,2.78,2.5,2.5,0,0,1-1,1,2.86,2.86,0,0,1-2.74,0Zm2.38-.54a1.68,1.68,0,0,0,.69-.73,2.46,2.46,0,0,0,0-2.16,1.8,1.8,0,0,0-.69-.73,2,2,0,0,0-1-.26,2,2,0,0,0-1,.26,1.76,1.76,0,0,0-.7.73,2.46,2.46,0,0,0,0,2.16,1.76,1.76,0,0,0,.7.73,2,2,0,0,0,1,.26A2.13,2.13,0,0,0,230.18,155.77Z"/><path class="cls-7" d="M237.55,151.84a2.28,2.28,0,0,1,.58,1.69v3.08h-.71v-3a1.78,1.78,0,0,0-.41-1.26,1.52,1.52,0,0,0-1.17-.43,1.79,1.79,0,0,0-1.35.51,1.94,1.94,0,0,0-.49,1.41v2.78h-.71v-5.3H234v1a2,2,0,0,1,.81-.75,2.52,2.52,0,0,1,1.19-.27A2.13,2.13,0,0,1,237.55,151.84Z"/><path class="cls-7" d="M244.66,154.18h-4.4a1.91,1.91,0,0,0,.63,1.34,2.08,2.08,0,0,0,1.44.51,2.19,2.19,0,0,0,.9-.18,2,2,0,0,0,.71-.52l.4.46a2.34,2.34,0,0,1-.87.65,2.88,2.88,0,0,1-1.15.22,3,3,0,0,1-1.44-.35,2.42,2.42,0,0,1-1-1,2.79,2.79,0,0,1-.35-1.39,2.88,2.88,0,0,1,.33-1.39,2.43,2.43,0,0,1,.92-1,2.54,2.54,0,0,1,1.31-.34,2.51,2.51,0,0,1,1.31.34,2.45,2.45,0,0,1,.91.95,2.9,2.9,0,0,1,.33,1.4Zm-3.81-1.81a1.92,1.92,0,0,0-.58,1.28H244a2,2,0,0,0-.59-1.28,1.77,1.77,0,0,0-1.29-.49A1.74,1.74,0,0,0,240.85,152.37Z"/><path class="cls-7" d="M245.81,152.2a.58.58,0,0,1,0-.78.52.52,0,0,1,.75,0,.56.56,0,0,1,0,.78.51.51,0,0,1-.38.16A.49.49,0,0,1,245.81,152.2Zm0,4.3a.58.58,0,0,1,0-.78.52.52,0,0,1,.75,0,.56.56,0,0,1,0,.78.51.51,0,0,1-.38.16A.52.52,0,0,1,245.81,156.5Z"/><path class="cls-7" d="M254.92,153.38h-1.86v1.84h-.63v-1.84h-1.86v-.59h1.86v-1.85h.63v1.85h1.86Z"/><path class="cls-7" d="M262.17,154.75h-1.4v1.86h-.72v-1.86H256.1v-.52l3.71-4.68h.8L257,154.11h3v-1.63h.7v1.63h1.4Z"/><path class="cls-7" d="M268.78,154.75h-1.4v1.86h-.72v-1.86h-4v-.52l3.71-4.68h.8l-3.58,4.56h3v-1.63h.7v1.63h1.4Z"/><path class="cls-7" d="M272.88,156.43a10.7,10.7,0,0,1-.3-2.59,10.84,10.84,0,0,1,.3-2.6,7.41,7.41,0,0,1,.86-2.12h.68a8.35,8.35,0,0,0-.87,2.19,11.2,11.2,0,0,0-.28,2.53,10.66,10.66,0,0,0,.28,2.53,7.71,7.71,0,0,0,.87,2.19h-.68A7.54,7.54,0,0,1,272.88,156.43Z"/><path class="cls-7" d="M276.69,156.23a2.85,2.85,0,0,1-1-1.25,4.69,4.69,0,0,1-.35-1.91,4.86,4.86,0,0,1,.35-1.91,2.91,2.91,0,0,1,1-1.25,2.49,2.49,0,0,1,1.44-.43,2.52,2.52,0,0,1,1.45.43,2.94,2.94,0,0,1,1,1.25,5.25,5.25,0,0,1,0,3.82,2.86,2.86,0,0,1-1,1.25,2.48,2.48,0,0,1-1.45.43A2.42,2.42,0,0,1,276.69,156.23Zm2.52-.57a2.27,2.27,0,0,0,.73-1,4.93,4.93,0,0,0,0-3.16,2.2,2.2,0,0,0-.73-1,1.76,1.76,0,0,0-1.08-.34,1.8,1.8,0,0,0-1.07.34,2.27,2.27,0,0,0-.73,1,4.93,4.93,0,0,0,0,3.16,2.13,2.13,0,0,0,.73,1,1.87,1.87,0,0,0,2.15,0Z"/><path class="cls-7" d="M286.72,156v.65h-4.91v-.51l2.91-2.87a3.8,3.8,0,0,0,.75-.94,1.82,1.82,0,0,0,.2-.8,1.16,1.16,0,0,0-.43-1,1.88,1.88,0,0,0-1.21-.35,2.37,2.37,0,0,0-1.91.79l-.51-.44a2.76,2.76,0,0,1,1-.75,3.63,3.63,0,0,1,1.44-.26,2.58,2.58,0,0,1,1.69.51,1.69,1.69,0,0,1,.62,1.4,2.44,2.44,0,0,1-.24,1.05,4.31,4.31,0,0,1-.91,1.16L282.87,156h3.85v0Z"/><path class="cls-7" d="M288.93,156.23a2.85,2.85,0,0,1-1-1.25,4.69,4.69,0,0,1-.35-1.91,4.86,4.86,0,0,1,.35-1.91,2.91,2.91,0,0,1,1-1.25,2.49,2.49,0,0,1,1.44-.43,2.52,2.52,0,0,1,1.45.43,2.94,2.94,0,0,1,1,1.25,5.25,5.25,0,0,1,0,3.82,2.86,2.86,0,0,1-1,1.25,2.48,2.48,0,0,1-1.45.43A2.42,2.42,0,0,1,288.93,156.23Zm2.52-.57a2.27,2.27,0,0,0,.73-1,4.93,4.93,0,0,0,0-3.16,2.2,2.2,0,0,0-.73-1,1.76,1.76,0,0,0-1.08-.34,1.8,1.8,0,0,0-1.07.34,2.27,2.27,0,0,0-.73,1,4.93,4.93,0,0,0,0,3.16,2.2,2.2,0,0,0,.73,1,1.87,1.87,0,0,0,2.15,0Z"/><path class="cls-7" d="M294.08,158.56a8.42,8.42,0,0,0,.87-2.18,11.66,11.66,0,0,0,0-5.08,8.28,8.28,0,0,0-.87-2.18h.68a7.41,7.41,0,0,1,.86,2.12,10.83,10.83,0,0,1,.31,2.6,10.7,10.7,0,0,1-.3,2.59,7.32,7.32,0,0,1-.87,2.13Z"/><path class="cls-7" d="M305.05,149.55v.51l-2.93,6.54h-.78l2.88-6.41h-3.6v1.32h-.71v-2h5.14Z"/><path class="cls-7" d="M310.31,150.41a4.08,4.08,0,0,1,.74,2.61,4.49,4.49,0,0,1-.4,2,2.8,2.8,0,0,1-1.12,1.23,3.27,3.27,0,0,1-1.68.42,3.19,3.19,0,0,1-1.66-.38l.29-.58a2.44,2.44,0,0,0,1.36.33,2.33,2.33,0,0,0,1.82-.74,3.13,3.13,0,0,0,.66-2.15c0-.17,0-.37,0-.57a1.88,1.88,0,0,1-.83.89,2.67,2.67,0,0,1-1.31.32,2.77,2.77,0,0,1-1.22-.26,1.93,1.93,0,0,1-.83-.74,2.05,2.05,0,0,1-.3-1.11,2,2,0,0,1,1.16-1.9,2.71,2.71,0,0,1,1.23-.27A2.5,2.5,0,0,1,310.31,150.41ZM309.2,153a1.64,1.64,0,0,0,.64-.55,1.46,1.46,0,0,0,.23-.79,1.42,1.42,0,0,0-.21-.75,1.55,1.55,0,0,0-.63-.55,2.2,2.2,0,0,0-1-.21,1.77,1.77,0,0,0-1.23.42,1.52,1.52,0,0,0,0,2.22,1.86,1.86,0,0,0,1.28.41A2.11,2.11,0,0,0,309.2,153Z"/><path class="cls-7" d="M316.05,153.17a1.85,1.85,0,0,1,.57,1.41,2,2,0,0,1-.29,1.07,2,2,0,0,1-.86.74,3.22,3.22,0,0,1-1.39.27,4,4,0,0,1-1.43-.25,3.14,3.14,0,0,1-1.09-.66l.35-.58a2.52,2.52,0,0,0,.93.59,3.41,3.41,0,0,0,1.24.23,2.09,2.09,0,0,0,1.33-.38,1.27,1.27,0,0,0,.47-1,1.25,1.25,0,0,0-.47-1,2.25,2.25,0,0,0-1.42-.37h-.5v-.53l1.94-2.45h-3.58v-.65h4.5v.51l-2,2.51A2.65,2.65,0,0,1,316.05,153.17Z"/><path class="cls-7" d="M322.44,149.55v.51l-2.93,6.54h-.78l2.88-6.41H318v1.32h-.71v-2h5.14Z"/><path class="cls-7" d="M330.32,150.41a4.08,4.08,0,0,1,.74,2.61,4.49,4.49,0,0,1-.4,2,2.8,2.8,0,0,1-1.12,1.23,3.27,3.27,0,0,1-1.68.42,3.19,3.19,0,0,1-1.66-.38l.29-.58a2.44,2.44,0,0,0,1.36.33,2.33,2.33,0,0,0,1.82-.74,3.13,3.13,0,0,0,.66-2.15c0-.17,0-.37,0-.57a1.88,1.88,0,0,1-.83.89,2.67,2.67,0,0,1-1.31.32,2.77,2.77,0,0,1-1.22-.26,1.93,1.93,0,0,1-.83-.74,2.05,2.05,0,0,1-.3-1.11,2,2,0,0,1,1.16-1.9,2.71,2.71,0,0,1,1.23-.27A2.5,2.5,0,0,1,330.32,150.41ZM329.21,153a1.64,1.64,0,0,0,.64-.55,1.46,1.46,0,0,0,.23-.79,1.42,1.42,0,0,0-.21-.75,1.55,1.55,0,0,0-.63-.55,2.2,2.2,0,0,0-1-.21,1.77,1.77,0,0,0-1.23.42,1.52,1.52,0,0,0,0,2.22,1.86,1.86,0,0,0,1.28.41A2.14,2.14,0,0,0,329.21,153Z"/><path class="cls-7" d="M336.41,150.41a4.08,4.08,0,0,1,.74,2.61,4.49,4.49,0,0,1-.4,2,2.8,2.8,0,0,1-1.12,1.23,3.27,3.27,0,0,1-1.68.42,3.19,3.19,0,0,1-1.66-.38l.29-.58a2.44,2.44,0,0,0,1.36.33,2.33,2.33,0,0,0,1.82-.74,3.13,3.13,0,0,0,.66-2.15c0-.17,0-.37,0-.57a1.88,1.88,0,0,1-.83.89,2.67,2.67,0,0,1-1.31.32,2.77,2.77,0,0,1-1.22-.26,1.93,1.93,0,0,1-.83-.74,2.05,2.05,0,0,1-.3-1.11,2,2,0,0,1,1.16-1.9,2.71,2.71,0,0,1,1.23-.27A2.5,2.5,0,0,1,336.41,150.41ZM335.29,153a1.64,1.64,0,0,0,.64-.55,1.46,1.46,0,0,0,.23-.79,1.42,1.42,0,0,0-.21-.75,1.55,1.55,0,0,0-.63-.55,2.2,2.2,0,0,0-1-.21,1.77,1.77,0,0,0-1.23.42,1.52,1.52,0,0,0,0,2.22,1.86,1.86,0,0,0,1.28.41A2.11,2.11,0,0,0,335.29,153Z"/><path class="cls-7" d="M342.24,153a1.87,1.87,0,0,1,.7,1.54,2.12,2.12,0,0,1-.29,1.1,1.94,1.94,0,0,1-.86.76,3.26,3.26,0,0,1-1.4.28,4,4,0,0,1-1.42-.25,3.14,3.14,0,0,1-1.09-.66l.35-.58a2.56,2.56,0,0,0,.92.59,3.32,3.32,0,0,0,1.23.23,2.09,2.09,0,0,0,1.35-.39,1.27,1.27,0,0,0,.47-1.05,1.26,1.26,0,0,0-.54-1.1,3.27,3.27,0,0,0-1.8-.37h-1.49l.36-3.54h3.83v.65h-3.2l-.24,2.25h.9A3.55,3.55,0,0,1,342.24,153Z"/><path class="cls-7" d="M345.19,156.23a2.85,2.85,0,0,1-1-1.25,4.69,4.69,0,0,1-.35-1.91,4.86,4.86,0,0,1,.35-1.91,2.91,2.91,0,0,1,1-1.25,2.66,2.66,0,0,1,2.9,0,2.85,2.85,0,0,1,1,1.25,5.25,5.25,0,0,1,0,3.82,2.91,2.91,0,0,1-1,1.25,2.5,2.5,0,0,1-1.45.43A2.45,2.45,0,0,1,345.19,156.23Zm2.52-.57a2.27,2.27,0,0,0,.73-1,4.93,4.93,0,0,0,0-3.16,2.2,2.2,0,0,0-.73-1,1.75,1.75,0,0,0-1.07-.34,1.83,1.83,0,0,0-1.08.34,2.21,2.21,0,0,0-.73,1,4.93,4.93,0,0,0,0,3.16,2.2,2.2,0,0,0,.73,1,1.76,1.76,0,0,0,1.08.34A1.73,1.73,0,0,0,347.71,155.66Z"/></g><g class="cls-6"><path class="cls-7" d="M43.12,171.09v.64H38.21v-.51l2.91-2.87a3.8,3.8,0,0,0,.75-.94,1.79,1.79,0,0,0,.2-.8,1.16,1.16,0,0,0-.43-1,1.88,1.88,0,0,0-1.21-.35,2.37,2.37,0,0,0-1.91.79l-.52-.46a2.76,2.76,0,0,1,1-.75,3.63,3.63,0,0,1,1.44-.26,2.58,2.58,0,0,1,1.69.51,1.69,1.69,0,0,1,.62,1.4,2.44,2.44,0,0,1-.24,1,4.31,4.31,0,0,1-.91,1.16l-2.38,2.36Z"/><path class="cls-7" d="M44,168.69h2.62v.62H44Z"/><path class="cls-7" d="M51.81,168.12a1.86,1.86,0,0,1,.69,1.54,2,2,0,0,1-.29,1.1,1.92,1.92,0,0,1-.85.76,3.12,3.12,0,0,1-1.4.28,4,4,0,0,1-1.42-.25,3,3,0,0,1-1.08-.66l.35-.58a2.56,2.56,0,0,0,.92.59,3.32,3.32,0,0,0,1.23.23,2,2,0,0,0,1.34-.39,1.28,1.28,0,0,0,.48-1.05,1.26,1.26,0,0,0-.54-1.1,3.27,3.27,0,0,0-1.8-.37H48l.36-3.54h3.83v.64h-3.2l-.24,2.25h.9A3.54,3.54,0,0,1,51.81,168.12Z"/><path class="cls-7" d="M62.51,164.67v7.06h-.73v-3.26H57.4v3.26h-.74v-7.06h.74v3.15h4.38v-3.15Z"/><path class="cls-7" d="M69.22,169.3h-4.4a1.91,1.91,0,0,0,.63,1.34,2.08,2.08,0,0,0,1.44.51,2.19,2.19,0,0,0,.9-.18,2,2,0,0,0,.71-.52l.4.46a2.15,2.15,0,0,1-.87.64,2.88,2.88,0,0,1-1.15.22,3,3,0,0,1-1.44-.35,2.42,2.42,0,0,1-1-1,2.79,2.79,0,0,1-.35-1.39,2.88,2.88,0,0,1,.33-1.39,2.43,2.43,0,0,1,.92-1,2.55,2.55,0,0,1,1.32-.34,2.51,2.51,0,0,1,1.31.34,2.45,2.45,0,0,1,.91.95,2.9,2.9,0,0,1,.33,1.4Zm-3.82-1.81a1.92,1.92,0,0,0-.58,1.28h3.73a2,2,0,0,0-.58-1.28,1.77,1.77,0,0,0-1.29-.49A1.82,1.82,0,0,0,65.4,167.49Z"/><path class="cls-7" d="M72.1,166.66a2.54,2.54,0,0,1,1.23-.27v.7h-.17a1.68,1.68,0,0,0-1.3.51,2.06,2.06,0,0,0-.47,1.44v2.7h-.71v-5.3h.68v1A1.67,1.67,0,0,1,72.1,166.66Z"/><path class="cls-7" d="M77.61,171.41a1.42,1.42,0,0,1-.5.28,2.12,2.12,0,0,1-.62.1A1.39,1.39,0,0,1,75,170.25V167H74v-.6H75v-1.16h.71v1.16h1.6v.6h-1.6v3.17a1,1,0,0,0,.24.72.91.91,0,0,0,.67.25,1.23,1.23,0,0,0,.78-.27Z"/><path class="cls-7" d="M79.94,165.06a1.06,1.06,0,0,0-.24.75v.63h1.62v.6h-1.6v4.7H79V167h-.94v-.6H79v-.66a1.56,1.56,0,0,1,.42-1.15,1.58,1.58,0,0,1,1.17-.42,1.9,1.9,0,0,1,.58.09,1.32,1.32,0,0,1,.47.25l-.24.53a1.2,1.2,0,0,0-.78-.26A.86.86,0,0,0,79.94,165.06Z"/><path class="cls-7" d="M83,171.44a2.46,2.46,0,0,1-1-1,2.94,2.94,0,0,1,0-2.78,2.46,2.46,0,0,1,1-1,2.93,2.93,0,0,1,2.74,0,2.37,2.37,0,0,1,1,1,2.94,2.94,0,0,1,0,2.78,2.5,2.5,0,0,1-1,1,2.74,2.74,0,0,1-1.37.35A2.82,2.82,0,0,1,83,171.44Zm2.37-.55a1.68,1.68,0,0,0,.69-.73A2.46,2.46,0,0,0,86,168a1.8,1.8,0,0,0-.69-.73,2,2,0,0,0-1-.26,2,2,0,0,0-1,.26,1.76,1.76,0,0,0-.7.73,2.46,2.46,0,0,0,0,2.16,1.76,1.76,0,0,0,.7.73,2.07,2.07,0,0,0,2,0Z"/><path class="cls-7" d="M89.89,166.66a2.53,2.53,0,0,1,1.22-.27v.7h-.17a1.68,1.68,0,0,0-1.3.51,2.06,2.06,0,0,0-.47,1.44v2.7h-.71v-5.3h.68v1A1.74,1.74,0,0,1,89.89,166.66Z"/><path class="cls-7" d="M97.14,164.25v7.48h-.68v-1a2.13,2.13,0,0,1-.84.82,2.45,2.45,0,0,1-1.18.28,2.64,2.64,0,0,1-1.34-.34,2.48,2.48,0,0,1-.94-1,3.05,3.05,0,0,1,0-2.8,2.39,2.39,0,0,1,.94-1,2.64,2.64,0,0,1,1.34-.34,2.41,2.41,0,0,1,1.15.27,2.34,2.34,0,0,1,.85.78v-3.19Zm-1.65,6.64a1.76,1.76,0,0,0,.7-.73,2.46,2.46,0,0,0,0-2.16,1.76,1.76,0,0,0-.7-.73,2,2,0,0,0-1-.26,2,2,0,0,0-1,.26,1.83,1.83,0,0,0-.7.73,2.46,2.46,0,0,0,0,2.16,1.76,1.76,0,0,0,.7.73,2.05,2.05,0,0,0,2,0Z"/><path class="cls-7" d="M102.33,171.54a2.78,2.78,0,0,1-1.1-.66l.29-.58a2.71,2.71,0,0,0,1,.62,3.61,3.61,0,0,0,1.3.24,2.36,2.36,0,0,0,1.41-.35,1.08,1.08,0,0,0,.47-.9.92.92,0,0,0-.25-.68,1.72,1.72,0,0,0-.62-.39c-.25-.09-.59-.19-1-.3a8.8,8.8,0,0,1-1.26-.39,2,2,0,0,1-.8-.57,1.54,1.54,0,0,1-.33-1,1.72,1.72,0,0,1,.28-1,1.9,1.9,0,0,1,.86-.7,3.43,3.43,0,0,1,1.44-.26,4.19,4.19,0,0,1,1.17.17,3.4,3.4,0,0,1,1,.46l-.25.6a3.66,3.66,0,0,0-.94-.44,3.38,3.38,0,0,0-1-.15,2.26,2.26,0,0,0-1.39.36,1.11,1.11,0,0,0-.46.92.92.92,0,0,0,.25.68,1.65,1.65,0,0,0,.64.39c.26.09.6.19,1,.3a10.19,10.19,0,0,1,1.25.38,2.07,2.07,0,0,1,.81.56,1.49,1.49,0,0,1,.33,1,1.73,1.73,0,0,1-.29,1,2,2,0,0,1-.87.7,3.65,3.65,0,0,1-1.45.26A4.41,4.41,0,0,1,102.33,171.54Z"/><path class="cls-7" d="M110.66,171.41a1.42,1.42,0,0,1-.5.28,2.12,2.12,0,0,1-.62.1,1.39,1.39,0,0,1-1.54-1.54V167h-.94v-.6H108v-1.16h.71v1.16h1.6v.6h-1.6v3.17a1,1,0,0,0,.24.72.91.91,0,0,0,.67.25,1.23,1.23,0,0,0,.78-.27Z"/><path class="cls-7" d="M113.38,166.66a2.54,2.54,0,0,1,1.23-.27v.7h-.17a1.68,1.68,0,0,0-1.3.51,2.06,2.06,0,0,0-.47,1.44v2.7H112v-5.3h.68v1A1.67,1.67,0,0,1,113.38,166.66Z"/><path class="cls-7" d="M120.41,169.3H116a1.91,1.91,0,0,0,.63,1.34,2.08,2.08,0,0,0,1.44.51,2.19,2.19,0,0,0,.9-.18,2,2,0,0,0,.71-.52l.4.46a2.15,2.15,0,0,1-.87.64,2.88,2.88,0,0,1-1.15.22,3,3,0,0,1-1.44-.35,2.42,2.42,0,0,1-1-1,2.79,2.79,0,0,1-.35-1.39,2.88,2.88,0,0,1,.33-1.39,2.43,2.43,0,0,1,.92-1,2.55,2.55,0,0,1,1.32-.34,2.51,2.51,0,0,1,1.31.34,2.45,2.45,0,0,1,.91.95,2.9,2.9,0,0,1,.33,1.4Zm-3.81-1.81a1.92,1.92,0,0,0-.58,1.28h3.73a2,2,0,0,0-.58-1.28,1.93,1.93,0,0,0-2.57,0Z"/><path class="cls-7" d="M126.45,169.3h-4.4a1.91,1.91,0,0,0,.63,1.34,2.08,2.08,0,0,0,1.44.51,2.19,2.19,0,0,0,.9-.18,2,2,0,0,0,.71-.52l.4.46a2.15,2.15,0,0,1-.87.64,2.88,2.88,0,0,1-1.15.22,3,3,0,0,1-1.44-.35,2.42,2.42,0,0,1-1-1,2.79,2.79,0,0,1-.35-1.39,2.88,2.88,0,0,1,.33-1.39,2.43,2.43,0,0,1,.92-1,2.55,2.55,0,0,1,1.32-.34,2.51,2.51,0,0,1,1.31.34,2.45,2.45,0,0,1,.91.95,2.9,2.9,0,0,1,.33,1.4Zm-3.81-1.81a1.92,1.92,0,0,0-.58,1.28h3.73a2,2,0,0,0-.58-1.28,1.93,1.93,0,0,0-2.57,0Z"/><path class="cls-7" d="M130.68,171.41a1.46,1.46,0,0,1-.49.28,2.12,2.12,0,0,1-.62.1,1.39,1.39,0,0,1-1.54-1.54V167h-.94v-.6H128v-1.16h.71v1.16h1.6v.6h-1.6v3.17a1,1,0,0,0,.24.72.91.91,0,0,0,.67.25,1.16,1.16,0,0,0,.42-.07,1,1,0,0,0,.35-.2Z"/><path class="cls-7" d="M132.53,170.84a.53.53,0,0,1,.15.39.82.82,0,0,1,0,.26c0,.09-.06.2-.1.32l-.42,1.39h-.48l.34-1.46a.49.49,0,0,1-.26-.19.52.52,0,0,1-.1-.33.56.56,0,0,1,.15-.39.53.53,0,0,1,.38-.16A.54.54,0,0,1,132.53,170.84Z"/><path class="cls-7" d="M144.23,164.67v7.06h-.71v-5.65l-2.75,4.75h-.35l-2.75-4.72v5.62H137v-7.06h.61l3,5.23,3-5.23Z"/><path class="cls-7" d="M149.78,166.91a2,2,0,0,1,.55,1.54v3.29h-.68v-.83a1.66,1.66,0,0,1-.71.65,2.38,2.38,0,0,1-1.1.23,2.16,2.16,0,0,1-1.4-.42,1.46,1.46,0,0,1,0-2.21,2.33,2.33,0,0,1,1.54-.41h1.67v-.32a1.37,1.37,0,0,0-.38-1,1.54,1.54,0,0,0-1.11-.36,2.85,2.85,0,0,0-1,.17,2.29,2.29,0,0,0-.79.46l-.32-.53a3,3,0,0,1,1-.53,3.84,3.84,0,0,1,1.18-.19A2.12,2.12,0,0,1,149.78,166.91Zm-.8,4a1.65,1.65,0,0,0,.64-.8v-.87H148c-.9,0-1.35.32-1.35.95a.88.88,0,0,0,.35.73,1.57,1.57,0,0,0,1,.27A1.83,1.83,0,0,0,149,170.94Z"/><path class="cls-7" d="M156.58,166.43,154,172.37a2.5,2.5,0,0,1-.74,1.06,1.64,1.64,0,0,1-1,.31,2.08,2.08,0,0,1-.71-.12,1.54,1.54,0,0,1-.57-.36l.33-.53a1.31,1.31,0,0,0,1,.4,1,1,0,0,0,.61-.2,1.79,1.79,0,0,0,.48-.69l.23-.51-2.35-5.29h.74l2,4.51,2-4.51h.7Z"/><path class="cls-7" d="M158.62,165.06a1.06,1.06,0,0,0-.24.75v.63H160v.6h-1.6v4.7h-.71V167h-.94v-.6h.94v-.66a1.56,1.56,0,0,1,.42-1.15,1.59,1.59,0,0,1,1.18-.42,1.9,1.9,0,0,1,.58.09,1.32,1.32,0,0,1,.47.25l-.24.53a1.2,1.2,0,0,0-.78-.26A.87.87,0,0,0,158.62,165.06Z"/><path class="cls-7" d="M164.29,166.91a2,2,0,0,1,.55,1.54v3.29h-.68v-.83a1.64,1.64,0,0,1-.7.65,2.53,2.53,0,0,1-1.11.23,2.16,2.16,0,0,1-1.4-.42,1.46,1.46,0,0,1,0-2.21,2.33,2.33,0,0,1,1.54-.41h1.67v-.32a1.37,1.37,0,0,0-.38-1,1.54,1.54,0,0,0-1.11-.36,2.85,2.85,0,0,0-1,.17,2.29,2.29,0,0,0-.79.46l-.32-.53a3,3,0,0,1,1-.53,3.84,3.84,0,0,1,1.18-.19A2.12,2.12,0,0,1,164.29,166.91Zm-.8,4a1.65,1.65,0,0,0,.64-.8v-.87h-1.65c-.9,0-1.35.32-1.35.95a.88.88,0,0,0,.35.73,1.57,1.57,0,0,0,1,.27A1.83,1.83,0,0,0,163.49,170.94Z"/><path class="cls-7" d="M166.76,165.12a.49.49,0,0,1-.15-.36.49.49,0,0,1,.15-.35.53.53,0,0,1,.74,0,.47.47,0,0,1,.15.35.51.51,0,0,1-.52.52A.55.55,0,0,1,166.76,165.12Zm0,1.31h.71v5.3h-.71Z"/><path class="cls-7" d="M170.88,166.66a2.53,2.53,0,0,1,1.22-.27v.7h-.17a1.68,1.68,0,0,0-1.3.51,2.06,2.06,0,0,0-.47,1.44v2.7h-.71v-5.3h.68v1A1.74,1.74,0,0,1,170.88,166.66Z"/><path class="cls-7" d="M173.83,170.84a.53.53,0,0,1,.15.39.82.82,0,0,1,0,.26,2,2,0,0,1-.11.32l-.42,1.39h-.48l.34-1.46a.49.49,0,0,1-.26-.19.52.52,0,0,1-.1-.33.56.56,0,0,1,.15-.39.53.53,0,0,1,.38-.16A.59.59,0,0,1,173.83,170.84Z"/><path class="cls-7" d="M178.25,164.67H179v6.41h3.92v.64h-4.66Z"/><path class="cls-7" d="M184.69,171.44a2.46,2.46,0,0,1-1-1,2.94,2.94,0,0,1,0-2.78,2.46,2.46,0,0,1,1-1,2.93,2.93,0,0,1,2.74,0,2.46,2.46,0,0,1,1,1,2.94,2.94,0,0,1,0,2.78,2.46,2.46,0,0,1-1,1,2.74,2.74,0,0,1-1.37.35A2.87,2.87,0,0,1,184.69,171.44Zm2.38-.55a1.68,1.68,0,0,0,.69-.73,2.46,2.46,0,0,0,0-2.16,1.8,1.8,0,0,0-.69-.73,2,2,0,0,0-1-.26,2,2,0,0,0-1,.26,1.76,1.76,0,0,0-.7.73,2.46,2.46,0,0,0,0,2.16,1.76,1.76,0,0,0,.7.73,2.07,2.07,0,0,0,2,0Z"/><path class="cls-7" d="M194.44,167a2.28,2.28,0,0,1,.58,1.69v3.08h-.71v-3a1.78,1.78,0,0,0-.41-1.26,1.52,1.52,0,0,0-1.17-.43,1.79,1.79,0,0,0-1.35.51,1.94,1.94,0,0,0-.49,1.41v2.78h-.71v-5.3h.68v1a2,2,0,0,1,.8-.75,2.53,2.53,0,0,1,1.2-.27A2.09,2.09,0,0,1,194.44,167Z"/><path class="cls-7" d="M201.77,164.25v7.48h-.68v-1a2.13,2.13,0,0,1-.84.82,2.45,2.45,0,0,1-1.18.28,2.64,2.64,0,0,1-1.34-.34,2.48,2.48,0,0,1-.94-1,3.05,3.05,0,0,1,0-2.8,2.39,2.39,0,0,1,.94-1,2.64,2.64,0,0,1,1.34-.34,2.41,2.41,0,0,1,1.15.27,2.34,2.34,0,0,1,.85.78v-3.19Zm-1.65,6.64a1.76,1.76,0,0,0,.7-.73,2.46,2.46,0,0,0,0-2.16,1.76,1.76,0,0,0-.7-.73,2,2,0,0,0-1-.26,2,2,0,0,0-1,.26,1.76,1.76,0,0,0-.7.73,2.46,2.46,0,0,0,0,2.16,1.76,1.76,0,0,0,.7.73,2.05,2.05,0,0,0,2,0Z"/><path class="cls-7" d="M204.53,171.44a2.46,2.46,0,0,1-1-1,2.94,2.94,0,0,1,0-2.78,2.46,2.46,0,0,1,1-1,2.93,2.93,0,0,1,2.74,0,2.37,2.37,0,0,1,.95,1,2.94,2.94,0,0,1,0,2.78,2.5,2.5,0,0,1-.95,1,2.74,2.74,0,0,1-1.37.35A2.87,2.87,0,0,1,204.53,171.44Zm2.38-.55a1.68,1.68,0,0,0,.69-.73,2.46,2.46,0,0,0,0-2.16,1.8,1.8,0,0,0-.69-.73,2,2,0,0,0-1-.26,2,2,0,0,0-1,.26,1.76,1.76,0,0,0-.7.73,2.46,2.46,0,0,0,0,2.16,1.76,1.76,0,0,0,.7.73,2.07,2.07,0,0,0,2,0Z"/><path class="cls-7" d="M214.28,167a2.28,2.28,0,0,1,.58,1.69v3.08h-.71v-3a1.78,1.78,0,0,0-.41-1.26,1.52,1.52,0,0,0-1.17-.43,1.79,1.79,0,0,0-1.35.51,1.94,1.94,0,0,0-.49,1.41v2.78H210v-5.3h.68v1a2,2,0,0,1,.8-.75,2.53,2.53,0,0,1,1.2-.27A2.09,2.09,0,0,1,214.28,167Z"/><path class="cls-7" d="M229.17,164.67l-2.36,7.06H226l-2.05-6-2.06,6h-.77l-2.36-7.06h.76l2,6.07,2.09-6.07h.69l2.06,6.1,2.05-6.1Z"/><path class="cls-7" d="M232.29,164.67v7.06h-.72v-6.41h-1.65v-.64Z"/><path class="cls-7" d="M234.22,171.53a2.06,2.06,0,0,1-.83-.75l.44-.5a1.75,1.75,0,0,0,1.51.87c.87,0,1.3-.52,1.3-1.55v-4.28h-2.56v-.64h3.29v4.89a2.35,2.35,0,0,1-.52,1.67,2,2,0,0,1-1.52.56A2.46,2.46,0,0,1,234.22,171.53Z"/><path class="cls-7" d="M246.53,164.67v.51l-2.93,6.54h-.78l2.88-6.41h-3.6v1.32h-.71v-2h5.14Z"/><path class="cls-7" d="M252.88,171.73l-1.6-2.27a5.12,5.12,0,0,1-.56,0h-1.88v2.24h-.74v-7.06h2.62a3.21,3.21,0,0,1,2.1.64,2.2,2.2,0,0,1,.76,1.78,2.36,2.36,0,0,1-.41,1.4,2.32,2.32,0,0,1-1.18.82l1.71,2.42Zm-.59-3.33a1.6,1.6,0,0,0,.55-1.3,1.62,1.62,0,0,0-.55-1.32,2.41,2.41,0,0,0-1.59-.46h-1.86v3.54h1.86A2.47,2.47,0,0,0,252.29,168.4Z"/><path class="cls-7" d="M260.8,168.69a1.73,1.73,0,0,1,.37,1.15,1.64,1.64,0,0,1-.66,1.4,3.27,3.27,0,0,1-2,.49h-3.22v-7.06h3a3,3,0,0,1,1.81.47,1.57,1.57,0,0,1,.65,1.34,1.64,1.64,0,0,1-1.08,1.6A1.89,1.89,0,0,1,260.8,168.69Zm-4.73-3.4v2.56h2.23a2.22,2.22,0,0,0,1.31-.33,1.21,1.21,0,0,0,0-1.9,2.22,2.22,0,0,0-1.31-.33ZM260,170.8a1.13,1.13,0,0,0,.48-1c0-.88-.63-1.32-1.9-1.32h-2.47v2.65h2.47A2.62,2.62,0,0,0,260,170.8Z"/><path class="cls-7" d="M263.2,170.84a.53.53,0,0,1,.15.39.82.82,0,0,1,0,.26,2,2,0,0,1-.11.32l-.42,1.39h-.48l.34-1.46a.49.49,0,0,1-.26-.19.52.52,0,0,1-.1-.33.56.56,0,0,1,.15-.39.53.53,0,0,1,.38-.16A.59.59,0,0,1,263.2,170.84Z"/><path class="cls-7" d="M268.33,171a3.15,3.15,0,0,1-.76-2.29v-4h.74v4a2.62,2.62,0,0,0,.55,1.83,2.06,2.06,0,0,0,1.59.61,2,2,0,0,0,1.6-.61,2.63,2.63,0,0,0,.55-1.83v-4h.72v4a3.21,3.21,0,0,1-.75,2.29,2.81,2.81,0,0,1-2.12.79A2.85,2.85,0,0,1,268.33,171Z"/><path class="cls-7" d="M279.65,167a2.28,2.28,0,0,1,.58,1.69v3.08h-.71v-3a1.78,1.78,0,0,0-.41-1.26,1.52,1.52,0,0,0-1.17-.43,1.79,1.79,0,0,0-1.35.51,1.94,1.94,0,0,0-.49,1.41v2.78h-.71v-5.3h.68v1a2,2,0,0,1,.8-.75,2.53,2.53,0,0,1,1.2-.27A2.09,2.09,0,0,1,279.65,167Z"/><path class="cls-7" d="M282.15,165.12a.49.49,0,0,1-.15-.36.49.49,0,0,1,.15-.35.53.53,0,0,1,.74,0,.47.47,0,0,1,.15.35.51.51,0,0,1-.52.52A.57.57,0,0,1,282.15,165.12Zm0,1.31h.71v5.3h-.71Z"/><path class="cls-7" d="M287.62,171.41a1.42,1.42,0,0,1-.5.28,2.12,2.12,0,0,1-.62.1,1.39,1.39,0,0,1-1.54-1.54V167H284v-.6H285v-1.16h.71v1.16h1.6v.6h-1.6v3.17a1,1,0,0,0,.24.72.91.91,0,0,0,.67.25,1.16,1.16,0,0,0,.42-.07,1,1,0,0,0,.36-.2Z"/><path class="cls-7" d="M293.3,169.3h-4.4a1.91,1.91,0,0,0,.63,1.34,2.08,2.08,0,0,0,1.44.51,2.19,2.19,0,0,0,.9-.18,2,2,0,0,0,.71-.52l.4.46a2.22,2.22,0,0,1-.87.64,2.92,2.92,0,0,1-1.16.22,2.88,2.88,0,0,1-1.43-.35,2.51,2.51,0,0,1-1-1,2.79,2.79,0,0,1-.35-1.39,2.88,2.88,0,0,1,.33-1.39,2.43,2.43,0,0,1,.92-1,2.54,2.54,0,0,1,1.31-.34,2.51,2.51,0,0,1,1.31.34,2.45,2.45,0,0,1,.91.95,2.9,2.9,0,0,1,.33,1.4Zm-3.81-1.81a1.92,1.92,0,0,0-.58,1.28h3.73a2,2,0,0,0-.58-1.28,1.77,1.77,0,0,0-1.29-.49A1.81,1.81,0,0,0,289.49,167.49Z"/><path class="cls-7" d="M299.56,164.25v7.48h-.68v-1a2.2,2.2,0,0,1-.84.82,2.46,2.46,0,0,1-1.19.28,2.64,2.64,0,0,1-1.34-.34,2.48,2.48,0,0,1-.94-1,3.05,3.05,0,0,1,0-2.8,2.39,2.39,0,0,1,.94-1,2.64,2.64,0,0,1,1.34-.34,2.48,2.48,0,0,1,1.16.27,2.24,2.24,0,0,1,.84.78v-3.19Zm-1.65,6.64a1.76,1.76,0,0,0,.7-.73,2.46,2.46,0,0,0,0-2.16,1.76,1.76,0,0,0-.7-.73,2,2,0,0,0-1-.26,2,2,0,0,0-1,.26,1.76,1.76,0,0,0-.7.73,2.46,2.46,0,0,0,0,2.16,1.76,1.76,0,0,0,.7.73,2,2,0,0,0,1,.26A2,2,0,0,0,297.91,170.89Z"/><path class="cls-7" d="M306.48,168.42l-1.43,1.46v1.86h-.74v-7.06h.74V169l4.11-4.27H310l-3,3.2,3.24,3.86h-.88Z"/><path class="cls-7" d="M311.16,165.12a.49.49,0,0,1-.15-.36.49.49,0,0,1,.15-.35.53.53,0,0,1,.74,0,.47.47,0,0,1,.15.35.51.51,0,0,1-.52.52A.55.55,0,0,1,311.16,165.12Zm0,1.31h.71v5.3h-.71Z"/><path class="cls-7" d="M318.12,167a2.28,2.28,0,0,1,.58,1.69v3.08H318v-3a1.78,1.78,0,0,0-.41-1.26,1.52,1.52,0,0,0-1.17-.43,1.79,1.79,0,0,0-1.35.51,1.94,1.94,0,0,0-.49,1.41v2.78h-.71v-5.3h.68v1a2,2,0,0,1,.8-.75,2.53,2.53,0,0,1,1.2-.27A2.11,2.11,0,0,1,318.12,167Z"/><path class="cls-7" d="M325.52,166.43v4.66a2.31,2.31,0,0,1-2.63,2.65,4.16,4.16,0,0,1-1.38-.22,2.77,2.77,0,0,1-1.07-.6l.36-.54a2.53,2.53,0,0,0,.92.53,3.38,3.38,0,0,0,1.15.19,1.68,1.68,0,0,0,1.94-1.93v-.68a2.2,2.2,0,0,1-.86.77,2.6,2.6,0,0,1-1.19.26,2.74,2.74,0,0,1-1.34-.33,2.4,2.4,0,0,1-.95-.92,2.59,2.59,0,0,1-.34-1.34,2.66,2.66,0,0,1,.34-1.33,2.38,2.38,0,0,1,.95-.91,2.86,2.86,0,0,1,1.35-.32,2.66,2.66,0,0,1,1.21.27,2.13,2.13,0,0,1,.87.79v-1h.67Zm-1.66,4.22a1.69,1.69,0,0,0,.71-.69,2,2,0,0,0,.25-1,1.93,1.93,0,0,0-.25-1,1.88,1.88,0,0,0-.71-.69,2.08,2.08,0,0,0-1-.25,2.2,2.2,0,0,0-1,.24,1.75,1.75,0,0,0-.71.69,2.17,2.17,0,0,0,0,2,1.75,1.75,0,0,0,.71.69,2.07,2.07,0,0,0,1,.25A2.22,2.22,0,0,0,323.86,170.65Z"/><path class="cls-7" d="M332.31,164.25v7.48h-.68v-1a2.2,2.2,0,0,1-.84.82,2.46,2.46,0,0,1-1.19.28,2.64,2.64,0,0,1-1.34-.34,2.48,2.48,0,0,1-.94-1,3.05,3.05,0,0,1,0-2.8,2.39,2.39,0,0,1,.94-1,2.64,2.64,0,0,1,1.34-.34,2.48,2.48,0,0,1,1.16.27,2.24,2.24,0,0,1,.84.78v-3.19Zm-1.66,6.64a1.76,1.76,0,0,0,.7-.73,2.46,2.46,0,0,0,0-2.16,1.76,1.76,0,0,0-.7-.73,2,2,0,0,0-1-.26,2,2,0,0,0-1,.26,1.76,1.76,0,0,0-.7.73,2.46,2.46,0,0,0,0,2.16,1.76,1.76,0,0,0,.7.73,2,2,0,0,0,1,.26A1.92,1.92,0,0,0,330.65,170.89Z"/><path class="cls-7" d="M335.07,171.44a2.46,2.46,0,0,1-1-1,2.94,2.94,0,0,1,0-2.78,2.46,2.46,0,0,1,1-1,2.93,2.93,0,0,1,2.74,0,2.44,2.44,0,0,1,.95,1,2.78,2.78,0,0,1,.34,1.39,2.89,2.89,0,0,1-.34,1.39,2.5,2.5,0,0,1-.95,1,2.74,2.74,0,0,1-1.37.35A2.84,2.84,0,0,1,335.07,171.44Zm2.37-.55a1.76,1.76,0,0,0,.7-.73,2.46,2.46,0,0,0,0-2.16,1.76,1.76,0,0,0-.7-.73,2,2,0,0,0-1-.26,2,2,0,0,0-1,.26,1.83,1.83,0,0,0-.7.73,2.46,2.46,0,0,0,0,2.16,1.76,1.76,0,0,0,.7.73,2,2,0,0,0,1,.26A2,2,0,0,0,337.44,170.89Z"/><path class="cls-7" d="M348.67,167a2.3,2.3,0,0,1,.56,1.69v3.08h-.71v-3a1.83,1.83,0,0,0-.39-1.26A1.42,1.42,0,0,0,347,167a1.66,1.66,0,0,0-1.29.51,2,2,0,0,0-.47,1.41v2.78h-.71v-3a1.78,1.78,0,0,0-.4-1.26A1.43,1.43,0,0,0,343,167a1.69,1.69,0,0,0-1.29.51,2,2,0,0,0-.47,1.41v2.78h-.71v-5.3h.68v1a2,2,0,0,1,.78-.75,2.5,2.5,0,0,1,1.15-.26,2.19,2.19,0,0,1,1.14.28,1.77,1.77,0,0,1,.73.84,2,2,0,0,1,.83-.82,2.53,2.53,0,0,1,1.24-.3A2.09,2.09,0,0,1,348.67,167Z"/></g><g class="cls-6"><path class="cls-7" d="M258.45,181.55l-2,5.3h-.67l-1.66-4.35-1.66,4.35h-.67l-2-5.3h.68l1.65,4.51,1.69-4.51h.61l1.68,4.51,1.67-4.51Z"/><path class="cls-7" d="M267.19,181.55l-2,5.3h-.67l-1.66-4.35-1.66,4.35h-.67l-2-5.3h.68l1.65,4.51,1.69-4.51h.61l1.68,4.51,1.67-4.51Z"/><path class="cls-7" d="M275.93,181.55l-2,5.3h-.67l-1.66-4.35L270,186.85h-.67l-2-5.3H268l1.65,4.51,1.69-4.51h.61l1.68,4.51,1.67-4.51Z"/><path class="cls-7" d="M276.35,186.75a.57.57,0,0,1-.16-.39.55.55,0,0,1,.53-.55.51.51,0,0,1,.38.16.56.56,0,0,1,0,.78.51.51,0,0,1-.38.16A.54.54,0,0,1,276.35,186.75Z"/><path class="cls-7" d="M283.21,184.43h-4.4a1.91,1.91,0,0,0,.63,1.34,2.08,2.08,0,0,0,1.44.51,2.19,2.19,0,0,0,.9-.18,2,2,0,0,0,.71-.52l.4.46a2.22,2.22,0,0,1-.87.64,2.92,2.92,0,0,1-1.16.22,2.88,2.88,0,0,1-1.43-.35,2.51,2.51,0,0,1-1-1,2.79,2.79,0,0,1-.35-1.39,2.88,2.88,0,0,1,.33-1.39,2.43,2.43,0,0,1,.92-1,2.54,2.54,0,0,1,1.31-.34,2.51,2.51,0,0,1,1.31.34,2.45,2.45,0,0,1,.91,1,2.9,2.9,0,0,1,.33,1.4Zm-3.82-1.81a1.92,1.92,0,0,0-.58,1.28h3.73a2,2,0,0,0-.58-1.28,1.93,1.93,0,0,0-2.57,0Z"/><path class="cls-7" d="M289,181.55l-2.63,5.94a2.5,2.5,0,0,1-.74,1.06,1.64,1.64,0,0,1-1,.31,2.08,2.08,0,0,1-.71-.12,1.54,1.54,0,0,1-.57-.36l.33-.53a1.31,1.31,0,0,0,1,.4,1,1,0,0,0,.62-.2,1.69,1.69,0,0,0,.47-.69l.23-.51-2.35-5.29h.74l2,4.51,2-4.51h.7Z"/><path class="cls-7" d="M294.42,184.43H290a1.91,1.91,0,0,0,.63,1.34,2.08,2.08,0,0,0,1.44.51,2.19,2.19,0,0,0,.9-.18,2,2,0,0,0,.71-.52l.4.46a2.22,2.22,0,0,1-.87.64,2.92,2.92,0,0,1-1.16.22,2.88,2.88,0,0,1-1.43-.35,2.51,2.51,0,0,1-1-1,2.79,2.79,0,0,1-.35-1.39,2.88,2.88,0,0,1,.33-1.39,2.43,2.43,0,0,1,.92-1,2.54,2.54,0,0,1,1.31-.34,2.51,2.51,0,0,1,1.31.34,2.45,2.45,0,0,1,.91,1,2.9,2.9,0,0,1,.33,1.4Zm-3.82-1.81a1.92,1.92,0,0,0-.58,1.28h3.73a2,2,0,0,0-.58-1.28,1.93,1.93,0,0,0-2.57,0Z"/><path class="cls-7" d="M296.66,186.56a2.46,2.46,0,0,1-1-1,2.94,2.94,0,0,1,0-2.78,2.46,2.46,0,0,1,1-1,2.93,2.93,0,0,1,2.74,0,2.44,2.44,0,0,1,1,1,2.78,2.78,0,0,1,.34,1.39,2.89,2.89,0,0,1-.34,1.39,2.5,2.5,0,0,1-1,1,2.86,2.86,0,0,1-2.74,0ZM299,186a1.76,1.76,0,0,0,.7-.73,2.46,2.46,0,0,0,0-2.16,1.76,1.76,0,0,0-.7-.73,2,2,0,0,0-1-.26,2,2,0,0,0-1,.26,1.83,1.83,0,0,0-.7.73,2.46,2.46,0,0,0,0,2.16,1.76,1.76,0,0,0,.7.73,2.05,2.05,0,0,0,2,0Z"/><path class="cls-7" d="M306.19,181.85a2.45,2.45,0,0,1,.94,1,3.07,3.07,0,0,1,0,2.81,2.39,2.39,0,0,1-.94.95,2.62,2.62,0,0,1-1.34.34,2.48,2.48,0,0,1-1.16-.27,2.24,2.24,0,0,1-.84-.78v3h-.71v-7.26h.68v1a2.2,2.2,0,0,1,.85-.81,2.42,2.42,0,0,1,1.18-.28A2.69,2.69,0,0,1,306.19,181.85ZM305.8,186a1.78,1.78,0,0,0,.71-.73,2.26,2.26,0,0,0,.25-1.08,2.2,2.2,0,0,0-.25-1.07,1.85,1.85,0,0,0-.71-.73,2,2,0,0,0-1-.26,2,2,0,0,0-1,.26,1.89,1.89,0,0,0-.7.73,2.2,2.2,0,0,0-.25,1.07,2.26,2.26,0,0,0,.25,1.08,1.76,1.76,0,0,0,.7.73,2,2,0,0,0,1,.26A2.07,2.07,0,0,0,305.8,186Z"/><path class="cls-7" d="M311.69,186.53a1.42,1.42,0,0,1-.5.28,2.12,2.12,0,0,1-.62.1,1.39,1.39,0,0,1-1.54-1.54v-3.21h-.94v-.6H309V180.4h.71v1.16h1.6v.6h-1.6v3.17a1,1,0,0,0,.24.72.91.91,0,0,0,.67.25,1.16,1.16,0,0,0,.42-.07,1,1,0,0,0,.36-.2Z"/><path class="cls-7" d="M313,180.24a.49.49,0,0,1-.15-.36.49.49,0,0,1,.15-.35.53.53,0,0,1,.74,0,.47.47,0,0,1,.15.35.51.51,0,0,1-.52.52A.57.57,0,0,1,313,180.24Zm0,1.31h.71v5.3H313Z"/><path class="cls-7" d="M316.46,186.57a2.46,2.46,0,0,1-1-1,2.82,2.82,0,0,1-.35-1.4,2.79,2.79,0,0,1,.35-1.39,2.53,2.53,0,0,1,1-1,2.79,2.79,0,0,1,1.4-.34,2.63,2.63,0,0,1,1.21.27,2,2,0,0,1,.84.78l-.53.36a1.63,1.63,0,0,0-.66-.59,2,2,0,0,0-.87-.2,2.1,2.1,0,0,0-1,.26,1.78,1.78,0,0,0-.71.73,2.26,2.26,0,0,0-.25,1.08,2.21,2.21,0,0,0,.25,1.08,1.91,1.91,0,0,0,.71.73,2.07,2.07,0,0,0,1,.26,2,2,0,0,0,.87-.19,1.6,1.6,0,0,0,.66-.58l.53.36a2.06,2.06,0,0,1-.85.78,2.66,2.66,0,0,1-1.21.27A3,3,0,0,1,316.46,186.57Z"/><path class="cls-7" d="M321.49,186.72a2.42,2.42,0,0,1-.91-.47l.32-.57a2.6,2.6,0,0,0,.83.43,3.29,3.29,0,0,0,1,.17,1.87,1.87,0,0,0,1.06-.23.71.71,0,0,0,.34-.64A.58.58,0,0,0,324,185a1.37,1.37,0,0,0-.48-.25,7.29,7.29,0,0,0-.77-.17,7.43,7.43,0,0,1-1-.25,1.46,1.46,0,0,1-.66-.43,1.21,1.21,0,0,1-.27-.84,1.31,1.31,0,0,1,.55-1.09,2.48,2.48,0,0,1,1.53-.42,4,4,0,0,1,1,.14,2.72,2.72,0,0,1,.84.36l-.31.57a2.65,2.65,0,0,0-1.55-.45,1.79,1.79,0,0,0-1,.24.73.73,0,0,0-.34.64.62.62,0,0,0,.19.48,1.22,1.22,0,0,0,.49.27,6.69,6.69,0,0,0,.8.18,9,9,0,0,1,1,.24,1.53,1.53,0,0,1,.65.41,1.13,1.13,0,0,1,.27.81,1.28,1.28,0,0,1-.57,1.1,2.72,2.72,0,0,1-1.6.41A3.62,3.62,0,0,1,321.49,186.72Z"/><path class="cls-7" d="M325.89,186.75a.57.57,0,0,1-.16-.39.55.55,0,0,1,.53-.55.51.51,0,0,1,.38.16.51.51,0,0,1,.16.39.5.5,0,0,1-.16.39.51.51,0,0,1-.38.16A.52.52,0,0,1,325.89,186.75Z"/><path class="cls-7" d="M329,186.57a2.46,2.46,0,0,1-1-1,2.82,2.82,0,0,1-.35-1.4,2.79,2.79,0,0,1,.35-1.39,2.46,2.46,0,0,1,1-1,2.78,2.78,0,0,1,1.39-.34,2.63,2.63,0,0,1,1.21.27,2.06,2.06,0,0,1,.85.78l-.53.36a1.63,1.63,0,0,0-.66-.59,2,2,0,0,0-.87-.2,2,2,0,0,0-1,.26,1.78,1.78,0,0,0-.71.73,2.26,2.26,0,0,0-.25,1.08,2.21,2.21,0,0,0,.25,1.08,1.91,1.91,0,0,0,.71.73,2,2,0,0,0,1,.26,2,2,0,0,0,.87-.19,1.6,1.6,0,0,0,.66-.58l.53.36a2.06,2.06,0,0,1-.85.78,2.66,2.66,0,0,1-1.21.27A3,3,0,0,1,329,186.57Z"/><path class="cls-7" d="M334.48,186.56a2.46,2.46,0,0,1-1-1,2.94,2.94,0,0,1,0-2.78,2.46,2.46,0,0,1,1-1,2.93,2.93,0,0,1,2.74,0,2.37,2.37,0,0,1,.95,1,2.94,2.94,0,0,1,0,2.78,2.5,2.5,0,0,1-.95,1,2.86,2.86,0,0,1-2.74,0Zm2.38-.54a1.68,1.68,0,0,0,.69-.73,2.46,2.46,0,0,0,0-2.16,1.8,1.8,0,0,0-.69-.73,2,2,0,0,0-1-.26,2,2,0,0,0-1,.26,1.76,1.76,0,0,0-.7.73,2.46,2.46,0,0,0,0,2.16,1.76,1.76,0,0,0,.7.73,2,2,0,0,0,1,.26A2.13,2.13,0,0,0,336.86,186Z"/><path class="cls-7" d="M348.09,182.09a2.3,2.3,0,0,1,.57,1.69v3.08H348v-3a1.78,1.78,0,0,0-.4-1.26,1.41,1.41,0,0,0-1.11-.43,1.66,1.66,0,0,0-1.29.51,2,2,0,0,0-.47,1.41v2.78H344v-3a1.83,1.83,0,0,0-.39-1.26,1.43,1.43,0,0,0-1.12-.43,1.69,1.69,0,0,0-1.29.51,2,2,0,0,0-.47,1.41v2.78H340v-5.3h.68v1a2,2,0,0,1,.78-.75,2.5,2.5,0,0,1,1.15-.26,2.25,2.25,0,0,1,1.15.28,1.75,1.75,0,0,1,.72.84,2,2,0,0,1,.83-.82,2.53,2.53,0,0,1,1.24-.3A2,2,0,0,1,348.09,182.09Z"/></g><g class="cls-6"><path class="cls-7" d="M244.72,199.55h-4.4a1.91,1.91,0,0,0,.63,1.34,2.08,2.08,0,0,0,1.44.51,2.19,2.19,0,0,0,.9-.18,2,2,0,0,0,.71-.52l.4.46a2.27,2.27,0,0,1-.87.65,2.88,2.88,0,0,1-1.15.22,3,3,0,0,1-1.44-.35,2.42,2.42,0,0,1-1-1,2.79,2.79,0,0,1-.35-1.39,2.88,2.88,0,0,1,.33-1.39,2.43,2.43,0,0,1,.92-1,2.55,2.55,0,0,1,1.32-.34,2.51,2.51,0,0,1,1.31.34,2.45,2.45,0,0,1,.91,1,2.9,2.9,0,0,1,.33,1.4Zm-3.81-1.81a1.92,1.92,0,0,0-.58,1.28h3.73a2,2,0,0,0-.58-1.28,1.93,1.93,0,0,0-2.57,0Z"/><path class="cls-7" d="M250.5,196.68l-2.63,5.94a2.5,2.5,0,0,1-.74,1.06,1.64,1.64,0,0,1-1,.31,2.08,2.08,0,0,1-.71-.12,1.54,1.54,0,0,1-.57-.36l.33-.53a1.31,1.31,0,0,0,1,.4,1,1,0,0,0,.61-.2,1.79,1.79,0,0,0,.48-.69l.23-.51-2.35-5.29h.74l2,4.51,2-4.51h.7Z"/><path class="cls-7" d="M255.93,199.55h-4.4a1.91,1.91,0,0,0,.63,1.34,2.08,2.08,0,0,0,1.44.51,2.19,2.19,0,0,0,.9-.18,2,2,0,0,0,.71-.52l.4.46a2.27,2.27,0,0,1-.87.65,2.88,2.88,0,0,1-1.15.22,3,3,0,0,1-1.44-.35,2.42,2.42,0,0,1-1-1,2.79,2.79,0,0,1-.35-1.39,2.88,2.88,0,0,1,.33-1.39,2.43,2.43,0,0,1,.92-1,2.55,2.55,0,0,1,1.32-.34,2.51,2.51,0,0,1,1.31.34,2.45,2.45,0,0,1,.91,1,2.9,2.9,0,0,1,.33,1.4Zm-3.82-1.81a1.92,1.92,0,0,0-.58,1.28h3.73a2,2,0,0,0-.58-1.28,1.77,1.77,0,0,0-1.29-.49A1.82,1.82,0,0,0,252.11,197.74Z"/><path class="cls-7" d="M258.17,201.69a2.46,2.46,0,0,1-1-1,2.94,2.94,0,0,1,0-2.78,2.46,2.46,0,0,1,1-1,2.93,2.93,0,0,1,2.74,0,2.37,2.37,0,0,1,.95,1,2.94,2.94,0,0,1,0,2.78,2.5,2.5,0,0,1-.95,1,2.74,2.74,0,0,1-1.37.35A2.84,2.84,0,0,1,258.17,201.69Zm2.37-.55a1.68,1.68,0,0,0,.69-.73,2.46,2.46,0,0,0,0-2.16,1.8,1.8,0,0,0-.69-.73,2,2,0,0,0-1-.26,2,2,0,0,0-1,.26,1.76,1.76,0,0,0-.7.73,2.46,2.46,0,0,0,0,2.16,1.76,1.76,0,0,0,.7.73,2,2,0,0,0,1,.26A2,2,0,0,0,260.54,201.14Z"/><path class="cls-7" d="M267.71,197a2.45,2.45,0,0,1,.94,1,3.07,3.07,0,0,1,0,2.81,2.39,2.39,0,0,1-.94.95,2.62,2.62,0,0,1-1.34.34,2.48,2.48,0,0,1-1.16-.27,2.24,2.24,0,0,1-.84-.78v3h-.71v-7.26h.68v1a2.2,2.2,0,0,1,.85-.81,2.42,2.42,0,0,1,1.18-.28A2.64,2.64,0,0,1,267.71,197Zm-.39,4.16a1.78,1.78,0,0,0,.71-.73,2.26,2.26,0,0,0,.25-1.08,2.2,2.2,0,0,0-.25-1.07,1.85,1.85,0,0,0-.71-.73,2,2,0,0,0-1-.26,2,2,0,0,0-1,.26,1.89,1.89,0,0,0-.7.73,2.2,2.2,0,0,0-.25,1.07,2.26,2.26,0,0,0,.25,1.08,1.76,1.76,0,0,0,.7.73,2,2,0,0,0,1,.26A2,2,0,0,0,267.32,201.14Z"/><path class="cls-7" d="M273.21,201.66a1.46,1.46,0,0,1-.49.28,2.12,2.12,0,0,1-.62.1,1.39,1.39,0,0,1-1.54-1.54v-3.21h-.94v-.6h.94v-1.16h.71v1.16h1.6v.6h-1.6v3.17a1,1,0,0,0,.24.72.91.91,0,0,0,.67.25,1.16,1.16,0,0,0,.42-.07,1,1,0,0,0,.35-.2Z"/><path class="cls-7" d="M274.49,195.37a.49.49,0,0,1-.15-.36.49.49,0,0,1,.15-.35.53.53,0,0,1,.74,0,.47.47,0,0,1,.15.35.51.51,0,0,1-.52.52A.55.55,0,0,1,274.49,195.37Zm0,1.31h.71V202h-.71Z"/><path class="cls-7" d="M278,201.69a2.46,2.46,0,0,1-1-1,2.82,2.82,0,0,1-.35-1.4,2.79,2.79,0,0,1,.35-1.39,2.46,2.46,0,0,1,1-1,2.78,2.78,0,0,1,1.39-.34,2.63,2.63,0,0,1,1.21.27,2.06,2.06,0,0,1,.85.78l-.53.36a1.63,1.63,0,0,0-.66-.59,2,2,0,0,0-.87-.2,2,2,0,0,0-1,.26,1.78,1.78,0,0,0-.71.73,2.26,2.26,0,0,0-.25,1.08,2.21,2.21,0,0,0,.25,1.08,1.91,1.91,0,0,0,.71.73,2,2,0,0,0,1,.26,2,2,0,0,0,.87-.19,1.6,1.6,0,0,0,.66-.58l.53.36a2.06,2.06,0,0,1-.85.78,2.66,2.66,0,0,1-1.21.27A2.92,2.92,0,0,1,278,201.69Z"/><path class="cls-7" d="M283,201.85a2.5,2.5,0,0,1-.91-.47l.32-.57a2.6,2.6,0,0,0,.83.43,3.29,3.29,0,0,0,1,.17,1.93,1.93,0,0,0,1.07-.23.71.71,0,0,0,.34-.64.58.58,0,0,0-.19-.46,1.37,1.37,0,0,0-.48-.25,7.29,7.29,0,0,0-.77-.17,7.43,7.43,0,0,1-1-.25,1.46,1.46,0,0,1-.66-.43,1.21,1.21,0,0,1-.28-.84,1.31,1.31,0,0,1,.55-1.09,2.48,2.48,0,0,1,1.53-.42,4,4,0,0,1,1,.14,2.72,2.72,0,0,1,.84.36l-.31.57a2.65,2.65,0,0,0-1.55-.45,1.85,1.85,0,0,0-1,.24.73.73,0,0,0-.34.64.63.63,0,0,0,.2.48,1.25,1.25,0,0,0,.48.27,6.69,6.69,0,0,0,.8.18,9,9,0,0,1,1,.24,1.53,1.53,0,0,1,.65.41,1.13,1.13,0,0,1,.27.81,1.27,1.27,0,0,1-.58,1.1,2.71,2.71,0,0,1-1.59.41A4.16,4.16,0,0,1,283,201.85Z"/><path class="cls-7" d="M294.3,195.42A4.16,4.16,0,0,1,296,197a4.56,4.56,0,0,1,.59,2.31,3.88,3.88,0,0,1-.44,2,1.36,1.36,0,0,1-1.22.72,1.1,1.1,0,0,1-.79-.29,1.12,1.12,0,0,1-.33-.81,2.06,2.06,0,0,1-.82.81,2.43,2.43,0,0,1-1.18.29,2.33,2.33,0,0,1-1.26-.34,2.41,2.41,0,0,1-.89-.93,2.89,2.89,0,0,1,0-2.68,2.39,2.39,0,0,1,.89-.92,2.47,2.47,0,0,1,1.26-.33,2.37,2.37,0,0,1,1.16.28,2.19,2.19,0,0,1,.82.78v-1h.65v3.82a.84.84,0,0,0,.17.58.58.58,0,0,0,.45.18.85.85,0,0,0,.75-.57,3.72,3.72,0,0,0,.27-1.57,4,4,0,0,0-.52-2.06,3.59,3.59,0,0,0-1.45-1.39,4.83,4.83,0,0,0-4.28,0,3.63,3.63,0,0,0-1.45,1.43,4.56,4.56,0,0,0,0,4.21,3.57,3.57,0,0,0,1.44,1.44,4.35,4.35,0,0,0,2.12.51,4.9,4.9,0,0,0,1-.11,3.86,3.86,0,0,0,.94-.33l.17.49a4,4,0,0,1-1,.34,5.27,5.27,0,0,1-1.09.12,4.86,4.86,0,0,1-2.41-.58,4.12,4.12,0,0,1-1.63-1.63,4.74,4.74,0,0,1-.58-2.36,4.67,4.67,0,0,1,.59-2.36,4.09,4.09,0,0,1,1.66-1.61,5,5,0,0,1,2.42-.58A5.14,5.14,0,0,1,294.3,195.42Zm-1.49,5.78a1.79,1.79,0,0,0,.68-.71,2.16,2.16,0,0,0,.25-1.06,2.09,2.09,0,0,0-.25-1.05,1.79,1.79,0,0,0-.68-.71,2,2,0,0,0-1-.25,1.92,1.92,0,0,0-1,.25,1.72,1.72,0,0,0-.68.71,2.2,2.2,0,0,0-.25,1.05,2.09,2.09,0,0,0,.25,1,1.81,1.81,0,0,0,.68.72,1.92,1.92,0,0,0,1,.26A2.09,2.09,0,0,0,292.81,201.2Z"/><path class="cls-7" d="M302.9,196.68v4.66a2.32,2.32,0,0,1-2.63,2.65,4.16,4.16,0,0,1-1.38-.22,2.77,2.77,0,0,1-1.07-.6l.36-.54a2.53,2.53,0,0,0,.92.53,3.37,3.37,0,0,0,1.14.19,1.68,1.68,0,0,0,1.94-1.93v-.68a2.16,2.16,0,0,1-.87.77,2.58,2.58,0,0,1-1.18.26,2.81,2.81,0,0,1-1.35-.33,2.4,2.4,0,0,1-.95-.92,2.6,2.6,0,0,1-.35-1.34,2.56,2.56,0,0,1,.35-1.33,2.42,2.42,0,0,1,.94-.91,2.86,2.86,0,0,1,1.35-.32,2.66,2.66,0,0,1,1.21.27,2.13,2.13,0,0,1,.87.79v-1h.7Zm-1.66,4.22a1.69,1.69,0,0,0,.71-.69,2,2,0,0,0,.25-1,1.93,1.93,0,0,0-.25-1,1.88,1.88,0,0,0-.71-.69,2.08,2.08,0,0,0-1-.25,2.13,2.13,0,0,0-1,.24,1.75,1.75,0,0,0-.71.69,2.17,2.17,0,0,0,0,2,1.75,1.75,0,0,0,.71.69,2,2,0,0,0,1,.25A2.22,2.22,0,0,0,301.24,200.9Z"/><path class="cls-7" d="M313,197.21a2.3,2.3,0,0,1,.57,1.69V202h-.71v-3a1.78,1.78,0,0,0-.4-1.26,1.41,1.41,0,0,0-1.11-.43,1.66,1.66,0,0,0-1.29.51,2,2,0,0,0-.47,1.41V202h-.71v-3a1.83,1.83,0,0,0-.39-1.26,1.43,1.43,0,0,0-1.12-.43,1.69,1.69,0,0,0-1.29.51,2,2,0,0,0-.47,1.41V202h-.71v-5.3h.68v1a2,2,0,0,1,.78-.75,2.5,2.5,0,0,1,1.15-.26,2.25,2.25,0,0,1,1.15.28,1.75,1.75,0,0,1,.72.84,2,2,0,0,1,.83-.82,2.54,2.54,0,0,1,1.25-.3A2.09,2.09,0,0,1,313,197.21Z"/><path class="cls-7" d="M318.92,197.16a2,2,0,0,1,.55,1.54V202h-.68v-.83a1.66,1.66,0,0,1-.71.65,2.38,2.38,0,0,1-1.1.23,2.16,2.16,0,0,1-1.4-.42,1.46,1.46,0,0,1,0-2.21,2.34,2.34,0,0,1,1.54-.41h1.67v-.32a1.37,1.37,0,0,0-.38-1,1.54,1.54,0,0,0-1.11-.36,2.85,2.85,0,0,0-1,.17,2.29,2.29,0,0,0-.79.46l-.32-.53a3,3,0,0,1,1-.53,3.84,3.84,0,0,1,1.18-.19A2.09,2.09,0,0,1,318.92,197.16Zm-.8,4a1.65,1.65,0,0,0,.64-.8v-.87h-1.65c-.9,0-1.35.32-1.35.95a.88.88,0,0,0,.35.73,1.57,1.57,0,0,0,1,.27A1.8,1.8,0,0,0,318.12,201.19Z"/><path class="cls-7" d="M321.39,195.37a.49.49,0,0,1-.15-.36.49.49,0,0,1,.15-.35.53.53,0,0,1,.74,0,.47.47,0,0,1,.15.35.51.51,0,0,1-.52.52A.57.57,0,0,1,321.39,195.37Zm0,1.31h.71V202h-.71Z"/><path class="cls-7" d="M324.09,194.5h.71V202h-.71Z"/><path class="cls-7" d="M326.48,201.87a.57.57,0,0,1-.16-.39.55.55,0,0,1,.53-.55.51.51,0,0,1,.38.16.56.56,0,0,1,0,.78.51.51,0,0,1-.38.16A.49.49,0,0,1,326.48,201.87Z"/><path class="cls-7" d="M329.54,201.69a2.46,2.46,0,0,1-1-1,2.82,2.82,0,0,1-.35-1.4,2.79,2.79,0,0,1,.35-1.39,2.46,2.46,0,0,1,1-1,2.78,2.78,0,0,1,1.39-.34,2.63,2.63,0,0,1,1.21.27,2.06,2.06,0,0,1,.85.78l-.53.36a1.63,1.63,0,0,0-.66-.59,2,2,0,0,0-.87-.2,2,2,0,0,0-1,.26,1.78,1.78,0,0,0-.71.73,2.26,2.26,0,0,0-.25,1.08,2.21,2.21,0,0,0,.25,1.08,1.91,1.91,0,0,0,.71.73,2,2,0,0,0,1,.26,2,2,0,0,0,.87-.19,1.6,1.6,0,0,0,.66-.58l.53.36a2.06,2.06,0,0,1-.85.78,2.66,2.66,0,0,1-1.21.27A2.89,2.89,0,0,1,329.54,201.69Z"/><path class="cls-7" d="M335.07,201.69a2.46,2.46,0,0,1-1-1,2.94,2.94,0,0,1,0-2.78,2.46,2.46,0,0,1,1-1,2.93,2.93,0,0,1,2.74,0,2.37,2.37,0,0,1,.95,1,2.94,2.94,0,0,1,0,2.78,2.5,2.5,0,0,1-.95,1,2.74,2.74,0,0,1-1.37.35A2.84,2.84,0,0,1,335.07,201.69Zm2.38-.55a1.68,1.68,0,0,0,.69-.73,2.46,2.46,0,0,0,0-2.16,1.8,1.8,0,0,0-.69-.73,2,2,0,0,0-1-.26,2,2,0,0,0-1,.26,1.76,1.76,0,0,0-.7.73,2.46,2.46,0,0,0,0,2.16,1.76,1.76,0,0,0,.7.73,2.07,2.07,0,0,0,2,0Z"/><path class="cls-7" d="M348.67,197.21a2.3,2.3,0,0,1,.56,1.69V202h-.71v-3a1.83,1.83,0,0,0-.39-1.26,1.42,1.42,0,0,0-1.12-.43,1.66,1.66,0,0,0-1.29.51,2,2,0,0,0-.47,1.41V202h-.71v-3a1.78,1.78,0,0,0-.4-1.26,1.43,1.43,0,0,0-1.12-.43,1.69,1.69,0,0,0-1.29.51,2,2,0,0,0-.47,1.41V202h-.71v-5.3h.68v1a2,2,0,0,1,.78-.75,2.5,2.5,0,0,1,1.15-.26,2.19,2.19,0,0,1,1.14.28,1.77,1.77,0,0,1,.73.84,2,2,0,0,1,.83-.82,2.53,2.53,0,0,1,1.24-.3A2.09,2.09,0,0,1,348.67,197.21Z"/></g><g class="cls-6"><path class="cls-7" d="M18.37,69.83v-.41q1.71-2.07,4.66-6a3.4,3.4,0,0,0,.92-2,1.56,1.56,0,0,0-.5-1.15A2,2,0,0,0,22,59.79a2.76,2.76,0,0,0-2,1.06.3.3,0,0,1-.49,0L18.67,60a.3.3,0,0,1,0-.47l.16-.19a5.23,5.23,0,0,1,.47-.42,6.46,6.46,0,0,1,.75-.54,4.62,4.62,0,0,1,2.17-.61,4,4,0,0,1,2.93,1,3.38,3.38,0,0,1,1.08,2.56A3.31,3.31,0,0,1,26,62.43a4.12,4.12,0,0,1-.39.86c-.14.23-.35.55-.64,1s-1.39,1.84-3.1,4h3.89a.3.3,0,0,1,.24.1.33.33,0,0,1,.1.24v1.24a.32.32,0,0,1-.1.23.34.34,0,0,1-.24.11H18.7a.3.3,0,0,1-.24-.1A.42.42,0,0,1,18.37,69.83Z"/><path class="cls-7" d="M27.79,68.75a.32.32,0,0,1,0-.45l.92-.88a.32.32,0,0,1,.47,0,2.85,2.85,0,0,0,.34.29,4.43,4.43,0,0,0,.84.45,2.58,2.58,0,0,0,1,.23,2,2,0,0,0,1.33-.49,1.53,1.53,0,0,0,.58-1.21,1.57,1.57,0,0,0-.66-1.26,2.87,2.87,0,0,0-1.83-.52h-1c-.23,0-.34-.12-.34-.36V63.42c0-.24.11-.36.34-.36h1a2.59,2.59,0,0,0,1.65-.47,1.45,1.45,0,0,0,.58-1.19,1.52,1.52,0,0,0-.52-1.19,1.79,1.79,0,0,0-1.22-.47,2.32,2.32,0,0,0-1.82.86.31.31,0,0,1-.49,0l-.88-.83c-.17-.14-.17-.3,0-.47l.16-.17c.07-.07.22-.19.45-.38a4.73,4.73,0,0,1,.71-.49,5.07,5.07,0,0,1,.94-.38,3.67,3.67,0,0,1,1.12-.17,4.15,4.15,0,0,1,2.73.91A2.93,2.93,0,0,1,35.36,61a2.75,2.75,0,0,1-.58,1.72,3.42,3.42,0,0,1-1.28,1.09v.05A4.1,4.1,0,0,1,35,65a2.67,2.67,0,0,1,.68,1.84,3.19,3.19,0,0,1-1.14,2.52,4.41,4.41,0,0,1-3,1A4.56,4.56,0,0,1,27.79,68.75Z"/><path class="cls-7" d="M37.17,67.56a.3.3,0,0,1-.24-.1.33.33,0,0,1-.1-.24V65.73l6.48-7.88a.37.37,0,0,1,.27-.11h1a.3.3,0,0,1,.24.1.37.37,0,0,1,.1.24v7.67h1.44a.32.32,0,0,1,.24.09.29.29,0,0,1,.1.23v1.12a.3.3,0,0,1-.1.24.33.33,0,0,1-.24.1H44.89l0,2.3a.32.32,0,0,1-.1.23.34.34,0,0,1-.24.11H43.08a.38.38,0,0,1-.34-.34V67.56Zm2-1.87h3.6V61.37Z"/><path class="cls-7" d="M47.91,67.56a.3.3,0,0,1-.24-.1.33.33,0,0,1-.1-.24V65.73l6.48-7.88a.37.37,0,0,1,.27-.11h1a.3.3,0,0,1,.24.1.37.37,0,0,1,.1.24v7.67h1.44a.32.32,0,0,1,.24.09.29.29,0,0,1,.1.23v1.12a.3.3,0,0,1-.1.24.33.33,0,0,1-.24.1H55.63l0,2.3a.32.32,0,0,1-.1.23.34.34,0,0,1-.24.11H53.82a.38.38,0,0,1-.34-.34V67.56Zm2-1.87h3.6V61.37Z"/><path class="cls-7" d="M62.85,66.9a2.65,2.65,0,0,1,.76-1.84A5.22,5.22,0,0,1,65,63.9v0a4.13,4.13,0,0,1-1.28-1.11,2.68,2.68,0,0,1-.58-1.68,2.9,2.9,0,0,1,1.12-2.38,4.24,4.24,0,0,1,2.79-.91,4.36,4.36,0,0,1,2.84.91A2.9,2.9,0,0,1,71,61.06a2.58,2.58,0,0,1-.57,1.64,4.42,4.42,0,0,1-1.29,1.13v.07a4.9,4.9,0,0,1,1.49,1.2,2.63,2.63,0,0,1,.68,1.81,3.09,3.09,0,0,1-1.18,2.48,4.76,4.76,0,0,1-3.12,1,4.62,4.62,0,0,1-3.07-1A3.12,3.12,0,0,1,62.85,66.9Zm2.4,0a1.49,1.49,0,0,0,.56,1.19,2,2,0,0,0,1.31.47,2,2,0,0,0,1.32-.47A1.48,1.48,0,0,0,69,66.86a1.71,1.71,0,0,0-.5-1.17A2.61,2.61,0,0,0,67.12,65a2.61,2.61,0,0,0-1.37.74A1.66,1.66,0,0,0,65.25,66.86Zm1.87-4a2.2,2.2,0,0,0,1.22-.64,1.53,1.53,0,0,0,.41-1.07,1.41,1.41,0,0,0-.49-1.09,1.72,1.72,0,0,0-1.19-.44,1.6,1.6,0,0,0-1.12.44,1.42,1.42,0,0,0-.48,1.09Q65.49,62.44,67.12,62.85Z"/><path class="cls-7" d="M73.17,69.83v-.2l4.68-9.76H73.1a.38.38,0,0,1-.34-.34V58.27a.38.38,0,0,1,.34-.34h7.49a.38.38,0,0,1,.34.34v.13L75.57,69.69a.68.68,0,0,1-.61.49H73.63C73.31,70.17,73.17,70.06,73.17,69.83Z"/><path class="cls-7" d="M81.7,65.39a7.67,7.67,0,0,1,.49-2.78,7.14,7.14,0,0,1,1.17-2.11A9.67,9.67,0,0,1,84.93,59a9.26,9.26,0,0,1,1.53-1,11.8,11.8,0,0,1,1.23-.5c.26-.07.43,0,.5.25l.41,1.06c.11.25,0,.43-.32.52a5.81,5.81,0,0,0-.92.39,13.11,13.11,0,0,0-1.16.68A5.26,5.26,0,0,0,85,61.5a3.75,3.75,0,0,0-.72,1.32,4,4,0,0,1,2.05-.5,3.62,3.62,0,0,1,2.56,1A3.74,3.74,0,0,1,90,66.22a4,4,0,0,1-1.21,2.91A3.89,3.89,0,0,1,86,70.34a3.79,3.79,0,0,1-3.16-1.42A5.54,5.54,0,0,1,81.7,65.39ZM86,68.3a2,2,0,0,0,1.45-.62A2.05,2.05,0,0,0,88,66.2a2.08,2.08,0,0,0-.6-1.49,2.09,2.09,0,0,0-2.83-.13,2.29,2.29,0,0,0-.73,1.08,3.19,3.19,0,0,0,.55,1.84A1.78,1.78,0,0,0,86,68.3Z"/><path class="cls-7" d="M99.61,68.69a4.2,4.2,0,0,1-6.7,0,7.87,7.87,0,0,1-1.19-4.63,7.87,7.87,0,0,1,1.19-4.63,4.2,4.2,0,0,1,6.7,0,7.91,7.91,0,0,1,1.19,4.63A8,8,0,0,1,99.61,68.69Zm-5-1.54a1.74,1.74,0,0,0,3.22,0,6.77,6.77,0,0,0,.57-3.1A6.81,6.81,0,0,0,97.87,61a1.73,1.73,0,0,0-3.22,0,6.78,6.78,0,0,0-.57,3.09A6.77,6.77,0,0,0,94.65,67.15Z"/><path class="cls-7" d="M106.82,69.83v-.2l4.68-9.76h-4.75a.38.38,0,0,1-.34-.34V58.27a.38.38,0,0,1,.34-.34h7.49a.38.38,0,0,1,.34.34v.13l-5.36,11.29a.68.68,0,0,1-.61.49h-1.33C107,70.17,106.82,70.06,106.82,69.83Z"/><path class="cls-7" d="M116.6,69.15c-.11-.25,0-.43.32-.52a5.81,5.81,0,0,0,.92-.39,13.11,13.11,0,0,0,1.16-.68,5.26,5.26,0,0,0,1.16-1.06,3.75,3.75,0,0,0,.72-1.32,4,4,0,0,1-2,.5,3.62,3.62,0,0,1-2.56-1,3.74,3.74,0,0,1-1.11-2.86,4,4,0,0,1,1.21-2.91,3.89,3.89,0,0,1,2.86-1.21,3.79,3.79,0,0,1,3.16,1.42,5.54,5.54,0,0,1,1.12,3.55,7.67,7.67,0,0,1-.49,2.78,7.14,7.14,0,0,1-1.17,2.11A8.91,8.91,0,0,1,120.27,69a9.26,9.26,0,0,1-1.53,1,11.8,11.8,0,0,1-1.23.5c-.26.07-.43,0-.5-.25Zm2.66-5.24a2,2,0,0,0,1.36-.49,2.29,2.29,0,0,0,.73-1.08,3.19,3.19,0,0,0-.55-1.84,1.78,1.78,0,0,0-1.56-.81,2,2,0,0,0-1.45.62,2.15,2.15,0,0,0,0,3A2,2,0,0,0,119.26,63.91Z"/><path class="cls-7" d="M125.24,69.83v-.2l4.68-9.76h-4.75a.38.38,0,0,1-.34-.34V58.27a.38.38,0,0,1,.34-.34h7.49a.38.38,0,0,1,.34.34v.13l-5.36,11.29a.68.68,0,0,1-.61.49H125.7C125.39,70.17,125.24,70.06,125.24,69.83Z"/><path class="cls-7" d="M134,68.86c-.2-.23-.22-.43,0-.61l.9-.88c.16-.13.3-.14.43,0a4,4,0,0,0,.36.3,4.3,4.3,0,0,0,.84.45,2.84,2.84,0,0,0,1.12.26,2,2,0,0,0,1.49-.63,2.08,2.08,0,0,0,.59-1.49,1.93,1.93,0,0,0-.58-1.45,2.17,2.17,0,0,0-1.6-.57h-2.77a.51.51,0,0,1-.41-.2.7.7,0,0,1-.15-.43V58.28a.3.3,0,0,1,.1-.24.33.33,0,0,1,.24-.1h5.69a.3.3,0,0,1,.24.1.33.33,0,0,1,.1.24V59.5a.3.3,0,0,1-.1.24.33.33,0,0,1-.24.1h-4v2.39h1.55a4.09,4.09,0,0,1,3,1.11,4.14,4.14,0,0,1-.14,5.81,4.33,4.33,0,0,1-3.1,1.21,4.71,4.71,0,0,1-2.18-.47A4.31,4.31,0,0,1,134,68.86Z"/><path class="cls-7" d="M148.49,69.15c-.11-.25,0-.43.32-.52a5.81,5.81,0,0,0,.92-.39,13.11,13.11,0,0,0,1.16-.68,5.26,5.26,0,0,0,1.16-1.06,3.75,3.75,0,0,0,.72-1.32,4,4,0,0,1-2.05.5,3.62,3.62,0,0,1-2.56-1,3.74,3.74,0,0,1-1.11-2.86,4,4,0,0,1,1.21-2.91,3.89,3.89,0,0,1,2.86-1.21,3.79,3.79,0,0,1,3.16,1.42,5.54,5.54,0,0,1,1.12,3.55,7.67,7.67,0,0,1-.49,2.78,7.14,7.14,0,0,1-1.17,2.11A8.91,8.91,0,0,1,152.16,69a9.26,9.26,0,0,1-1.53,1,11.8,11.8,0,0,1-1.23.5c-.26.07-.43,0-.5-.25Zm2.67-5.24a2,2,0,0,0,1.36-.49,2.29,2.29,0,0,0,.73-1.08,3.19,3.19,0,0,0-.55-1.84,1.78,1.78,0,0,0-1.56-.81,2,2,0,0,0-1.45.62,2.15,2.15,0,0,0,0,3A1.94,1.94,0,0,0,151.16,63.91Z"/><path class="cls-7" d="M165.16,68.69a4.2,4.2,0,0,1-6.7,0,7.87,7.87,0,0,1-1.19-4.63,7.87,7.87,0,0,1,1.19-4.63,4.2,4.2,0,0,1,6.7,0,7.91,7.91,0,0,1,1.19,4.63A7.89,7.89,0,0,1,165.16,68.69Zm-5-1.54a1.74,1.74,0,0,0,3.22,0,6.77,6.77,0,0,0,.57-3.1,6.81,6.81,0,0,0-.57-3.09,1.73,1.73,0,0,0-3.22,0,6.78,6.78,0,0,0-.57,3.09A6.9,6.9,0,0,0,160.2,67.15Z"/><path class="cls-7" d="M176.43,68.69a4.2,4.2,0,0,1-6.7,0,7.87,7.87,0,0,1-1.19-4.63,7.87,7.87,0,0,1,1.19-4.63,4.2,4.2,0,0,1,6.7,0,7.91,7.91,0,0,1,1.19,4.63A7.89,7.89,0,0,1,176.43,68.69Zm-5-1.54a1.74,1.74,0,0,0,3.22,0,6.77,6.77,0,0,0,.57-3.1,6.81,6.81,0,0,0-.57-3.09,1.73,1.73,0,0,0-3.22,0,6.78,6.78,0,0,0-.57,3.09A6.77,6.77,0,0,0,171.47,67.15Z"/><path class="cls-7" d="M179.74,68.86c-.2-.23-.22-.43,0-.61l.9-.88c.16-.13.3-.14.43,0a4,4,0,0,0,.36.3,4.3,4.3,0,0,0,.84.45,2.84,2.84,0,0,0,1.12.26,2,2,0,0,0,1.49-.63,2.08,2.08,0,0,0,.59-1.49,1.93,1.93,0,0,0-.58-1.45,2.17,2.17,0,0,0-1.6-.57h-2.77a.51.51,0,0,1-.41-.2.7.7,0,0,1-.15-.43V58.28A.3.3,0,0,1,180,58a.33.33,0,0,1,.24-.1H186a.3.3,0,0,1,.24.1.33.33,0,0,1,.1.24V59.5a.3.3,0,0,1-.1.24.33.33,0,0,1-.24.1h-4v2.39h1.55a4.09,4.09,0,0,1,3,1.11,4.14,4.14,0,0,1-.14,5.81,4.33,4.33,0,0,1-3.1,1.21,4.71,4.71,0,0,1-2.18-.47A4.31,4.31,0,0,1,179.74,68.86Z"/></g><g class="cls-6"><path class="cls-5" d="M206.32,69.83V61.21l-1.58.34a.27.27,0,0,1-.23,0,.31.31,0,0,1-.13-.2l-.11-.88a.4.4,0,0,1,.09-.32L207,57.93h1.26a.28.28,0,0,1,.22.1.33.33,0,0,1,.1.24V69.83a.34.34,0,0,1-.32.34h-1.55a.3.3,0,0,1-.24-.1A.33.33,0,0,1,206.32,69.83Z"/><path class="cls-5" d="M212.23,69.15c-.11-.25,0-.43.32-.52a5.81,5.81,0,0,0,.92-.39,11,11,0,0,0,1.16-.68,5.26,5.26,0,0,0,1.16-1.06,3.75,3.75,0,0,0,.72-1.32,4,4,0,0,1-2,.5,3.67,3.67,0,0,1-2.57-1,3.74,3.74,0,0,1-1.11-2.86A4,4,0,0,1,212,58.87a3.89,3.89,0,0,1,2.86-1.21A3.79,3.79,0,0,1,218,59.08a5.54,5.54,0,0,1,1.12,3.55,7.67,7.67,0,0,1-.49,2.78,7.14,7.14,0,0,1-1.17,2.11A8.91,8.91,0,0,1,215.89,69a9.26,9.26,0,0,1-1.53,1,11.8,11.8,0,0,1-1.23.5c-.26.07-.43,0-.5-.25Zm2.66-5.24a2,2,0,0,0,1.36-.49,2.29,2.29,0,0,0,.73-1.08,3.19,3.19,0,0,0-.55-1.84,1.77,1.77,0,0,0-1.56-.81,2,2,0,0,0-1.45.62,2.15,2.15,0,0,0,0,3A2,2,0,0,0,214.89,63.91Z"/><path class="cls-5" d="M220.87,69.83v-.2l4.68-9.76H220.8a.38.38,0,0,1-.34-.34V58.27a.38.38,0,0,1,.34-.34h7.49a.38.38,0,0,1,.34.34v.13l-5.36,11.29a.68.68,0,0,1-.61.49h-1.33C221,70.17,220.87,70.06,220.87,69.83Z"/></g></svg>