<svg id="svg2" xmlns="http://www.w3.org/2000/svg" width="400" height="640" viewBox="0 0 400 640"><defs><style>.cls-1{fill:#1fb53b;}.cls-2{fill:#e54545;}.cls-3{fill:#1f2021;}</style></defs><rect class="cls-1" y="428.14" width="210" height="16"/><rect class="cls-2" x="15" y="525.42" width="180" height="16"/><polygon class="cls-3" points="165 70.28 138.82 70.28 138.82 93.49 94.1 93.49 94.1 73.36 118.24 73.36 118.24 47.28 94.1 47.28 94.1 26.55 138.82 26.55 138.82 49.51 165 49.51 165 0 44 0 44 26.51 68.35 26.51 68.35 93.7 44 93.7 44 120 165 120 165 70.28"/><polygon class="cls-3" points="59.03 194.74 46.84 194.74 46.84 184.68 58.81 184.68 58.81 171.64 46.84 171.64 46.84 161.27 69.02 161.27 69.02 172.76 82 172.76 82 148 22 148 22 161.26 34.08 161.26 34.08 194.85 22 194.85 22 208 59.03 208 59.03 194.74"/><path class="cls-3" d="M133,161.25h12.19v33.6H133V208h37.39V194.74H158.08V184.68l12-.05c11.5-2.06,18-8.95,17.91-18.89-.15-12.26-8.26-15.84-16.17-17.72L133,148v13.25Zm25.08,0h13.47c2.4.1,3.57,1.7,3.58,4.88,0,4.73-2,5.43-4.11,5.49H158.08Z"/><polygon class="cls-3" points="14.39 249.08 20.2 249.08 20.2 270.33 12.26 270.33 12.26 281 38.44 281 38.44 270.33 31.1 270.33 31.1 249.08 36.41 249.08 36.41 256.63 47 256.63 47 238 4 238 4 256.63 14.39 256.63 14.39 249.08"/><path class="cls-3" d="M128,259.52A22.78,22.78,0,0,0,105,237c-12.69,0-23,10.1-23,22.52S92.33,282,105,282,128,271.91,128,259.52Zm-34.35,0A11.35,11.35,0,1,1,105,270.59,11.25,11.25,0,0,1,93.65,259.52Z"/><polygon class="cls-3" points="206 238 163 238 163 257.44 174.2 257.44 174.2 249.28 188.69 249.28 163 271.31 163 281 206 281 206 262.67 195.2 262.67 195.2 270.63 181.15 270.63 206 248.58 206 238"/><path class="cls-3" d="M83.16,326.93h.06c5.85-1.06,9.17-4.62,9.11-9.75-.07-6.34-4.2-8.19-8.31-9.17H64.33v6.85h6.21v17.36H64.33V339h19v-6.85H77.1V327ZM77.1,314.86H84c1.22.05,1.82.87,1.82,2.52,0,2.44-1,2.81-2.09,2.83H77.1Z"/><polygon class="cls-3" points="148.67 320.79 148.67 308 117.67 308 117.67 314.85 123.91 314.85 123.91 332.21 117.67 332.21 117.67 339 148.67 339 148.67 326.15 141.96 326.15 141.96 332.15 130.5 332.15 130.5 326.95 136.69 326.95 136.69 320.21 130.5 320.21 130.5 314.86 141.96 314.86 141.96 320.79 148.67 320.79"/><polygon class="cls-3" points="32.25 332.25 21.31 332.25 21.31 315.69 27.27 315.69 27.28 308.01 8 308 8 315.64 13.81 315.64 13.81 332.3 8 332.3 8 339 39 339 39 326.69 32.25 326.69 32.25 332.25"/><path class="cls-3" d="M202,323.18a16.44,16.44,0,0,0-4.87-12c-2-2-4.25-3.22-5.81-3.2H174v6.85h6.2V332.2H174V339h17.32C195.51,339,201.83,332.36,202,323.18Zm-15.25,9V314.86h1.91c2.4,0,6.91,2.38,7,8.09,0,4.67-3.5,9.2-7,9.2Z"/><path class="cls-3" d="M23.47,360H8v5.3h4.88v13.44H8V384H23v-5.3H18v-4l4.81,0c4.6-.82,7.21-3.57,7.16-7.55C29.94,362.19,26.7,360.76,23.47,360Zm-.26,9.46H18v-4.15h5.39c1,0,1.43.68,1.43,1.95C24.86,369.15,24.07,369.43,23.21,369.46Z"/><polygon class="cls-3" points="49.58 365.3 54.41 365.3 54.41 378.74 49.58 378.74 49.58 384 73.58 384 73.58 374.06 68.38 374.06 68.38 378.7 59.51 378.7 59.51 374.67 64.3 374.67 64.3 369.46 59.51 369.46 59.51 365.31 68.38 365.31 68.38 369.9 73.58 369.9 73.58 360 49.58 360 49.58 365.3"/><polygon class="cls-3" points="151.24 378.7 146.36 378.7 146.36 374.67 151.15 374.67 151.15 369.46 146.36 369.46 146.36 365.31 155.23 365.31 155.23 369.9 160.43 369.9 160.43 360 136.43 360 136.43 365.3 141.25 365.3 141.25 378.74 136.43 378.74 136.43 384 151.24 384 151.24 378.7"/><path class="cls-3" d="M289.38,56.16V66.87h1.69V53.13H290a6.23,6.23,0,0,1-1.5,1.83A10.39,10.39,0,0,1,286,56.57v1.62a10.63,10.63,0,0,0,1.78-.87A8.08,8.08,0,0,0,289.38,56.16Z"/><path class="cls-3" d="M295.1,183.26h-6.75a5.23,5.23,0,0,1,.71-.91c.29-.31.94-.88,2-1.73a26.51,26.51,0,0,0,2.6-2.41,6.15,6.15,0,0,0,1.13-1.67,4.14,4.14,0,0,0,.33-1.61,3.58,3.58,0,0,0-1.15-2.71,4.38,4.38,0,0,0-3.14-1.09,4.64,4.64,0,0,0-3.13,1,4.29,4.29,0,0,0-1.34,3l1.74.17a2.7,2.7,0,0,1,.74-2,2.94,2.94,0,0,1,3.83,0,2.22,2.22,0,0,1,.72,1.68,3.48,3.48,0,0,1-.79,2,18.51,18.51,0,0,1-3,2.9,17.89,17.89,0,0,0-2.21,2.07,6.23,6.23,0,0,0-1.11,1.82,2.92,2.92,0,0,0-.2,1.17h9.1v-1.61Z"/><path class="cls-3" d="M290.38,266.49a4.62,4.62,0,0,0,3.32-1.24,4,4,0,0,0,1.32-3,3.53,3.53,0,0,0-.68-2.21,3.15,3.15,0,0,0-1.89-1.16,3.28,3.28,0,0,0,1.41-1.16,2.85,2.85,0,0,0,.48-1.61,3.41,3.41,0,0,0-.5-1.77,3.49,3.49,0,0,0-1.45-1.31,4.55,4.55,0,0,0-2.08-.48,4.07,4.07,0,0,0-2.73.93,4.34,4.34,0,0,0-1.41,2.62l1.69.3a3.08,3.08,0,0,1,.85-1.85,2.29,2.29,0,0,1,1.64-.62,2.24,2.24,0,0,1,1.63.61,2,2,0,0,1,.62,1.53,1.91,1.91,0,0,1-.86,1.73,3.52,3.52,0,0,1-1.94.56l-.28,0-.18,1.47a5.07,5.07,0,0,1,1.19-.19,2.63,2.63,0,0,1,1.93.76,2.54,2.54,0,0,1,.76,1.9,2.77,2.77,0,0,1-.82,2,2.73,2.73,0,0,1-2,.82,2.48,2.48,0,0,1-1.71-.63,3.72,3.72,0,0,1-1-2.06l-1.69.23a4.13,4.13,0,0,0,1.37,2.78A4.37,4.37,0,0,0,290.38,266.49Z"/><path class="cls-3" d="M293.67,316.66h-1.38L286,325.53v1.54h6v3.27h1.69v-3.27h1.86v-1.54h-1.86ZM292,325.52h-4.32l4.32-6.17Z"/><path class="cls-3" d="M290.42,377.49a2.51,2.51,0,0,1-1.73-.65,3.23,3.23,0,0,1-.92-1.94l-1.77.15a4.07,4.07,0,0,0,1.36,2.77,4.44,4.44,0,0,0,3.06,1.05A4.38,4.38,0,0,0,294,377.2a4.93,4.93,0,0,0,1.09-3.21,4.31,4.31,0,0,0-1.24-3.19,4.13,4.13,0,0,0-3-1.24,4.55,4.55,0,0,0-2.61.86l.75-3.68h5.49v-1.61h-6.85l-1.33,7,1.59.21a2.89,2.89,0,0,1,1-1,3,3,0,0,1,1.48-.37,2.85,2.85,0,0,1,2.12.83,3.09,3.09,0,0,1,.82,2.27,3.46,3.46,0,0,1-.85,2.43A2.7,2.7,0,0,1,290.42,377.49Z"/><path class="cls-3" d="M291,406.88a4.05,4.05,0,0,0-1.86.45,3.88,3.88,0,0,0-1.49,1.37,8.68,8.68,0,0,1,.48-3.17,3.9,3.9,0,0,1,1.26-1.69,2.33,2.33,0,0,1,1.42-.44,2.27,2.27,0,0,1,1.69.71,3.23,3.23,0,0,1,.64,1.44l1.68-.13a3.81,3.81,0,0,0-1.25-2.5,3.87,3.87,0,0,0-2.66-.91,4.25,4.25,0,0,0-3.46,1.57q-1.49,1.8-1.48,5.77c0,2.36.45,4.06,1.33,5.09a4.35,4.35,0,0,0,3.45,1.55,4.23,4.23,0,0,0,2.22-.59,4.14,4.14,0,0,0,1.54-1.69,5.29,5.29,0,0,0,.55-2.4,4.44,4.44,0,0,0-1.18-3.2A3.88,3.88,0,0,0,291,406.88Zm1.56,6.87a2.38,2.38,0,0,1-1.84.86,2.6,2.6,0,0,1-1.4-.42,2.73,2.73,0,0,1-1-1.21,3.84,3.84,0,0,1-.38-1.66,2.94,2.94,0,0,1,.8-2.14,2.6,2.6,0,0,1,1.95-.82,2.47,2.47,0,0,1,1.91.82,3.13,3.13,0,0,1,.76,2.23A3.34,3.34,0,0,1,292.59,413.75Z"/><path class="cls-3" d="M378.49,65.26h-6.76a5.31,5.31,0,0,1,.72-.91c.29-.31.94-.88,1.95-1.73a27.15,27.15,0,0,0,2.61-2.4,6.28,6.28,0,0,0,1.12-1.68,4,4,0,0,0,.34-1.61,3.61,3.61,0,0,0-1.15-2.71,4.38,4.38,0,0,0-3.14-1.09,4.64,4.64,0,0,0-3.13,1,4.25,4.25,0,0,0-1.34,3l1.73.17a2.75,2.75,0,0,1,.75-2,2.62,2.62,0,0,1,1.95-.73,2.57,2.57,0,0,1,1.87.69,2.22,2.22,0,0,1,.72,1.68,3.41,3.41,0,0,1-.79,2,17.94,17.94,0,0,1-3,2.9,18.69,18.69,0,0,0-2.21,2.07,6.23,6.23,0,0,0-1.11,1.82,3,3,0,0,0-.2,1.17h9.1V65.26Z"/><path class="cls-3" d="M395.51,67a3.81,3.81,0,0,0,2.5-.81,4.85,4.85,0,0,0,1.49-2.29A12.5,12.5,0,0,0,400,60a13.27,13.27,0,0,0-.31-3.23,6.64,6.64,0,0,0-.86-2,3.6,3.6,0,0,0-1.38-1.28,4,4,0,0,0-1.94-.45,3.85,3.85,0,0,0-2.5.81,4.84,4.84,0,0,0-1.49,2.28A12.57,12.57,0,0,0,391,60q0,3.86,1.36,5.57A3.81,3.81,0,0,0,395.51,67Zm-1.88-11.61a2.17,2.17,0,0,1,1.86-1,2.36,2.36,0,0,1,2,1.11c.53.75.79,2.24.79,4.49s-.26,3.74-.79,4.48a2.28,2.28,0,0,1-3.92,0c-.53-.74-.79-2.24-.79-4.49S393.05,56.22,393.63,55.38Z"/><polygon class="cls-3" points="363.47 67.08 364.83 67.08 368.81 52.92 367.46 52.92 363.47 67.08"/><path class="cls-3" d="M388.13,54.74a3.7,3.7,0,0,0-1.39-1.28A4,4,0,0,0,384.8,53a3.8,3.8,0,0,0-2.49.81,4.78,4.78,0,0,0-1.5,2.28,12.57,12.57,0,0,0-.5,3.9q0,3.86,1.36,5.57a4.2,4.2,0,0,0,5.63.61,4.85,4.85,0,0,0,1.49-2.29,12.5,12.5,0,0,0,.5-3.89,13.27,13.27,0,0,0-.31-3.23A6.89,6.89,0,0,0,388.13,54.74Zm-1.37,9.75a2.27,2.27,0,0,1-3.92,0c-.53-.74-.79-2.24-.79-4.48s.29-3.79.87-4.63a2.17,2.17,0,0,1,1.86-1,2.35,2.35,0,0,1,2,1.12c.53.74.79,2.23.79,4.49S387.29,63.74,386.76,64.49Z"/><path class="cls-3" d="M361.37,54.74A3.6,3.6,0,0,0,360,53.46a4,4,0,0,0-1.94-.45,3.81,3.81,0,0,0-2.5.81,4.77,4.77,0,0,0-1.49,2.28,12.28,12.28,0,0,0-.5,3.9q0,3.86,1.36,5.57a4.2,4.2,0,0,0,5.63.61A4.85,4.85,0,0,0,362,63.89a12.5,12.5,0,0,0,.5-3.89,13.79,13.79,0,0,0-.31-3.23A6.9,6.9,0,0,0,361.37,54.74ZM360,64.49a2.27,2.27,0,0,1-3.92,0c-.53-.74-.8-2.24-.8-4.48s.29-3.79.88-4.63a2.17,2.17,0,0,1,1.86-1,2.34,2.34,0,0,1,2,1.12c.53.74.8,2.23.8,4.49S360.53,63.74,360,64.49Z"/><path class="cls-3" d="M345.69,64.35c.29-.31.94-.88,2-1.73a28,28,0,0,0,2.6-2.4,6.34,6.34,0,0,0,1.13-1.68,4.11,4.11,0,0,0,.33-1.61,3.58,3.58,0,0,0-1.15-2.71,4.38,4.38,0,0,0-3.14-1.09,4.64,4.64,0,0,0-3.13,1,4.29,4.29,0,0,0-1.34,3l1.74.17a2.7,2.7,0,0,1,.74-2,2.94,2.94,0,0,1,3.83,0,2.22,2.22,0,0,1,.72,1.68,3.48,3.48,0,0,1-.79,2,18.51,18.51,0,0,1-3,2.9,18.69,18.69,0,0,0-2.21,2.07,6.23,6.23,0,0,0-1.11,1.82,3,3,0,0,0-.2,1.17h9.11V65.26H345A5.23,5.23,0,0,1,345.69,64.35Z"/><path class="cls-3" d="M398.83,172.74a3.6,3.6,0,0,0-1.38-1.28,4,4,0,0,0-1.94-.45,3.85,3.85,0,0,0-2.5.81,4.84,4.84,0,0,0-1.49,2.28,12.57,12.57,0,0,0-.5,3.9q0,3.85,1.36,5.57a4.2,4.2,0,0,0,5.63.61,4.85,4.85,0,0,0,1.49-2.29A12.5,12.5,0,0,0,400,178a13.79,13.79,0,0,0-.31-3.23A6.64,6.64,0,0,0,398.83,172.74Zm-1.36,9.75a2.28,2.28,0,0,1-3.92,0c-.53-.74-.79-2.24-.79-4.49s.29-3.78.87-4.62a2.17,2.17,0,0,1,1.86-1,2.35,2.35,0,0,1,2,1.12c.53.74.79,2.23.79,4.49S398,181.74,397.47,182.49Z"/><path class="cls-3" d="M361.37,172.74a3.6,3.6,0,0,0-1.38-1.28,4,4,0,0,0-1.94-.45,3.81,3.81,0,0,0-2.5.81,4.77,4.77,0,0,0-1.49,2.28,12.28,12.28,0,0,0-.5,3.9q0,3.85,1.36,5.57a4.2,4.2,0,0,0,5.63.61,4.85,4.85,0,0,0,1.49-2.29,12.5,12.5,0,0,0,.5-3.89,13.79,13.79,0,0,0-.31-3.23A6.9,6.9,0,0,0,361.37,172.74ZM360,182.49a2.27,2.27,0,0,1-3.92,0c-.53-.74-.8-2.24-.8-4.49s.29-3.78.88-4.62a2.17,2.17,0,0,1,1.86-1,2.34,2.34,0,0,1,2,1.12c.53.74.8,2.23.8,4.49S360.53,181.74,360,182.49Z"/><path class="cls-3" d="M376,184.87V171.13h-1.09a6.4,6.4,0,0,1-1.5,1.83,10.26,10.26,0,0,1-2.48,1.6v1.63a11,11,0,0,0,1.78-.87,8.85,8.85,0,0,0,1.6-1.16v10.71Z"/><polygon class="cls-3" points="363.47 185.08 364.83 185.08 368.81 170.92 367.46 170.92 363.47 185.08"/><path class="cls-3" d="M345.69,182.35c.29-.31.94-.88,2-1.73a26.51,26.51,0,0,0,2.6-2.41,6.15,6.15,0,0,0,1.13-1.67,4.14,4.14,0,0,0,.33-1.61,3.58,3.58,0,0,0-1.15-2.71,4.38,4.38,0,0,0-3.14-1.09,4.64,4.64,0,0,0-3.13,1,4.29,4.29,0,0,0-1.34,3l1.74.17a2.7,2.7,0,0,1,.74-2,2.94,2.94,0,0,1,3.83,0,2.22,2.22,0,0,1,.72,1.68,3.48,3.48,0,0,1-.79,2,18.51,18.51,0,0,1-3,2.9,17.89,17.89,0,0,0-2.21,2.07,6.23,6.23,0,0,0-1.11,1.82,2.92,2.92,0,0,0-.2,1.17h9.11v-1.61H345A5.23,5.23,0,0,1,345.69,182.35Z"/><path class="cls-3" d="M388.13,172.74a3.7,3.7,0,0,0-1.39-1.28,4,4,0,0,0-1.94-.45,3.8,3.8,0,0,0-2.49.81,4.78,4.78,0,0,0-1.5,2.28,12.57,12.57,0,0,0-.5,3.9q0,3.85,1.36,5.57a4.2,4.2,0,0,0,5.63.61,4.85,4.85,0,0,0,1.49-2.29,12.5,12.5,0,0,0,.5-3.89,13.27,13.27,0,0,0-.31-3.23A6.89,6.89,0,0,0,388.13,172.74Zm-1.37,9.75a2.27,2.27,0,0,1-3.92,0c-.53-.74-.79-2.24-.79-4.49s.29-3.78.87-4.62a2.17,2.17,0,0,1,1.86-1,2.35,2.35,0,0,1,2,1.12c.53.74.79,2.23.79,4.49S387.29,181.74,386.76,182.49Z"/><path class="cls-3" d="M345.69,263.84c.29-.3.94-.87,2-1.72a26.51,26.51,0,0,0,2.6-2.41,6.15,6.15,0,0,0,1.13-1.67,4.14,4.14,0,0,0,.33-1.61,3.58,3.58,0,0,0-1.15-2.71,4.38,4.38,0,0,0-3.14-1.09,4.64,4.64,0,0,0-3.13,1,4.29,4.29,0,0,0-1.34,2.95l1.74.17a2.7,2.7,0,0,1,.74-2,2.94,2.94,0,0,1,3.83,0,2.22,2.22,0,0,1,.72,1.68,3.48,3.48,0,0,1-.79,2,18.51,18.51,0,0,1-3,2.9,18.69,18.69,0,0,0-2.21,2.07,6.23,6.23,0,0,0-1.11,1.82,3,3,0,0,0-.2,1.17h9.11v-1.62H345A6.11,6.11,0,0,1,345.69,263.84Z"/><path class="cls-3" d="M361.37,254.24A3.6,3.6,0,0,0,360,253a4,4,0,0,0-1.94-.45,3.81,3.81,0,0,0-2.5.81,4.77,4.77,0,0,0-1.49,2.28,12.28,12.28,0,0,0-.5,3.9q0,3.86,1.36,5.57a4.2,4.2,0,0,0,5.63.61,4.85,4.85,0,0,0,1.49-2.29,12.5,12.5,0,0,0,.5-3.89,13.79,13.79,0,0,0-.31-3.23A6.9,6.9,0,0,0,361.37,254.24ZM360,264a2.28,2.28,0,0,1-3.92,0c-.53-.74-.8-2.24-.8-4.49s.29-3.78.88-4.62a2.17,2.17,0,0,1,1.86-1,2.35,2.35,0,0,1,2,1.11c.53.75.8,2.24.8,4.49S360.53,263.24,360,264Z"/><path class="cls-3" d="M388.13,254.24a3.7,3.7,0,0,0-1.39-1.28,4,4,0,0,0-1.94-.45,3.8,3.8,0,0,0-2.49.81,4.78,4.78,0,0,0-1.5,2.28,12.57,12.57,0,0,0-.5,3.9q0,3.86,1.36,5.57a4.2,4.2,0,0,0,5.63.61,4.85,4.85,0,0,0,1.49-2.29,12.5,12.5,0,0,0,.5-3.89,13.27,13.27,0,0,0-.31-3.23A6.89,6.89,0,0,0,388.13,254.24ZM386.76,264a2.28,2.28,0,0,1-3.92,0c-.53-.74-.79-2.24-.79-4.49s.29-3.78.87-4.62a2.17,2.17,0,0,1,1.86-1,2.36,2.36,0,0,1,2,1.11c.53.75.79,2.24.79,4.49S387.29,263.24,386.76,264Z"/><polygon class="cls-3" points="363.47 266.57 364.83 266.57 368.81 252.43 367.46 252.43 363.47 266.57"/><path class="cls-3" d="M372.28,262.35a16.67,16.67,0,0,0-.64,3.9h1.74a17.24,17.24,0,0,1,.65-3.76,22.63,22.63,0,0,1,2-4.74,18.52,18.52,0,0,1,2.61-3.7v-1.3h-8.92v1.61h6.75a18.93,18.93,0,0,0-2.43,3.58A20.27,20.27,0,0,0,372.28,262.35Z"/><polygon class="cls-3" points="363.47 330.58 364.83 330.58 368.81 316.42 367.46 316.42 363.47 330.58"/><path class="cls-3" d="M361.37,318.24A3.6,3.6,0,0,0,360,317a4,4,0,0,0-1.94-.45,3.81,3.81,0,0,0-2.5.81,4.77,4.77,0,0,0-1.49,2.28,12.28,12.28,0,0,0-.5,3.9q0,3.86,1.36,5.57a4.2,4.2,0,0,0,5.63.61,4.85,4.85,0,0,0,1.49-2.29,12.5,12.5,0,0,0,.5-3.89,13.79,13.79,0,0,0-.31-3.23A6.9,6.9,0,0,0,361.37,318.24ZM360,328a2.28,2.28,0,0,1-3.92,0c-.53-.75-.8-2.24-.8-4.49s.29-3.78.88-4.62a2.17,2.17,0,0,1,1.86-1,2.35,2.35,0,0,1,2,1.11c.53.74.8,2.24.8,4.49S360.53,327.24,360,328Z"/><path class="cls-3" d="M388.13,318.24a3.7,3.7,0,0,0-1.39-1.28,4,4,0,0,0-1.94-.45,3.8,3.8,0,0,0-2.49.81,4.78,4.78,0,0,0-1.5,2.28,12.57,12.57,0,0,0-.5,3.9q0,3.86,1.36,5.57a4.2,4.2,0,0,0,5.63.61,4.85,4.85,0,0,0,1.49-2.29,12.5,12.5,0,0,0,.5-3.89,13.27,13.27,0,0,0-.31-3.23A6.89,6.89,0,0,0,388.13,318.24ZM386.76,328a2.28,2.28,0,0,1-3.92,0c-.53-.75-.79-2.24-.79-4.49s.29-3.78.87-4.62a2.17,2.17,0,0,1,1.86-1,2.36,2.36,0,0,1,2,1.11c.53.74.79,2.24.79,4.49S387.29,327.24,386.76,328Z"/><path class="cls-3" d="M345.69,327.84c.29-.3.94-.87,2-1.72a26.51,26.51,0,0,0,2.6-2.41,6.15,6.15,0,0,0,1.13-1.67,4.14,4.14,0,0,0,.33-1.61,3.58,3.58,0,0,0-1.15-2.71,4.38,4.38,0,0,0-3.14-1.09,4.64,4.64,0,0,0-3.13,1,4.29,4.29,0,0,0-1.34,2.95l1.74.17a2.7,2.7,0,0,1,.74-2,2.94,2.94,0,0,1,3.83,0,2.22,2.22,0,0,1,.72,1.68,3.48,3.48,0,0,1-.79,2,18.51,18.51,0,0,1-3,2.9,18.69,18.69,0,0,0-2.21,2.07,6.23,6.23,0,0,0-1.11,1.82,3,3,0,0,0-.2,1.17h9.11v-1.61H345A5.69,5.69,0,0,1,345.69,327.84Z"/><path class="cls-3" d="M374.45,321.06a4.49,4.49,0,0,0-2.6.86l.74-3.68h5.49v-1.6h-6.84l-1.34,7,1.59.21a2.89,2.89,0,0,1,1-1,3,3,0,0,1,1.48-.37,2.85,2.85,0,0,1,2.12.83,3.09,3.09,0,0,1,.82,2.27,3.41,3.41,0,0,1-.85,2.43A2.69,2.69,0,0,1,374,329a2.51,2.51,0,0,1-1.74-.64,3.16,3.16,0,0,1-.91-1.94l-1.78.15a4.12,4.12,0,0,0,1.36,2.77,4.45,4.45,0,0,0,3.07,1,4.36,4.36,0,0,0,3.61-1.66,4.93,4.93,0,0,0,1.09-3.21,4.31,4.31,0,0,0-1.24-3.19A4.11,4.11,0,0,0,374.45,321.06Z"/><path class="cls-3" d="M361.37,366.74a3.6,3.6,0,0,0-1.38-1.28,4,4,0,0,0-1.94-.45,3.81,3.81,0,0,0-2.5.81,4.77,4.77,0,0,0-1.49,2.28,12.28,12.28,0,0,0-.5,3.9q0,3.86,1.36,5.57a4.2,4.2,0,0,0,5.63.61,4.85,4.85,0,0,0,1.49-2.29,12.5,12.5,0,0,0,.5-3.89,13.79,13.79,0,0,0-.31-3.23A6.9,6.9,0,0,0,361.37,366.74ZM360,376.49a2.27,2.27,0,0,1-3.92,0c-.53-.74-.8-2.24-.8-4.48s.29-3.79.88-4.62a2.15,2.15,0,0,1,1.86-1,2.35,2.35,0,0,1,2,1.11c.53.74.8,2.23.8,4.49S360.53,375.74,360,376.49Z"/><path class="cls-3" d="M388.13,366.74a3.7,3.7,0,0,0-1.39-1.28,4,4,0,0,0-1.94-.45,3.8,3.8,0,0,0-2.49.81,4.78,4.78,0,0,0-1.5,2.28,12.57,12.57,0,0,0-.5,3.9q0,3.86,1.36,5.57a4.2,4.2,0,0,0,5.63.61,4.85,4.85,0,0,0,1.49-2.29,12.5,12.5,0,0,0,.5-3.89,13.27,13.27,0,0,0-.31-3.23A6.89,6.89,0,0,0,388.13,366.74Zm-1.37,9.75a2.27,2.27,0,0,1-3.92,0c-.53-.74-.79-2.24-.79-4.48s.29-3.79.87-4.62a2.15,2.15,0,0,1,1.86-1,2.36,2.36,0,0,1,2,1.11c.53.74.79,2.23.79,4.49S387.29,375.74,386.76,376.49Z"/><path class="cls-3" d="M375,378.84h1.69v-3.27h1.86V374h-1.86v-8.87h-1.38L369.05,374v1.54h6ZM370.71,374l4.31-6.17V374Z"/><polygon class="cls-3" points="363.47 379.08 364.83 379.08 368.81 364.92 367.46 364.92 363.47 379.08"/><path class="cls-3" d="M345.69,376.34c.29-.3.94-.87,2-1.72a26.51,26.51,0,0,0,2.6-2.41,6.15,6.15,0,0,0,1.13-1.67,4.14,4.14,0,0,0,.33-1.61,3.58,3.58,0,0,0-1.15-2.71,4.38,4.38,0,0,0-3.14-1.09,4.64,4.64,0,0,0-3.13,1,4.29,4.29,0,0,0-1.34,2.95l1.74.17a2.7,2.7,0,0,1,.74-2,2.94,2.94,0,0,1,3.83,0,2.22,2.22,0,0,1,.72,1.68,3.48,3.48,0,0,1-.79,2,18.51,18.51,0,0,1-3,2.9,18.69,18.69,0,0,0-2.21,2.07,6.23,6.23,0,0,0-1.11,1.82,3,3,0,0,0-.2,1.17h9.11v-1.61H345A5.69,5.69,0,0,1,345.69,376.34Z"/><path class="cls-3" d="M376.05,408.34a3.32,3.32,0,0,0,1.42-1.16,2.9,2.9,0,0,0,.48-1.62,3.38,3.38,0,0,0-.5-1.76,3.55,3.55,0,0,0-1.45-1.31,4.55,4.55,0,0,0-2.08-.48,4.07,4.07,0,0,0-2.73.93,4.34,4.34,0,0,0-1.41,2.61l1.69.3a3.08,3.08,0,0,1,.85-1.84,2.25,2.25,0,0,1,1.64-.62,2.2,2.2,0,0,1,1.62.61,2,2,0,0,1,.63,1.53,1.88,1.88,0,0,1-.86,1.72,3.45,3.45,0,0,1-2,.56h-.27l-.19,1.47a5.22,5.22,0,0,1,1.2-.19,2.59,2.59,0,0,1,1.93.76,2.54,2.54,0,0,1,.76,1.9,2.77,2.77,0,0,1-.82,2,2.73,2.73,0,0,1-2,.82,2.48,2.48,0,0,1-1.71-.63,3.66,3.66,0,0,1-1-2.06l-1.69.23a4.13,4.13,0,0,0,1.37,2.78,4.35,4.35,0,0,0,3,1.07,4.62,4.62,0,0,0,3.32-1.24,4,4,0,0,0,1.32-3,3.55,3.55,0,0,0-.68-2.21A3.14,3.14,0,0,0,376.05,408.34Z"/><path class="cls-3" d="M361.37,403.74a3.6,3.6,0,0,0-1.38-1.28,4,4,0,0,0-1.94-.45,3.81,3.81,0,0,0-2.5.81,4.77,4.77,0,0,0-1.49,2.28,12.28,12.28,0,0,0-.5,3.9q0,3.86,1.36,5.57a4.2,4.2,0,0,0,5.63.61,4.85,4.85,0,0,0,1.49-2.29,12.5,12.5,0,0,0,.5-3.89,13.79,13.79,0,0,0-.31-3.23A6.9,6.9,0,0,0,361.37,403.74ZM360,413.49a2.27,2.27,0,0,1-3.92,0c-.53-.74-.8-2.24-.8-4.48s.29-3.79.88-4.63a2.17,2.17,0,0,1,1.86-1,2.34,2.34,0,0,1,2,1.12c.53.74.8,2.23.8,4.49S360.53,412.74,360,413.49Z"/><path class="cls-3" d="M345.69,413.34c.29-.3.94-.87,2-1.72a26.51,26.51,0,0,0,2.6-2.41,6.15,6.15,0,0,0,1.13-1.67,4.14,4.14,0,0,0,.33-1.61,3.58,3.58,0,0,0-1.15-2.71,4.38,4.38,0,0,0-3.14-1.09,4.64,4.64,0,0,0-3.13,1,4.29,4.29,0,0,0-1.34,2.95l1.74.17a2.7,2.7,0,0,1,.74-2,2.94,2.94,0,0,1,3.83,0,2.22,2.22,0,0,1,.72,1.68,3.48,3.48,0,0,1-.79,2,18.51,18.51,0,0,1-3,2.9,18.69,18.69,0,0,0-2.21,2.07,6.23,6.23,0,0,0-1.11,1.82,3,3,0,0,0-.2,1.17h9.11v-1.61H345A5.69,5.69,0,0,1,345.69,413.34Z"/><path class="cls-3" d="M388.13,403.74a3.7,3.7,0,0,0-1.39-1.28,4,4,0,0,0-1.94-.45,3.8,3.8,0,0,0-2.49.81,4.78,4.78,0,0,0-1.5,2.28,12.57,12.57,0,0,0-.5,3.9q0,3.86,1.36,5.57a4.2,4.2,0,0,0,5.63.61,4.85,4.85,0,0,0,1.49-2.29,12.5,12.5,0,0,0,.5-3.89,13.27,13.27,0,0,0-.31-3.23A6.89,6.89,0,0,0,388.13,403.74Zm-1.37,9.75a2.27,2.27,0,0,1-3.92,0c-.53-.74-.79-2.24-.79-4.48s.29-3.79.87-4.63a2.17,2.17,0,0,1,1.86-1,2.35,2.35,0,0,1,2,1.12c.53.74.79,2.23.79,4.49S387.29,412.74,386.76,413.49Z"/><polygon class="cls-3" points="363.47 416.08 364.83 416.08 368.81 401.92 367.46 401.92 363.47 416.08"/><path class="cls-3" d="M116.81,374.9l-5.67-.15a6.67,6.67,0,0,1-6,3.83A6.59,6.59,0,0,1,98.57,372a6.53,6.53,0,0,1,6.57-6.52,6.64,6.64,0,0,1,6.06,4l5.65-.07a11.93,11.93,0,1,0,0,5.49Z"/><polygon class="cls-3" points="8 403.98 11.62 403.98 11.62 414.06 8 414.06 8 418 26 418 26 410.54 22.11 410.54 22.11 414.02 15.45 414.02 15.45 411 19.04 411 19.04 407.09 15.45 407.09 15.45 403.98 22.11 403.98 22.11 407.43 26 407.43 26 400 8 400 8 403.98"/><polygon class="cls-3" points="78.68 403.98 82.3 403.98 82.3 414.06 78.68 414.06 78.68 418 89.79 418 89.79 414.02 86.13 414.02 86.13 411 89.72 411 89.72 407.09 86.13 407.09 86.13 403.98 92.79 403.98 92.79 407.43 96.68 407.43 96.68 400 78.68 400 78.68 403.98"/><polygon class="cls-3" points="150.16 408.13 154.85 408.13 154.85 404.72 160.91 404.72 150.16 413.94 150.16 418 168.16 418 168.16 410.33 163.64 410.33 163.64 413.66 157.76 413.66 168.16 404.43 168.16 400 150.16 400 150.16 408.13"/><path class="cls-3" d="M197.25,400H186v4h3.55v10.07H186V418h10.88v-4H193.3v-3h3.49c3.34-.62,5.24-2.68,5.21-5.67C202,401.64,199.6,400.57,197.25,400Zm-.19,7.09h-3.77V404h3.92c.7,0,1,.51,1,1.47C198.26,406.86,197.69,407.08,197.06,407.09Z"/><polygon class="cls-3" points="25.88 471.88 22.62 471.88 22.62 469.25 25.82 469.25 25.82 465.83 22.62 465.83 22.62 463.12 28.54 463.12 28.54 466.13 32 466.13 32 459.65 16 459.65 16 463.12 19.22 463.12 19.22 471.91 16 471.91 16 475.35 25.88 475.35 25.88 471.88"/><polygon class="cls-3" points="43.5 463.04 46.72 463.04 46.72 471.99 43.5 471.99 43.5 475.5 59.5 475.5 59.5 468.87 56.04 468.87 56.04 471.96 50.13 471.96 50.13 469.28 53.32 469.28 53.32 465.8 50.13 465.8 50.13 463.04 56.04 463.04 56.04 466.1 59.5 466.1 59.5 459.5 43.5 459.5 43.5 463.04"/><polygon class="cls-3" points="83.52 472.02 77.87 472.02 77.87 463.47 80.95 463.47 80.95 459.51 71 459.5 71 463.44 74 463.44 74 472.04 71 472.04 71 475.5 87 475.5 87 469.15 83.52 469.15 83.52 472.02"/><path class="cls-3" d="M107,459a8.5,8.5,0,1,0,8.49,8.51A8.52,8.52,0,0,0,107,459Zm4.18,8.51a4.19,4.19,0,1,1-4.18-4.2A4.18,4.18,0,0,1,111.19,467.51Z"/><path class="cls-3" d="M136.52,472h-3.14v-2.69h3.06c2.93-.55,4.59-2.39,4.56-5,0-3.27-2.1-4.22-4.16-4.73H127V463h3.1V472H127v3.51h9.52Zm-3.14-6.17V463h3.43c.61,0,.91.45.91,1.3,0,1.26-.5,1.45-1,1.47h-3.3Z"/><polygon class="cls-3" points="152.5 466.73 156.67 466.73 156.67 463.7 162.06 463.7 152.5 471.89 152.5 475.5 168.5 475.5 168.5 468.68 164.48 468.68 164.48 471.64 159.25 471.64 168.5 463.44 168.5 459.5 152.5 459.5 152.5 466.73"/><path class="cls-3" d="M290.32,465.94a20.27,20.27,0,0,0-1.75,4.41,16.67,16.67,0,0,0-.64,3.9h1.73a17.86,17.86,0,0,1,.65-3.76,22.67,22.67,0,0,1,2-4.74,18.52,18.52,0,0,1,2.61-3.7v-1.3H286v1.61h6.74A19.39,19.39,0,0,0,290.32,465.94Z"/><path class="cls-3" d="M292.48,508.83a3.14,3.14,0,0,0,1.53-1.09,2.8,2.8,0,0,0,.5-1.65,3.35,3.35,0,0,0-1.1-2.54,4.06,4.06,0,0,0-2.9-1,4,4,0,0,0-2.87,1,3.32,3.32,0,0,0-1.08,2.51,2.82,2.82,0,0,0,.5,1.7,3.18,3.18,0,0,0,1.56,1.09,3.45,3.45,0,0,0-1.94,1.23,3.64,3.64,0,0,0-.68,2.24,4,4,0,0,0,1.25,3,5.1,5.1,0,0,0,6.57,0,3.89,3.89,0,0,0,1.25-2.95,3.63,3.63,0,0,0-.66-2.18A3.72,3.72,0,0,0,292.48,508.83Zm-4.2-2.84a2,2,0,0,1,.64-1.48,2.23,2.23,0,0,1,1.61-.62,2.19,2.19,0,0,1,1.6.63,2.09,2.09,0,0,1,.64,1.56,2,2,0,0,1-.62,1.5,2.23,2.23,0,0,1-1.6.61,2.26,2.26,0,0,1-1.64-.62A2.12,2.12,0,0,1,288.28,506Zm4.28,8.34a2.73,2.73,0,0,1-2,.78,3.07,3.07,0,0,1-1.46-.37,2.49,2.49,0,0,1-1-1,3,3,0,0,1-.34-1.4,2.68,2.68,0,0,1,.78-2,2.71,2.71,0,0,1,2-.78,2.78,2.78,0,0,1,2,.79,2.86,2.86,0,0,1,0,4Z"/><path class="cls-3" d="M361.37,462.24A3.6,3.6,0,0,0,360,461a4,4,0,0,0-1.94-.45,3.81,3.81,0,0,0-2.5.81,4.77,4.77,0,0,0-1.49,2.28,12.28,12.28,0,0,0-.5,3.9q0,3.86,1.36,5.57a4.2,4.2,0,0,0,5.63.61,4.85,4.85,0,0,0,1.49-2.29,12.5,12.5,0,0,0,.5-3.89,13.79,13.79,0,0,0-.31-3.23A6.9,6.9,0,0,0,361.37,462.24ZM360,472a2.28,2.28,0,0,1-3.92,0c-.53-.74-.8-2.24-.8-4.49s.29-3.78.88-4.62a2.17,2.17,0,0,1,1.86-1,2.34,2.34,0,0,1,2,1.12c.53.74.8,2.23.8,4.49S360.53,471.24,360,472Z"/><path class="cls-3" d="M345.69,471.84c.29-.3.94-.87,2-1.72a26.51,26.51,0,0,0,2.6-2.41,6.15,6.15,0,0,0,1.13-1.67,4.14,4.14,0,0,0,.33-1.61,3.58,3.58,0,0,0-1.15-2.71,4.38,4.38,0,0,0-3.14-1.09,4.64,4.64,0,0,0-3.13,1,4.29,4.29,0,0,0-1.34,2.95l1.74.17a2.7,2.7,0,0,1,.74-2,2.94,2.94,0,0,1,3.83,0,2.22,2.22,0,0,1,.72,1.68,3.48,3.48,0,0,1-.79,2,18.51,18.51,0,0,1-3,2.9,18.69,18.69,0,0,0-2.21,2.07,6.23,6.23,0,0,0-1.11,1.82,3,3,0,0,0-.2,1.17h9.11v-1.61H345A5.69,5.69,0,0,1,345.69,471.84Z"/><path class="cls-3" d="M372.45,471.84c.29-.3.94-.87,1.95-1.72a25.73,25.73,0,0,0,2.61-2.41,6.1,6.1,0,0,0,1.12-1.67,4,4,0,0,0,.34-1.61,3.61,3.61,0,0,0-1.15-2.71,4.38,4.38,0,0,0-3.14-1.09,4.64,4.64,0,0,0-3.13,1,4.25,4.25,0,0,0-1.34,2.95l1.73.17a2.75,2.75,0,0,1,.75-2,2.62,2.62,0,0,1,1.95-.73,2.57,2.57,0,0,1,1.87.69,2.22,2.22,0,0,1,.72,1.68,3.41,3.41,0,0,1-.79,2,17.94,17.94,0,0,1-3,2.9,18.69,18.69,0,0,0-2.21,2.07,6.23,6.23,0,0,0-1.11,1.82,3,3,0,0,0-.2,1.17h9.1v-1.61h-6.75A5.18,5.18,0,0,1,372.45,471.84Z"/><path class="cls-3" d="M384.73,473a2.51,2.51,0,0,1-1.73-.65,3.16,3.16,0,0,1-.91-1.94l-1.78.15a4.07,4.07,0,0,0,1.36,2.77,4.44,4.44,0,0,0,3.06,1.05,4.38,4.38,0,0,0,3.62-1.67,4.93,4.93,0,0,0,1.09-3.21,4.31,4.31,0,0,0-1.24-3.19,4.11,4.11,0,0,0-3-1.24,4.49,4.49,0,0,0-2.6.86l.74-3.68h5.49v-1.61H382l-1.34,7,1.59.21a2.89,2.89,0,0,1,1-1,3,3,0,0,1,1.48-.37,2.85,2.85,0,0,1,2.12.83,3.09,3.09,0,0,1,.82,2.27,3.41,3.41,0,0,1-.85,2.43A2.7,2.7,0,0,1,384.73,473Z"/><polygon class="cls-3" points="363.47 474.58 364.83 474.58 368.81 460.42 367.46 460.42 363.47 474.58"/><polygon class="cls-3" points="363.47 516.58 364.83 516.58 368.81 502.42 367.46 502.42 363.47 516.58"/><path class="cls-3" d="M388.13,504.24a3.7,3.7,0,0,0-1.39-1.28,4,4,0,0,0-1.94-.45,3.8,3.8,0,0,0-2.49.81,4.78,4.78,0,0,0-1.5,2.28,12.57,12.57,0,0,0-.5,3.9q0,3.86,1.36,5.57a4.2,4.2,0,0,0,5.63.61,4.85,4.85,0,0,0,1.49-2.29,12.5,12.5,0,0,0,.5-3.89,13.27,13.27,0,0,0-.31-3.23A6.89,6.89,0,0,0,388.13,504.24ZM386.76,514a2.27,2.27,0,0,1-3.92,0c-.53-.74-.79-2.24-.79-4.48s.29-3.79.87-4.63a2.17,2.17,0,0,1,1.86-1,2.35,2.35,0,0,1,2,1.12c.53.74.79,2.23.79,4.49S387.29,513.24,386.76,514Z"/><path class="cls-3" d="M372.45,513.84c.29-.3.94-.87,1.95-1.72a25.73,25.73,0,0,0,2.61-2.41,6.1,6.1,0,0,0,1.12-1.67,4,4,0,0,0,.34-1.61,3.61,3.61,0,0,0-1.15-2.71,4.38,4.38,0,0,0-3.14-1.09,4.64,4.64,0,0,0-3.13,1,4.25,4.25,0,0,0-1.34,2.95l1.73.17a2.75,2.75,0,0,1,.75-2,2.62,2.62,0,0,1,1.95-.73,2.57,2.57,0,0,1,1.87.69,2.22,2.22,0,0,1,.72,1.68,3.41,3.41,0,0,1-.79,2,17.94,17.94,0,0,1-3,2.9,18.69,18.69,0,0,0-2.21,2.07,6.23,6.23,0,0,0-1.11,1.82,3,3,0,0,0-.2,1.17h9.1v-1.61h-6.75A5.18,5.18,0,0,1,372.45,513.84Z"/><path class="cls-3" d="M361.37,504.24A3.6,3.6,0,0,0,360,503a4,4,0,0,0-1.94-.45,3.81,3.81,0,0,0-2.5.81,4.77,4.77,0,0,0-1.49,2.28,12.28,12.28,0,0,0-.5,3.9q0,3.86,1.36,5.57a4.2,4.2,0,0,0,5.63.61,4.85,4.85,0,0,0,1.49-2.29,12.5,12.5,0,0,0,.5-3.89,13.79,13.79,0,0,0-.31-3.23A6.9,6.9,0,0,0,361.37,504.24ZM360,514a2.27,2.27,0,0,1-3.92,0c-.53-.74-.8-2.24-.8-4.48s.29-3.79.88-4.63a2.17,2.17,0,0,1,1.86-1,2.34,2.34,0,0,1,2,1.12c.53.74.8,2.23.8,4.49S360.53,513.24,360,514Z"/><path class="cls-3" d="M345.69,513.84c.29-.3.94-.87,2-1.72a26.51,26.51,0,0,0,2.6-2.41,6.15,6.15,0,0,0,1.13-1.67,4.14,4.14,0,0,0,.33-1.61,3.58,3.58,0,0,0-1.15-2.71,4.38,4.38,0,0,0-3.14-1.09,4.64,4.64,0,0,0-3.13,1,4.29,4.29,0,0,0-1.34,2.95l1.74.17a2.7,2.7,0,0,1,.74-2,2.94,2.94,0,0,1,3.83,0,2.22,2.22,0,0,1,.72,1.68,3.48,3.48,0,0,1-.79,2,18.51,18.51,0,0,1-3,2.9,18.69,18.69,0,0,0-2.21,2.07,6.23,6.23,0,0,0-1.11,1.82,3,3,0,0,0-.2,1.17h9.11v-1.61H345A5.69,5.69,0,0,1,345.69,513.84Z"/><polygon class="cls-3" points="45.28 506.15 47.69 506.15 47.69 512.87 45.28 512.87 45.28 515.5 57.28 515.5 57.28 510.53 54.68 510.53 54.68 512.85 50.24 512.85 50.24 510.84 52.64 510.84 52.64 508.23 50.24 508.23 50.24 506.15 54.68 506.15 54.68 508.45 57.28 508.45 57.28 503.5 45.28 503.5 45.28 506.15"/><polygon class="cls-3" points="66.55 506.15 68.97 506.15 68.97 512.87 66.55 512.87 66.55 515.5 73.96 515.5 73.96 512.85 71.52 512.85 71.52 510.84 73.91 510.84 73.91 508.23 71.52 508.23 71.52 506.15 75.96 506.15 75.96 508.45 78.55 508.45 78.55 503.5 66.55 503.5 66.55 506.15"/><path class="cls-3" d="M95.56,503.5H87.83v2.65h2.44v6.72H87.83v2.63H95.3v-2.65H92.84v-2h2.41c2.29-.42,3.6-1.79,3.58-3.78C98.8,504.6,97.18,503.88,95.56,503.5Zm.69,3.63c0,.95-.39,1.09-.82,1.1H92.84v-2.08h2.7C96,506.17,96.25,506.49,96.25,507.13Z"/><path class="cls-3" d="M114.61,503a6.5,6.5,0,1,0,6.49,6.51A6.52,6.52,0,0,0,114.61,503Zm3.2,6.5a3.21,3.21,0,1,1-3.2-3.21A3.2,3.2,0,0,1,117.81,509.5Z"/><polygon class="cls-3" points="130.38 508.7 133.28 508.7 133.28 506.59 134.9 506.59 134.9 512.52 132.68 512.52 132.68 515.5 139.99 515.5 139.99 512.52 137.94 512.52 137.94 506.59 139.42 506.59 139.42 508.7 142.38 508.7 142.38 503.5 130.38 503.5 130.38 508.7"/><polygon class="cls-3" points="151.65 506.15 154.07 506.15 154.07 512.87 151.65 512.87 151.65 515.5 163.65 515.5 163.65 510.53 161.06 510.53 161.06 512.85 156.62 512.85 156.62 510.84 159.02 510.84 159.02 508.23 156.62 508.23 156.62 506.15 161.06 506.15 161.06 508.45 163.65 508.45 163.65 503.5 151.65 503.5 151.65 506.15"/><polygon class="cls-3" points="44.61 559.69 46.43 559.69 46.43 564.73 44.61 564.73 44.61 566.7 53.61 566.7 53.61 562.97 51.67 562.97 51.67 564.71 48.34 564.71 48.34 563.2 50.14 563.2 50.14 561.25 48.34 561.25 48.34 559.69 51.67 559.69 51.67 561.41 53.61 561.41 53.61 557.7 44.61 557.7 44.61 559.69"/><polygon class="cls-3" points="72.78 564.71 70.95 564.71 70.95 563.2 72.75 563.2 72.75 561.25 70.95 561.25 70.95 559.69 74.28 559.69 74.28 561.41 76.23 561.41 76.23 557.7 67.23 557.7 67.23 559.69 69.04 559.69 69.04 564.73 67.23 564.73 67.23 566.7 72.78 566.7 72.78 564.71"/><path class="cls-3" d="M140.44,557.7h-5.77v2h1.82v5h-1.82v2h5.58v-2h-1.84V563.2h1.79c1.72-.31,2.69-1.35,2.67-2.84C142.85,558.52,141.64,558,140.44,557.7Zm.51,2.72c0,.71-.29.82-.61.83h-1.93v-1.56h2C140.78,559.7,141,559.94,141,560.42Z"/><path class="cls-3" d="M94.65,567a4.8,4.8,0,1,0-4.81-4.8A4.8,4.8,0,0,0,94.65,567Zm-2.38-4.8a2.37,2.37,0,1,1,2.38,2.37A2.38,2.38,0,0,1,92.27,562.2Z"/><polygon class="cls-3" points="179 561.6 181.18 561.6 181.18 560.02 182.39 560.02 182.39 564.47 180.73 564.47 180.73 566.7 186.21 566.7 186.21 564.47 184.67 564.47 184.67 560.02 185.78 560.02 185.78 561.6 188 561.6 188 557.7 179 557.7 179 561.6"/><polygon class="cls-3" points="155.8 598.56 154.13 598.56 154.13 600.05 151.29 600.05 151.29 598.76 152.82 598.76 152.82 597.08 151.29 597.08 151.29 595.75 154.13 595.75 154.13 597.23 155.8 597.23 155.8 594.05 148.1 594.05 148.1 595.75 149.65 595.75 149.65 600.06 148.1 600.06 148.1 601.75 155.8 601.75 155.8 598.56"/><polygon class="cls-3" points="29.04 564.74 25.86 564.74 25.86 559.93 27.59 559.93 27.6 557.7 22.1 557.7 22 557.7 22 559.92 23.69 559.92 23.69 564.76 22 564.76 22 566.7 31 566.7 31 563.13 29.04 563.13 29.04 564.74"/><polygon class="cls-3" points="42.05 600.05 40.49 600.05 40.49 598.76 42.02 598.76 42.02 597.08 40.49 597.08 40.49 595.75 43.33 595.75 43.33 597.23 45 597.23 45 594.05 37.3 594.05 37.3 595.75 38.85 595.75 38.85 600.06 37.3 600.06 37.3 601.75 42.05 601.75 42.05 600.05"/><path class="cls-3" d="M78.92,594.05H74v1.7h1.55v4.31H74v1.69h4.76v-1.7H77.19v-1.29h1.53A2.41,2.41,0,0,0,81,596.33C81,594.75,80,594.29,78.92,594.05Zm.44,2.33c0,.61-.25.7-.52.7H77.19v-1.33H78.9C79.21,595.77,79.36,596,79.36,596.38Z"/><path class="cls-3" d="M170.9,593.8a4.1,4.1,0,1,0,4.1,4.1A4.11,4.11,0,0,0,170.9,593.8Zm2,4.1a2,2,0,1,1-2-2A2,2,0,0,1,172.92,597.9Z"/><polygon class="cls-3" points="110.7 597.39 112.56 597.39 112.56 596.03 113.6 596.03 113.6 599.84 112.18 599.84 112.18 601.75 116.87 601.75 116.87 599.84 115.55 599.84 115.55 596.03 116.5 596.03 116.5 597.39 118.4 597.39 118.4 594.05 110.7 594.05 110.7 597.39"/><polygon class="cls-3" points="98.02 600.07 95.31 600.07 95.31 595.96 96.79 595.96 96.79 594.05 92.08 594.05 92 594.05 92 595.95 93.44 595.95 93.44 600.09 92 600.09 92 601.75 99.7 601.75 99.7 598.69 98.02 598.69 98.02 600.07"/><polygon class="cls-3" points="55.04 631.34 56.24 631.34 56.24 634.7 55.04 634.7 55.04 636.02 61.04 636.02 61.04 633.53 59.74 633.53 59.74 634.69 57.52 634.69 57.52 633.68 58.72 633.68 58.72 632.38 57.52 632.38 57.52 631.34 59.74 631.34 59.74 632.49 61.04 632.49 61.04 630.02 55.04 630.02 55.04 631.34"/><polygon class="cls-3" points="134.13 631.34 135.33 631.34 135.33 634.7 134.13 634.7 134.13 636.02 137.83 636.02 137.83 634.69 136.61 634.69 136.61 633.68 137.81 633.68 137.81 632.38 136.61 632.38 136.61 631.34 138.83 631.34 138.83 632.49 140.13 632.49 140.13 630.02 134.13 630.02 134.13 631.34"/><path class="cls-3" d="M43.73,630H40v1.32h1.17v3.36H40V636h3.6v-1.33H42.42v-1h1.15a1.87,1.87,0,0,0,1.73-1.89A1.7,1.7,0,0,0,43.73,630Zm.33,1.81c0,.47-.19.54-.4.55H42.42v-1h1.3C44,631.35,44.06,631.51,44.06,631.83Z"/><path class="cls-3" d="M89.66,629.87A3.15,3.15,0,1,0,92.81,633,3.16,3.16,0,0,0,89.66,629.87ZM91.22,633a1.56,1.56,0,1,1-1.56-1.56A1.55,1.55,0,0,1,91.22,633Z"/><polygon class="cls-3" points="149.86 632.62 151.31 632.62 151.31 631.56 152.12 631.56 152.12 634.53 151.01 634.53 151.01 636.02 154.67 636.02 154.67 634.53 153.64 634.53 153.64 631.56 154.38 631.56 154.38 632.62 155.86 632.62 155.86 630.02 149.86 630.02 149.86 632.62"/><polygon class="cls-3" points="70.78 632.73 72.34 632.73 72.34 631.59 74.36 631.59 70.78 634.66 70.78 636.02 76.78 636.02 76.78 633.46 75.27 633.46 75.27 634.57 73.31 634.57 76.78 631.49 76.78 630.02 70.78 630.02 70.78 632.73"/><polygon class="cls-3" points="107.24 634.71 105.13 634.71 105.13 631.5 106.28 631.5 106.28 630.02 102.55 630.02 102.55 631.49 103.67 631.49 103.67 634.72 102.55 634.72 102.55 636.02 108.55 636.02 108.55 633.63 107.24 633.63 107.24 634.71"/><path class="cls-3" d="M290.08,564.31a3.72,3.72,0,0,0,1.9-.5,3.78,3.78,0,0,0,1.39-1.3v.34a8.28,8.28,0,0,1-.25,2,5.55,5.55,0,0,1-.63,1.6,2.9,2.9,0,0,1-1,1,2.57,2.57,0,0,1-1.37.36,2.13,2.13,0,0,1-1.49-.52,2.79,2.79,0,0,1-.79-1.65l-1.63.15a3.86,3.86,0,0,0,1.23,2.51,3.92,3.92,0,0,0,2.64.89,4.46,4.46,0,0,0,2.66-.81,4.94,4.94,0,0,0,1.7-2.37,12.45,12.45,0,0,0,.58-4.18,10.14,10.14,0,0,0-.58-3.85,4.53,4.53,0,0,0-1.69-2.05,4.45,4.45,0,0,0-2.46-.72,4.18,4.18,0,0,0-3.1,1.27,4.61,4.61,0,0,0-1.23,3.35,4.48,4.48,0,0,0,1.18,3.25A3.88,3.88,0,0,0,290.08,564.31Zm-1.51-6.79a2.61,2.61,0,0,1,2-.92,2.45,2.45,0,0,1,1.86.85,3.27,3.27,0,0,1,.78,2.3,3.22,3.22,0,0,1-.76,2.26,2.5,2.5,0,0,1-1.93.82,2.6,2.6,0,0,1-2-.82,2.9,2.9,0,0,1-.79-2.12A3.41,3.41,0,0,1,288.57,557.52Z"/><path class="cls-3" d="M301.79,594.67a6.64,6.64,0,0,0-.86-2,3.6,3.6,0,0,0-1.38-1.28,4,4,0,0,0-1.94-.44,3.81,3.81,0,0,0-2.5.8,4.84,4.84,0,0,0-1.49,2.28,12.61,12.61,0,0,0-.5,3.9q0,3.86,1.36,5.57a3.8,3.8,0,0,0,3.13,1.41,3.88,3.88,0,0,0,2.5-.8,4.85,4.85,0,0,0,1.49-2.29,12.58,12.58,0,0,0,.49-3.89A13.34,13.34,0,0,0,301.79,594.67Zm-2.22,7.71a2.28,2.28,0,0,1-3.92,0c-.53-.75-.79-2.24-.79-4.49s.29-3.78.87-4.61a2.15,2.15,0,0,1,1.86-1,2.34,2.34,0,0,1,2,1.11c.53.74.8,2.23.8,4.48S300.09,601.64,299.57,602.38Z"/><path class="cls-3" d="M289.38,594.06v10.71h1.69V591H290a6.23,6.23,0,0,1-1.5,1.83,10.39,10.39,0,0,1-2.48,1.61v1.62a10.63,10.63,0,0,0,1.78-.87A8.39,8.39,0,0,0,289.38,594.06Z"/><path class="cls-3" d="M288.52,627.89a10.43,10.43,0,0,1-2.52,1.64v1.65a11.06,11.06,0,0,0,1.81-.89,9.18,9.18,0,0,0,1.63-1.17V640h1.72V626h-1.11A6.47,6.47,0,0,1,288.52,627.89Z"/><path class="cls-3" d="M295.33,627.89a10.43,10.43,0,0,1-2.52,1.64v1.65a11.06,11.06,0,0,0,1.81-.89,8.82,8.82,0,0,0,1.63-1.17V640H298V626h-1.11A6.47,6.47,0,0,1,295.33,627.89Z"/><path class="cls-3" d="M202,371.76a12.69,12.69,0,0,0-3.82-9.28c-1.56-1.53-3.35-2.5-4.57-2.48H180v5.3h4.87v13.44H180V384h13.61C196.9,384,201.87,378.86,202,371.76Zm-12,6.94V365.31h1.5a6,6,0,0,1,5.48,6.27c0,3.61-2.75,7.12-5.48,7.12Z"/><path class="cls-3" d="M60.84,408.82a9.38,9.38,0,0,0-3-7A5.94,5.94,0,0,0,54.36,400H43.84v4H47.6v10.07H43.84V418H54.36C56.9,418,60.74,414.14,60.84,408.82ZM51.58,414V404h1.16a4.6,4.6,0,0,1,4.24,4.7c0,2.71-2.13,5.34-4.24,5.34Z"/><path class="cls-3" d="M132.29,411.18l-4.26-.12a4.95,4.95,0,0,1-9.44-2.06,4.9,4.9,0,0,1,4.94-4.89,5,5,0,0,1,4.54,3l4.25-.05a8.94,8.94,0,1,0,0,4.12Z"/><path class="cls-3" d="M194,467.34a8.68,8.68,0,0,0-2.43-6.19,4.75,4.75,0,0,0-2.91-1.65H180V463h3.1v9H180v3.51h8.66C190.75,475.5,193.92,472.07,194,467.34ZM186.37,472V463h1a4,4,0,0,1,3.49,4.18c0,2.41-1.75,4.75-3.49,4.75Z"/><path class="cls-3" d="M36,509.38a6.34,6.34,0,0,0-1.91-4.64,3.75,3.75,0,0,0-2.29-1.24H25v2.65h2.43v6.72H25v2.63h6.81C33.45,515.5,35.93,512.93,36,509.38Zm-6,3.47v-6.69h.75a3,3,0,0,1,2.74,3.13c0,1.81-1.37,3.56-2.74,3.56Z"/><path class="cls-3" d="M185,511l-2.89-.07a3.4,3.4,0,0,1-3.05,1.91,3.28,3.28,0,1,1,0-6.55,3.37,3.37,0,0,1,3.08,2l2.88,0a6,6,0,1,0,0,2.74Z"/><path class="cls-3" d="M165.37,563.29l-2.13-.06a2.47,2.47,0,0,1-4.72-1,2.45,2.45,0,0,1,2.47-2.45,2.49,2.49,0,0,1,2.27,1.5l2.13,0a4.48,4.48,0,1,0,0,2.06Z"/><path class="cls-3" d="M137.09,598.86l-1.85-.05a2.17,2.17,0,1,1,0-1.74l1.84,0a3.92,3.92,0,1,0,0,1.81Z"/><path class="cls-3" d="M124.38,633.78l-1.46,0a1.73,1.73,0,1,1,0-1.39h1.46a3.13,3.13,0,1,0,0,1.44Z"/><path class="cls-3" d="M121.06,562.11a4.82,4.82,0,0,0-1.39-3.48,2.75,2.75,0,0,0-1.66-.93h-5v2h1.77v5h-1.77v2h5C119.2,566.7,121,564.77,121.06,562.11Zm-4.36,2.6v-5h.55a2.24,2.24,0,0,1,2,2.35c0,1.36-1,2.67-2,2.67Z"/><path class="cls-3" d="M63,597.82a4.12,4.12,0,0,0-1.22-3,2.37,2.37,0,0,0-1.45-.8H56v1.72h1.55v4.35H56v1.71h4.33C61.38,601.79,63,600.12,63,597.82Zm-3.81,2.25v-4.34h.48a1.94,1.94,0,0,1,1.74,2c0,1.17-.88,2.31-1.74,2.31Z"/><path class="cls-3" d="M171,633a3.19,3.19,0,0,0-.94-2.32,1.77,1.77,0,0,0-1.12-.62H165.6v1.32h1.19v3.36H165.6V636h3.34C169.75,636,171,634.73,171,633Zm-2.94,1.73v-3.35h.37a1.5,1.5,0,0,1,1.34,1.57c0,.9-.67,1.78-1.34,1.78Z"/></svg>