<svg id="Слой_1" data-name="Слой 1" xmlns="http://www.w3.org/2000/svg" width="15.5" height="26" viewBox="0 0 15.5 26"><defs><style>.cls-1{fill:#f8f8f8;}</style></defs><path id="tumblr" class="cls-1" d="M15.38,24.39a7.18,7.18,0,0,1-5,1.61c-6.15,0-7.49-4.51-7.49-7.14V11.55H.51A.51.51,0,0,1,0,11V7.59a.86.86,0,0,1,.58-.82A6.47,6.47,0,0,0,4.88.82.73.73,0,0,1,5.56,0H9.3a.51.51,0,0,1,.51.51h0V6.36H14a.51.51,0,0,1,.51.51h0V11a.51.51,0,0,1-.51.51H9.79s0,5.63,0,6.76.55,2,1.59,2.15a6,6,0,0,0,1.88-.33c.35-.11.83-.28,1,.29l1.12,3.26C15.49,23.91,15.57,24.19,15.38,24.39Z"/></svg>