<svg id="Слой_1" data-name="Слой 1" xmlns="http://www.w3.org/2000/svg" width="29" height="23.5" viewBox="0 0 29 23.5"><defs><style>.cls-1{fill:#f8f8f8;}</style></defs><path id="twitter" class="cls-1" d="M29,2.69a12,12,0,0,1-3.42.94A6,6,0,0,0,28.2.33a11.76,11.76,0,0,1-3.78,1.45A6,6,0,0,0,14.28,7.21,16.88,16.88,0,0,1,2,1,6,6,0,0,0,3.86,8.94a5.94,5.94,0,0,1-2.69-.75v.07A6,6,0,0,0,5.94,14.1a5.92,5.92,0,0,1-2.69.11,6,6,0,0,0,5.56,4.13A12,12,0,0,1,0,20.82,16.87,16.87,0,0,0,9.12,23.5a16.74,16.74,0,0,0,12.17-5.09A16.59,16.59,0,0,0,26.05,5.79,12.43,12.43,0,0,0,29,2.69Z"/></svg>